<mxfile host="Electron" modified="2023-11-19T22:43:32.131Z" agent="Mozilla/5.0 (X11; Linux x86_64) AppleWebKit/537.36 (KHTML, like Gecko) draw.io/21.6.8 Chrome/114.0.5735.289 Electron/25.5.0 Safari/537.36" etag="RpWPO__Vm1YdU4dlBj1P" version="21.6.8" type="device">
  <diagram name="Page-1" id="2oFoFgx67Ha6SGFjVkiy">
    <mxGraphModel dx="773" dy="685" grid="0" gridSize="10" guides="1" tooltips="1" connect="1" arrows="1" fold="1" page="1" pageScale="1" pageWidth="850" pageHeight="1100" math="0" shadow="0">
      <root>
        <mxCell id="0" />
        <mxCell id="1" parent="0" />
        <mxCell id="a52Ma6BXgHtZuyZ6-2Qi-2" value="Fedora 38&lt;br&gt;Workstation" style="image;sketch=0;aspect=fixed;html=1;points=[];align=center;fontSize=12;image=img/lib/mscae/VM_Linux.svg;" vertex="1" parent="1">
          <mxGeometry x="130" y="130" width="50" height="46" as="geometry" />
        </mxCell>
        <mxCell id="a52Ma6BXgHtZuyZ6-2Qi-4" style="edgeStyle=orthogonalEdgeStyle;rounded=0;orthogonalLoop=1;jettySize=auto;html=1;" edge="1" parent="1" source="a52Ma6BXgHtZuyZ6-2Qi-3" target="a52Ma6BXgHtZuyZ6-2Qi-2">
          <mxGeometry relative="1" as="geometry" />
        </mxCell>
        <mxCell id="a52Ma6BXgHtZuyZ6-2Qi-3" value="Ubuntu 20.04&lt;br&gt;Desktop" style="image;sketch=0;aspect=fixed;html=1;points=[];align=center;fontSize=12;image=img/lib/mscae/VM_Linux_Non_Azure.svg;" vertex="1" parent="1">
          <mxGeometry x="460" y="130" width="50" height="46" as="geometry" />
        </mxCell>
        <mxCell id="a52Ma6BXgHtZuyZ6-2Qi-5" value="&lt;font color=&quot;#3333ff&quot;&gt;Aqui se activará Wake-On-LAN&lt;/font&gt;" style="text;html=1;strokeColor=none;fillColor=none;align=center;verticalAlign=middle;whiteSpace=wrap;rounded=0;" vertex="1" parent="1">
          <mxGeometry x="112.5" y="210" width="85" height="60" as="geometry" />
        </mxCell>
        <mxCell id="a52Ma6BXgHtZuyZ6-2Qi-6" value="Este en cambio enviará el paquete magico. &lt;br&gt;Mientras esté conectado en red." style="text;html=1;strokeColor=none;fillColor=none;align=center;verticalAlign=middle;whiteSpace=wrap;rounded=0;" vertex="1" parent="1">
          <mxGeometry x="425" y="210" width="120" height="90" as="geometry" />
        </mxCell>
        <mxCell id="a52Ma6BXgHtZuyZ6-2Qi-7" value="" style="shape=image;verticalLabelPosition=bottom;labelBackgroundColor=default;verticalAlign=top;aspect=fixed;imageAspect=0;image=data:image/png,iVBORw0KGgoAAAANSUhEUgAAAlIAAAJKCAYAAADnWquFAAAABHNCSVQICAgIfAhkiAAAABl0RVh0U29mdHdhcmUAZ25vbWUtc2NyZWVuc2hvdO8Dvz4AAAAmdEVYdENyZWF0aW9uIFRpbWUAZG9tIDE5IG5vdiAyMDIzIDE3OjM3OjAzI7gUCQAAIABJREFUeJzs3XtcVNX++P8XzADiMAw4Koh4CRQvED+1Y4h5Q8M+PtCv9/QoDzKPlsYnNS2l8JZYmhdAIK+QRFbY5+MlL6cPIB5Dcjwimp4U1BRFEVRgUO733x8c9nHkMgNesFzPx8NHA+/Ze95rrWHm3dp7r21UXV1dDWBnZ4eJiQm1jI2N6dq1KwDp6elUVFTwMHt7exQKBdeuXaO8vBxD7dy5k6tXr7Ju3TocHBzIyMggPz/f4O1rqVQq7Ozs0Gq1ZGVlPfPtBUEQBEEQ5A0FqqqquHbtWoMb3rp167FeuKysjNTU1GZvf//+fe7fv99i2wuCIAiCIBg/6xfMzc0VBYwgCIIgCH8KRg0d2hMEQRAEQRAa98xnpARBEARBEP4sRCElCIIgCILQTKKQEgRBEARBaKYGr9p7XrRv357333+fNWvWUFRU1NLpMGXKFAoKCjh8+HCLvH7//v2ZOnUqAHl5eQQEBLRIHvo4OztjaWnJ+fPnKSwsNHg7Y2NjHB0dsbe3p6CggAsXLtQ77nK5nHbt2qHVaikpKal3X56envTv3x9zc3O2bdumc6Vpx44d6dGjBwUFBZw7d47S0tKmN1IQBEF44dWZkTIyAiNZzX+fB9bW1vj4+NCqVatn9ppKpZL9+/fTuXPnOjEPDw8GDBjQ7O0f1507d0hMTKS4uJjRo0c/8f0/rlatWrF7926+//57AgMDOXHiBK+88orB23/77bf89NNPrF69mvDwcBITExk4cKDO/n18fEhISODkyZMMHz683v2MHj2a4OBgysvLyczMlNY6MzIyYuXKlfzyyy988cUX7Nixg/Dw8MdrtCAIgvDCqjMjZelcSr8Ndyh/YMw/Z9tRfv/FO/pnYmJC3759MTc3b5HtG5Oenk56ejpQM+PyvHnnnXd46aWXGDp0KFqtli+//JLAwEA8PDyoqqrSu/3q1av5/fffKS0tRSaTsXbtWoKCgnBzcwPA398fDw8PwsPDWbFiRYP7cXd3Jy4ujvXr1+v8fvLkybz55ptMnz6dX375BUBaeFYQBEEQmqpOIXX/NzNuHVRi///y6T5Xy8W16ibv1MvLi/Hjx2NtbU1mZibR0dEkJiYCMG3aNPLz8zl48CAAlpaW+Pn5sXHjRnJycjA2Nmb27Nm8/vrrZGdnS8972NixY5kwYQIKhYLk5GTCwsKatDq6u7s7Pj4+qNVqLl68SEhICLm5uahUKvz9/TE1NQVg4cKF0ppXfn5+OoWAj48PXl5eZGdns379eq5fv27w9vryf9z2Nbf9AN7e3uTn56NSqeq0D2DGjBlotVqcnJwYMGAAaWlpbNy4kczMTADGjBnD3r170Wq1KBQK+vXrh52dHa6urvz6669A4++PCxcuSHlWVlZy5MgR3nzzTRQKBYWFhURGRvLpp58ik8nqLaS8vb1xdXVlwIABVFZWsm7dOgDCwsJIT09n2rRpfP/991IRBUhtEwRBEISmqne66VqEFSV35Nh4FKJ+tbhJOxw8eDCBgYEkJCQQGhrKmTNn6N27txQfMmQIr776qvSzQqFg+vTpKJVKAObMmYOvry979uwhMTGRlStX6ux/7NixbNiwAY1GQ1RUFB4eHmzZssXg/Dw8PIiMjCQ1NZWIiAjatm3Lvn37MDMzo6ysDI1Gw+nTpwE4d+4cGo0GjUbDv5fbAmDUqFH07NmTb7/9FhsbG8LCwgAM2l5f/o/bvsdpP8CgQYNYtmxZve0DGDp0KGvWrEGtVhMeHk6nTp34+uuvMTIyQi6X4+joKK1Yv2jRIn7++Weqqqro2bMnoP/98bAOHTowffp0kpKSpPOsrl69Wud2RQ+7fPkyGo2G7Oxs7t69K/V/QUEBMpkMFxcXzpw5w4cffkhYWBjvv/8+CoXiifStIAiC8OKp92TzyhIjLgW34f9bc5ce83L55+wOVBYbdoivb9++XL58maioKACOHTvWpIRmzZpFUFAQ0dHRQE2h5e/vL8Xnzp3Lzp072bp1K1DzxRkTE4OLiwu//fab3v0vXbqUsLAwQkNDAYiLiyM+Pp5x48axe/du9u3bR5s2bfjss8+Ij4/n0qVLdfaRmZnJJ598AsDNmzfZv38/FhYWFBQU6N1eX/6P277Hbb++9gFkZGTg5+cHwKlTpzh16hSDBw/mX//6FzKZjPv37+Pi4sKoUaMYOXIkXl5eWFlZAYa9Pzw9Pdm2bRsymYxz587h4+NjcPtOnToFwLBhwygtLWXfvn1SzMrKChMTExYvXsyJEyc4deoUU6dOZdSoUYwZM4bKysqmdKUgCIIgNLz8Qe6ZVmTGWGDWrhLHmYbf0kWj0eDs7MyOHTvw8fGhe/fuBm/bpk0b1Gq1dAgI0HlsZGSEo6MjycnJ0u9SU1MpLCzEyclJ7/4tLCzo1q0bEydO5NChQxw6dIgDBw6gVqtxcXExOM+LFy9Kj+/cuSPlro++/B+3ffoY2n597Tt79qz0OCcnh/T0dHr06CHNupmbm7N27VpWrlxJfn4+lZWVUsyQ98cvv/zCiBEj8Pb2xtjYmODg4MduO9T0P9QcPvz444+Jiopi1qxZ9O7dmyFDhjyR1xAEQRBeLI0uf1CaIwPAtI3h/6eelJSEl5cX48aNY/LkyQQEBBAUFNTgl6HRQ5cH1l6Z9/Dl7A8/lsvlmJiY1Lncvbi42KDDMxYWFgCEhITonIsDNUsJGKqsrEx6XFsgGBvrn7HTl//jtk8fQ9uvr32P5ldaWoq5uTn5+flUVFTg6+tLeno6MTExyGQyLC0tpXOwDHl/FBUVkZaWRlpaGpmZmcTHx9OnTx+doro5avM7c+aM9Lvbt2+Tm5uLg4MD//jHPx5r/4IgCMKLp8FCysKhjC5vPqCiwJjLX1o3aacpKSmkpKQAMHv2bBYsWCB9URYVFeksZdC+fXvp8d27d6moqMDe3l7avlOnTlK8vLycnJwcunTp8p88LSxo06YNGRkZevO6c+cORUVFVFZW1nvI7uHXAcOKo6Zsry//prSvuLhYOqndUIa2X5+Hx0Qmk9GhQwcyMzOl/Xbu3JkZM2YA4OTkhEwm0yncGnt/PKp2DaknUUhWVFRw7do16TAj1IxR69atxY20BUEQhGapt1IwkkGvRbkYyav5fYcVZbkyg3fo5uamUwioVCru3r0r/ZyWlsbAgQNRqVTI5XJmz54txSoqKoiNjeXtt9/G1NSUVq1aMXPmTJ39Hz58GB8fH6yta4q7efPmodVq0Wg0enOrrq5m165d+Pr60rFjR6BmlsjT0xMHBwfpefn5+eTl5TF8+HDk8qavWdrY9vryN7R9KSkpWFlZMWLECBQKhUE3nDa0/foMHjwYV1dXAKZOnYqZmRnx8fEA7N27F6gpAOVyOb6+vqSkpEiHCxt7f5ibmzNr1iw6dOiAkZERbdu2Zfny5Tx48EA6P8zExARHR0cpXxsbGxwdHVGpVAblfvDgQSZNmoSdnR1Qc5WfTCYz6P0jCIIgCI+qt0ro/OYDLLqVof21FZn/Z9GkHTo7O/PNN99QUFBAdXU1ZWVlzJ8/X4pHR0czadIkTp8+TUlJCdu3b9dZWHLNmjVERUVx7tw5qqurOXz4MH/5y1+keHBwMM7Ozpw+fZrCwkKqq6tZuHAhxcWGXV0YGBiIjY0Nx48fJycnB2tra27fvq1T0EHNSdlLlixh0aJFyGQyHB0dG71a7FENba8vf0Pbd+PGDQICAli/fj1qtZqoqCiWLVv2xNrfmMTERCIiIpDL5VhYWODv7y8duouMjKRPnz4cOXKEkpIS8vLydIrhxt4fRkZGTJ8+nWXLllFRUYFcLufGjRu8++670oyRg4MDsbGx0v5qr+pctWoVERERenPfunUrLi4uJCYmkp+fj4mJCR999JFBM5qCIAiC8Cij6n+fBGNnZ4eJiQmtO5fTf3MW1VWQ9G4HijObPiNjamqKvb09lZWV3Lp1q87VUHK5nC5dunDv3j0ePHhQZ/va24Tk5uaSk5NT72vY29ujUCi4du2adCitKVQqFXZ2dmi1WrKyspq8/ePSl//jtk+f5rZ/586dXL16lXXr1uHg4EBGRka9a1zZ2tqiVCq5du1anfHX9/5o06YN7dq148GDB2RlZeksPfGktG/fHqVSyY0bN5pUIAuCIAjCw+oUUiaqKkwsK6ksNqY02/BDesKLobaQWr16dUunIgiCIAgtrs50U/l94xfytjCCYXJzc8WJ2YIgCILwb3VmpARBEARBEATDiKknQRAEQRCEZhKFlCAIgiAIQjOJQkoQBEEQBKGZ6l3bQC6X07t3b9RqNRkZGVy5cuWpXIKuz/z584mLi9O599vzxNPTk/79+2Nubs62bdu4detWS6f0xDg7O2Npacn58+cpLCw0eLvapSvs7e0pKCjgwoUL0urkD5PL5bRr1w6tVlvnljO1Guvfjh070qNHDwoKCjh37hylpaVNb6QgCIIgPKY6M1Ldu3cnLi6OyMhI/Pz8OHDgAIcOHWrSTpVKJfv376dz587Nitfy8fGhW7duTXrtZ2X06NEEBwdTXl5OZmbmU1nrqSW0atWK3bt38/333xMYGMiJEyd45ZVXDN7+22+/5aeffmL16tWEh4eTmJjIwIEDdfbv4+NDQkICJ0+eZPjw4fXup6H+NTIyYuXKlfzyyy988cUX7Nixg/Dw8MdrtCAIgiA0U50ZqQ0bNnD27FkWL15MRUUFpqameHp6NmmnJiYm9O3bF3Nz82bFa7m7uz+3iyW6u7sTFxfH+vXrWzqVJ+qdd97hpZdeYujQoWi1Wr788ksCAwPx8PCgqqpK7/arV6/m999/p7S0FJlMxtq1awkKCsLNzQ0Af39/PDw8CA8PZ8WKFQ3up6H+nTx5Mm+++SbTp0/nl19+AaBr167Nb7AgCIIgPAad5Q/Mzc25cuUKf/vb3zh69GiDG7m7u+Pj44NarebixYuEhISQm5uLSqXC398fU1NTxo8fz//93/9Jaw75+fmhVCobjdd+US9atAi1Wg3U3FLm/Pnz0mt7e3uTn5+PSqXCy8uL7Oxs1q9fz/Xr12saZGTE7Nmz8fT0JDs7m6ioKMaMGcPq1aulQ0xeXl6MHz8ea2trMjMziY6OJjEx0aAO8/b2xtXVlQEDBlBZWUlSUhIAYWFhpKenAzB27FgmTJiAQqEgOTmZsLAwndW/vby8sLW1JTk5mblz52JlZUVMTAxfffWVQTk01P+G9M+MGTPQarU4OTkxYMAA0tLS2LhxI5mZmQDExcURHx/P2rVrUSgUHDlyBDs7O8aOHcuvv/7a5P5744032L59O71796awsBBHR0du3LiBTCbj8uXLzJ07l7///e8G9+/+/ftJTk4mICCgwf5RKBRSkfbJJ588t8W4IAiC8Menc2ivoqKCe/fu4e3tTfv27evdwMPDg8jISFJTU4mIiKBt27bs27cPMzMzysrK0Gg0nD59GoBz586h0WjQaDTSfdUai9dKTU3l/PnzjB07ts5sw6BBg1i2bBk9e/bk22+/xcbGhrCwMCn+7rvvMm/ePH788UeOHTvGxo0bmT59Oq1atQJqbrgbGBhIQkICoaGhnDlzht69exvcYZcvX0aj0ZCdnc3du3el/AsKCoCaImrDhg1oNBqioqLw8PBgy5YtOvvo27cvU6ZMISgoiPPnz3P48GF69Ohh0Os31v+G9M/QoUNZs2YNarWa8PBwOnXqxNdff42RkRFyuRxHR0dSU1OBmoL2559/pqqqip49eza5/zp06MD06dNJSkqSzrO6evVqo4VNY/0rk8lwcXHhzJkzfPjhh4SFhfH++++jUCh09mFmZsaUKVOYMmUKMplYnV8QBEF4euoc2lu8eDGbNm3in//8J6mpqcTExLBz505p5mjp0qWEhYURGhoK/GcGY9y4cezevZt9+/bRpk0bPvvsM+Lj47l06ZK07+Li4kbjtQ4fPgzARx99VG/SmZmZfPLJJwDcvHmT/fv3Y2FhQUFBAbNnzyYwMJBdu3YBYGFhwfLly6Vt+/bty+XLl4mKigLg2LFjTeqwU6dOATBs2DBKS0vZt2+fTnzu3Lns3LmTrVu3AjWFQUxMDC4uLvz222/S8xwdHRkxYoQ0U2Qoff0PjfcPQEZGBn5+flJ7Tp06xeDBg/nXv/6FTCbj/v37uLi4MGrUKEaOHImXlxdWVlaAYf3n6enJtm3bkMlknDt3Dh8fH4Pb11j/WllZYWJiwuLFizlx4gSnTp1i6tSpjBo1ijFjxkj37KuoqODatWsABh2OFARBEITmqnOy+bFjx3Bzc+Pdd98lKSmJt956i4MHD9K6dWssLCzo1q0bEydO5NChQxw6dIgDBw6gVqtxcXF5Zkk/fBXfnTt3gJob3arVatq2bcvZs2el+Llz53S21Wg0ODs7s2PHDnx8fOjevfsTy8vIyAhHR0eSk5Ol36WmplJYWIiTk5POcy9dutTkIsrQ/m+of2o93D85OTmkp6fTo0cPaVbQ3NyctWvXsnLlSvLz86msrJRihvTfL7/8wogRI/D29sbY2Jjg4OAmtbMhRkZGAFy4cIGPP/6YqKgoZs2aRe/evRkyZIj0vAcPHuDh4YGHh8ef5iIAQRAE4flU7/IHJSUlxMbGEhsby+bNmzl+/DgjR47k5MmTAISEhHDhwgWdbfLy8p5+tv9WVlYmPa79gjc2NsbU1LRO/NEv0qSkJLy8vBg3bhyTJ08mICCAoKCgJ/JlL5fLMTExqXM5f3FxcZ3DT9nZ2U3ev4WFBaC//xvqn1qP5ldaWoq5uTn5+flUVFTg6+tLeno6MTExyGQyLC0tpXOwDOm/oqIi0tLSSEtLIzMzk/j4ePr06SOdY9VctfmdOXNG+t3t27fJzc3FwcGBf/zjH4+1f0EQBEFoqnoLqYdlZWWh1WqxsLDgzp07FBUVUVlZWe8huVq1xcvDX95NiTfXnTt3KC0tpVu3blKhUd8VXSkpKaSkpAAwe/ZsFixY8EQKqfLycnJycujSpYv0OwsLC9q0aUNGRsZj79/Q/tenU6dO0mOZTEaHDh3IzMyU9tu5c2dmzJgBgJOTEzKZTKdwa0r/1Z7g/2gh2Ry1h+xqDzNCzXuodevWOjdSbtWqFTNnzgRg27Zt0iE/QRAEQXjS6lQyK1asoFevXshkMmQyGd7e3rRr147k5GSqq6vZtWsXvr6+dOzYEaiZhfH09MTBwUHaR35+Pnl5eQwfPhy5vG6tpi/eXFVVVezdu5f33nsPe3t7bG1tmT17ts5z3NzcdAodlUrF3bt3n1gOhw8fxsfHB2trawDmzZuHVqtFo9E89r4N7X99Bg8ejKurKwBTp07FzMyM+Ph4APbu3QvUFIByuRxfX19SUlKkw4WN9Z+5uTmzZs2iQ4cOGBkZ0bZtW5YvX86DBw+k88NMTExwdHSU8rWxscHR0RGVSmVQ7gcPHmTSpEnY2dkBNVf5yWQynf5t3bo1S5YsYcmSJU/0/SUIgiAIj6rzLWNra6uzAGdhYSH+/v7SDERgYCA2NjYcP36cnJwcrK2tuX37dp2CZenSpSxZsoRFixYhk8lwdHTUuVqrofiECRP44osvADA1NSUoKIiNGzdy+fJlvLy89DZo7dq1bNq0icTERHJzc4mIiODll1+WZsGcnZ355ptvKCgokK4knD9/fjO6rn7BwcE4Oztz+vRpCgsLqa6uZuHChRQXFz+R/Rva/41JTEwkIiICuVyOhYUF/v7+0qG7yMhI+vTpw5EjRygpKSEvL0+a3YHG+8/IyIjp06ezbNkyKioqkMvl3Lhxg3fffVeaMXJwcCA2Nlba38qVKwFYtWoVERERenPfunUrLi4uJCYmkp+fj4mJCR999NETmfETBEEQhKbSWUfKxMQEqJlZ6NChA5WVlWRkZNR7ubpKpcLOzg6tVktWVtazzdoAcrmciooKhg4dyubNm3F2dpZipqam2NvbU1lZya1bt57KoR97e3sUCgXXrl17Kic8N7f/d+7cydWrV1m3bh0ODg5kZGTorHFVy9bWFqVSybVr1+r0j77+a9OmDe3atePBgwdkZWU9ldsLtW/fHqVSyY0bN8Q6UYIgCEKLqbeQ+iPr2bMnnTp1IikpCYVCQWBgIGlpadLl/i+62kJq9erVLZ2KIAiCIPzh/elOIDE1NWXhwoV06dKF/Px84uPj+fzzz1s6redGbm6uzonZgiAIgiA0359uRkoQBEEQBOFZebLrDwiCIAiCILxARCElCIIgCILQTH+6c6QE4Vlo3bq1tBZXXl6edKPn58GAAQOAmhXuH14FXhAEQXjyRCFVD7lcTu/evVGr1WRkZHDlypWncgn/H0H79u15//33WbNmjbRKuVCzOvzu3bs5ceIESUlJBhVStra2ja7wnpaWRrt27aRbAZWUlJCVldXk5TnmzJmDra0t1tbWuLm5NWlbQRAEoWnEyeaP6N69O9u3b0elUnHv3j26dOnC1atXDVoM9HmhVCr55ptvmDdvHunp6Y+1rx49ehAbG0vfvn2lRTtb2pNsX3M1p1927NjByJEjG4y//PLLfP7554wePZqqqiqMjY2pqKjg22+/ZdWqVU0qqMaPH4+fn58opARBEJ4yMSP1iA0bNnD27FkWL15MRUUFpqameHp6tnRaTWJiYkLfvn0xNzdv6VSeij9q+x5eff6DDz5g6tSp9RY6CQkJ+Pj4YGJiwsiRIwkNDeX69evs3LnzWaYrCIIgGEAUUg+Ry+W4urqyadMmabXssrIyDh8+LD1n2rRp5Ofnc/DgQQAsLS3x8/Nj48aN5OTkMGPGDLRaLU5OTgwYMIC0tDQ2btxIZmYmgN44wNixY5kwYQIKhYLk5GTCwsJ0Vh/38vLC1taW5ORk5s6di5WVFTExMezZswd/f39MTU0BWLhwobRmlJ+fH1VVVQC4u7vj4+ODWq3m4sWLhISESLMqxsbGzJ49m9dff53s7GypnYZ6Htrn5eXF+PHjsba2JjMzk+joaBITE6X9KxQKVqxYAcAnn3zy3K6MXl5ezuHDh/H29sbd3V0UUoIgCM8hcdXeQyoqKrh37x7e3t60b9++3ucMGTKEV199VfpZoVAwffp0lEolAEOHDmXNmjWo1WrCw8Pp1KkTX3/9NUZGRgbFx44dy4YNG9BoNERFReHh4cGWLVt0cujbty9TpkwhKCiI8+fPc/jwYXr06EFZWRkajYbTp08DcO7cOTQaDRqNRjrHy8PDg8jISFJTU4mIiKBt27bs27cPMzMzoOb8Gl9fX/bs2UNiYqJ0LzxDtXT7Bg8eTGBgIAkJCYSGhnLmzBl69+6ts38zMzOmTJnClClTkMlkTWpfS7C0tKSkpKSl0xAEQRDqIWakHrF48WI2bdrEP//5T1JTU4mJiWHnzp1NWg08IyNDuiXNqVOnOHXqFIMHDyYhIUFvfO7cuezcuZOtW7cCcPnyZWJiYnBxceG3336TXsPR0ZERI0Zw/fp1ndfet28fbdq04bPPPiM+Pp5Lly7pxJcuXUpYWBihoaEAxMXFER8fz7hx49i9ezezZs0iKCiI6OhooKZQ9Pf3b0IPtmz7+vbty+XLl4mKigLg2LFjdfKrqKjg2rVrANIs1vNEqVTi6upKq1atGDVqFC4uLoSEhLR0WoIgCEI9xIzUI44dO4abmxvvvvsuSUlJvPXWWxw8eJDWrVsbvI+zZ89Kj3NyckhPT6dHjx5640ZGRjg6OpKcnCzFU1NTKSwsxMnJSec1Ll26VKfI0MfCwoJu3boxceJEDh06xKFDhzhw4ABqtRoXFxfatGmDWq3m119/lbZ5+LGhWqp9ABqNBmdnZ3bs2IGPjw/du3ev85wHDx7g4eGBh4fHU7mh9ONydXUlKiqK0NBQXn75ZebNm0dMTExLpyUIgiDUQ8xI1aOkpITY2FhiY2PZvHkzx48fZ+TIkezfv7/Oc2sPWT26/cNKS0t1ToxuKC6XyzExMakTLy4urnPZfHZ2dpPbVXtZfUhICBcuXNCJ5eXl0apVqzr5NeeQUku1DyApKQkvLy/GjRvH5MmTCQgIICgoiODg4GbtryX88ssv+Pj4tHQagiAIggFEIaVHVlYWWq1WKkKKioqkggOo91yqTp06SY9lMhkdOnTQOdm6oXh5eTk5OTl06dJFiltYWNCmTRsyMjIMzrl2lsXYWHfC8c6dOxQVFVFZWVnnkBjUnGxfUVGBvb09KSkpdXI1VEu1r1ZKSoqU/+zZs1mwYIFOIdWqVStmzpwJwLZt25q8TpMgCIIg1BKH9h6xYsUKevXqhUwmQyaT4e3tTbt27aTDUWlpaQwcOBCVSoVcLte5pL3W4MGDpVWvp06dipmZGfHx8QbFDx8+jI+PD9bW1gDMmzcPrVaLRqMxuA35+fnk5eUxfPhw5PL/1MrV1dXs2rULX19fOnbsCNQUT56enjg4OFBRUUFsbCxvv/02pqamOgVHU7RU+wDc3Nx0CjWVSsXdu3d1ntO6dWuWLFnCkiVL6mwvCIIgCE0hvkUeYWtry6FDh6SfCwsL8ff3l2Y4oqOjmTRpEqdPn6akpITt27czevRonX0kJiYSERGBXC7HwsICf39/nUUbG4sHBwfj7OzM6dOnKSwspLq6moULF1JcXNykdixdupQlS5awaNEiZDIZjo6OVFRUEBgYiI2NDcePHycnJwdra2tu374tFYRr1qwhKiqKc+fOUV1dzeHDh/nLX/7SpNduyfY5OzvzzTffUFBQQHV1NWVlZcyfP79J+xYEQRAEQ4mVzethbm5Ohw4dqKysJCMjo846Q3K5nC5dunDv3j0ePHigE9u5cydXr15l3bp1ODg4kJGRobNGkr54LXt7exQKBdeuXXsqJ0SrVCrs7OzQarVkZWXpxIyNjXF0dCQ3N5ecnJwm7fd5aJ+pqSn29vZUVlZy69atp3LornZl80uXLqHRaKR1qZ4Hhw4dQq18BDllAAAgAElEQVRWY2xsLFY2FwRBeMrEjFQ9iouLpcvj61NRUcHVq1cb3UdZWVmj91/TF79165b+RB/D/fv3G1zSoaqqiitXrjzW/luyfWVlZY2O35Nw7do1hg8fDvDc3YNw3rx5GBkZPbcLjQqCIPyZiELqCcvNzW10zSl98T+6P3v7apWXl+stplvK0y4iBUEQhP8Qh/YEQRAEQRCaSVy1JwiCIAiC0EyikBIEQRAEQWgmUUgJgiAIgiA0kzjZvB5yuZzevXujVqvJyMjgypUr/PtUshdO+/btef/991mzZo1BV6f179+fqVOnAjW3nQkICGjwufPnzycuLo6LFy8anE+/fv0YPnw4GzZsMHibp6mp/fNHIZfLadeuHVqttt7bBDk7O2Npacn58+cpLCyUfv/Xv/6VvLw8fvrpp2eZLlCzBtyjtxp6WFpaWr03qXZwcCArK4uSkhJeeuklsrKydNrUtWtX8vLyyMvL05tDU97/np6e9O/fH3Nzc7Zt29akK1lfxPEpKirC0tKSdu3a1XlOXl6eQUu16BufpoyfINQSM1KP6N69O3FxcURGRuLn58eBAwd0Fuj8I1Aqlezfv5/OnTs/9r6sra3x8fHRuS1OY+7cuUNiYiLFxcV1Fip9lI+PD926dWtSPk5OTkyePLlJ2zxNTe2f512rVq3w8fEhISGBkydPSks8PBzfvXs333//PYGBgZw4cYJXXnlFig8fPpxXX331WacNQEBAAEePHm3wX+1tnh722muvcejQIUxMTLCwsODo0aMMGjRI5zn79+/nzTffNCgHQ9//o0ePJjg4mPLycun2SYZ4kccHYPz48fVu+9///d8G5aBvfJry+SUItcSM1CM2bNjA2bNnWbx4MRUVFZiamuLp6dnSaTWJiYkJffv21blR8rOSnp5Oeno6gN5+c3d3F2sdPWf8/f3x8PAgPDy83kVG33nnHV566SWGDh2KVqvlyy+/JDAwEA8Pj3pnE56lh2/X9MEHHzB16lS9C5K+9957fPfdd9y/fx9LS8vHzsHQ97+7uztxcXGsX7++Sft/kcenVllZGd27d29WDvrGpymfX4JQSxRSD5HL5bi6urJp0ybpC76srIzDhw9Lz5k2bRr5+fkcPHgQAEtLS/z8/Ni4cSM5OTnMmDEDrVaLk5MTAwYMIC0tjY0bN0o3LdYXBxg7diwTJkxAoVCQnJxMWFiYzurgXl5e2NrakpyczNy5c7GysiImJoY9e/bg7++PqakpAAsXLpQ+gPz8/KQPUnd3d3x8fFCr1Vy8eJGQkBDpFi7GxsbMnj2b119/nezsbKmdT9KiRYtQq9VAzS13zp8/L8W8vb3Jz89HpVLh5eVFdnY269ev5/r16/Xuy8bGhvnz57N3715Onz7d6Ot269aNyZMnU15ejrOzMxs3bmTmzJlYWFjw8ccfS4cGGut/Q/qnsf6FmvEbP3481tbWZGZmEh0dTWJiohRXKBTSl+Qnn3zyTIvNyMhIPv30U2QyWb1f1GPGjGHv3r1otVoUCgX9+vXDzs4OV1dXfv31V6Dm7+jDDz/E3d2d9PR0NmzYIN2UulevXkyZMgUnJyfkcjlnz55ly5YtOofN9PWPvv41lIuLC25ubnz44YcGb2NI/o3x9vbG1dWVAQMGUFlZybp16wAICwuTvsAbI8ancfo+nwXhaRCH9h5SUVHBvXv38Pb2pn379vU+Z8iQITpT4wqFgunTp6NUKgEYOnQoa9asQa1WEx4eTqdOnfj6668xMjIyKD527Fg2bNiARqMhKioKDw8PtmzZopND3759mTJlCkFBQZw/f57Dhw/To0cPysrK0Gg0UkFx7tw5NBoNGo1GOsfLw8ODyMhIUlNTiYiIoG3btuzbtw8zMzMA5syZg6+vL3v27CExMZGVK1c+uQ7+t9TUVM6fP8/YsWPp2rWrTmzQoEEsW7aMnj178u2332JjY0NYWFi9+7Gzs+N//ud/yM/P11tEQc05GnPmzCE9PR2ZTMb//u//8vPPP2Ntbc3f/vY3QH//6+sfff07ePBgAgMDSUhIIDQ0lDNnztC7d2+dfZiZmTFlyhSmTJmCTCbT264n6erVqw0WbnK5HEdHR2nF+kWLFvHzzz9TVVVFz549pedNmjQJGxsbwsPDsbGxYdeuXVI7hg4dSlVVFdHR0Xz11Vf06dOHnTt3Stvq6x99/dsU7733Hvv379f5nxiAnj17MmjQIOnfw+vr6ctfn8uXL6PRaMjOzubu3bvS32dBQYFB24vxqfmfmWHDhun8qz20ru/zWRCeBjEj9YjFixezadMm/vnPf5KamkpMTAw7d+5s0mrdGRkZ+Pn5AXDq1ClOnTrF4MGDSUhI0BufO3cuO3fuZOvWrUDNB29MTAwuLi789ttv0ms4OjoyYsSIOjM1+/bto02bNnz22WfEx8dz6dIlnfjSpUsJCwsjNDQUgLi4OOLj4xk3bhy7d+9m1qxZBAUFER0dDdR8EPn7+zehB/WrneH76KOP6o1nZmbyySefAHDz5k3279+PhYWFzpdN165d+f7774mOjmbTpk0Gv3Zubi4//PADRkZG2Nvb8+OPP9KhQwf69OkDoLf/9fWPvv7t27cvly9fJioqCoBjx47VybGiokJanbylD8c8TKlUIpPJuH//Pi4uLowaNYqRI0fi5eWFlZWV9LysrCxpbE+ePElSUhIjRowgNjZW6tdaly5d4tixY3Tq1ImbN2/q7R99/Wuorl278sYbb/DGG2/Uib399ttMmzZN+rl169bSY33563Pq1CkAhg0bRmlpKfv27TM4Z31elPGRy+V8/vnnOr+bOHFinYJLEJ4VUUg94tixY7i5uTFkyBAGDRrEW2+9xYQJE/iv//ovg6/KOnv2rPQ4JyeH9PR0evToIRVSDcWPHz+Oo6MjQUFBUjw1NZXCwkKcnJx0CqlLly41eLirIRYWFnTr1o2JEyfqfECp1WpcXFyIi4tDrVZLhwAAncfPysNX8d25cweANm3aSIWUUqnkhx9+AGD79u1N2ndxcTEAJSUl0ngWFxdjbm6OkZFRo/1/+/btRvtHX//u3r0bjUbDggUL2LFjB8ePH0ej0dS5r+GDBw/w8PBoUruehdpZTXNzc9auXcvKlSvJz8+nsrJS56rWM2fOSI+1Wi3Xr1/HycmJ2NhYLCwsmDlzJv3790etViOX13wEqVQqbt682Wj/GNK/hpozZw5Hjx7l999/rxNbsmQJMTEx0s+PjnFj+bekF2V8ysrKGDhwYNM6RxCeIlFI1aOkpITY2FhiY2PZvHkzx48fZ+TIkezfv7/Oc2sPyT26/cNKS0t1TvxuKC6XyzExMakTLy4urnPZcHZ2dpPbVXtVTEhICBcuXNCJ5eXlSdPjD79+fZdWP21lZWXS49ovAGPj/xyFrv2i8PHxYdWqVQ3ObDXm0eUsjIyM9Pa/vv7R178ASUlJeHl5MW7cOCZPnkxAQABBQUEEBwc3uQ3PWn5+PhUVFfj6+pKenk5MTAwymQxLS0udc2Ae7b+SkhKp7zZv3oxCoSA0NJSsrCxUKhU//PCDNL6N9Y8h/WuI9u3bM3HiRIOvxHuYvvxbkhifuur7fBaEJ00UUnpkZWWh1WqlD4mioiKdS93rO5eqU6dO0mOZTEaHDh10pp0bipeXl5OTk0OXLl2kuIWFBW3atJFOBjVE7aXUj36437lzh6KiIiorK+sc8oOaKfOKigrs7e1JSUmpk2tTFBcXSye9P2l3794lKiqKpKQkDhw4wPHjxzlw4MBj71df/9+9e7fR/tHXv7VSUlKk7WfPns2CBQt0CqlWrVoxc+ZMALZt20ZlZeVjt+1JqG1X586dmTFjBlCzHIVMJtP54ny4T4yNjbGzs+P27duYm5szZMgQxo0bJ83y9O/fv87rNNQ/hvavPrNmzeLs2bM6M8OGMDR/eLrv/4a86OMDhn0+g/7xaYnxE/64Wv5/o54zK1asoFevXshkMmQyGd7e3rRr147k5GSgZtG4gQMHolKpkMvlOpf01ho8eDCurq4ATJ06FTMzM+Lj4w2KHz58GB8fH6ytrQGYN28eWq0WjUZjcBvy8/PJy8tj+PDh0tQ81MzC7Nq1C19fXzp27AjUFE+enp44ODhQUVFBbGwsb7/9Nqampjpf6E2VkpKClZUVI0aMQKFQPJUbYqekpLB27VrWrFnT7ILvUY31v77+0de/AG5ubjqFmkql4u7duzo5tG7dmiVLlrBkyRKd8XsWTExMcHR0lPK1sbHB0dERlUoFwN69e4GaAlMul+Pr60tKSorO4djXXntNOuds8uTJKJVK4uLiKC0tpaioSIoplco6V2Q11j+G9K8+SqWS6dOns3nz5ib3jSH513pa738xPo0z5PMZ9I/Ps/j8Ev48xIzUI2xtbXUW4CwsLMTf31/6P7Do6GgmTZrE6dOnKSkpYfv27XUWbktMTCQiIgK5XI6FhQX+/v46U+uNxYODg3F2dub06dMUFhZSXV3NwoULpXN7DLV06VKWLFnCokWLkMlkODo6UlFRQWBgIDY2Nhw/fpycnBysra25ffu29IGzZs0aoqKiOHfuHNXV1Rw+fJi//OUvTe7HGzduEBAQwPr161Gr1URFRbFs2TImTJjAF198AYCpqSlBQUFs3LiRy5cv4+Xl1eTX+eqrrxgyZAhhYWFMnDjxsZcK0Nf/+vpHX/86OzvzzTffUFBQQHV1NWVlZcyfP/+xcn6SHBwciI2NlX6uvSpx1apVREREEBkZSZ8+fThy5AglJSXk5eXVKbYTExPZunUrZmZmKJVKli9fzr179wBYvnw5n332GXPmzEGpVBISEsKAAQOkbfX1j77+1cfHx4ebN2/We5K/PlVVVXrzr9XQ+/9xifFpnCGfz6B/fJ7W+Al/TkbV/z5ZxM7OTlTd/2Zubk6HDh2orKwkIyOjzpezXC6nS5cu3Lt3jwcPHujEdu7cydWrV1m3bh0ODg5kZGTorAGlL17L3t4ehULBtWvXDF71uClUKhV2dnZotVqysrJ0YsbGxjg6OpKbm/vCrr3SWP8b0j+N9a+pqSn29vZUVlZy69at5+bQXVPY2tqiVCq5du1avfmbmJjg4OBAZmZmnb8RhUKBvb09GRkZ9V72b0j/NNa/DTEzM+PEiROsWrWKH3/80cCW1qUv/+fBizw+jX0+C8LTIAqpJ6y2UFq9enWz4oIgPB1WVlb069ePhIQEsaL+c0iMj/BHJQ7tPWG5ubmNrjmlLy4IwtORl5fH0aNHWzoNoQFifIQ/KjEjJQiCIAiC0Eziqj1BEARBEIRmEoWUIAiCIAhCM4lCShAEQRAEoZnEyeaCINQhl8tp164dWq223tsEOTs7Y2lpyfnz5yksLDQ4/te//pW8vDx++umnp5p/fWxtbevcaulhaWlp9d4k2sHBgaysLEpKSnjppZfIysrSaVPXrl3Jy8sz6DYo/fv3Z+rUqUDNydUBAQENPtfT05P+/ftjbm7Otm3buHXrlt791xLj9x+141dUVISlpSXt2rWr85y8vDyDlnrRN35NGV/hz0PMSAmCIGnVqhU+Pj4kJCRw8uRJhg8fXie+e/duvv/+ewIDAzlx4gSvvPKKwfHhw4fz6quvPrP2PCwgIICjR482+K/2NlAPe+211zh06BAmJiZYWFhw9OhRBg0apPOc/fv3G3xfuDt37pCYmEhxcXG9C0XWGj16NMHBwZSXl0u3jzKEGD9dD48fwPjx4+vd9r//+78NykHf+Bk6vsKfi5iREgRB4u/vj4eHB+Hh4axYsaJO/J133uGll15i6NChaLVavvzySwIDA/Hw8KCqqkpvvCU9vLr2Bx98wNSpU3Fzc2t0m/fee4/vvvuO+/fvY2lp+dg5pKenk56eDtTMODXE3d2duLg41q9f36T9i/HT9fD41SorK6N79+7NykHf+Bk6vsKfiyikBEGQREZG8umnnyKTyer9Ih4zZgx79+5Fq9WiUCjo168fdnZ2uLq68uuvv+qNQ81hpw8//BB3d3fS09PZsGGDdFPuXr16MWXKFJycnJDL5Zw9e5YtW7boHDbz8vJi/PjxWFtbk5mZSXR0NImJiVLc3d0dHx8f1Go1Fy9eJCQkROcWTYZycXHBzc2twfvp1ceQ/Bvj7e2Nq6srAwYMoLKyknXr1gEQFhYmfUE3RozffzRn/KZNm0Z+fj4HDx4EwNLSEj8/PzZu3PjC3uVB0E8c2hMEQXL16tUGV5WWy+U4OjqSmpoKwKJFi/j555+pqqqiZ8+eeuO1Jk2ahI2NDeHh4djY2LBr1y5kMhkAQ4cOpaqqiujoaL766iv69OnDzp07pW0HDx5MYGAgCQkJhIaGcubMGXr37i3FPTw8iIyMJDU1lYiICNq2bcu+ffswMzNrcl+899577N+/n8zMTJ3f9+zZk0GDBkn/Hl5/T1/++ly+fBmNRkN2djZ3795Fo9Gg0WgMvhWNGL//aGj8jI2NGTZsmM6/Vq1aATBkyBCdQ5cKhYLp06ejVCqb/PrCi0PMSAmCYBClUolMJuP+/fu4uLgwatQoRo4ciZeXF1ZWVnrjtbKysvjoo48AOHnyJElJSYwYMYLY2Fi2bt2q85qXLl3i2LFjdOrUiZs3b9K3b18uX75MVFQUQJ2b2y5dupSwsDBCQ0MBiIuLIz4+nnHjxrF7926D29q1a1feeOMN3njjjTqxt99+m2nTpkk/t27dWnqsL399Tp06BcCwYcMoLS1l3759Buesjxi/GnK5nM8//1zndxMnTqxTcAmCoUQhJQiCQf59EwTMzc1Zu3YtK1euJD8/n8rKSqqrq/XGa505c0Z6rNVquX79Ok5OTsTGxmJhYcHMmTPp378/arUaubzmI0qlUnHz5k00Gg0LFixgx44dHD9+HI1Gw5UrVwCwsLCgW7duTJw4UecLVK1W4+Li0qQv4jlz5nD06FF+//33OrElS5YQExMj/Vx7yKs2h8byb0li/GqUlZUxcODAJvScIDROFFKCIBgkPz+fiooKfH19SU9PJyYmBplMhqWlJbm5uXrjtR69HL+kpEQ6tLJ582YUCgWhoaFkZWWhUqn44YcfMDauOQshKSkJLy8vxo0bx+TJkwkICCAoKIjg4GDpqq2QkBAuXLig8xqGnqME0L59eyZOnGjwlXgP05d/SxLj13RGRkaPvQ/hz08UUoIgGKSyspJLly7RuXNnZsyYAYCTkxMymYwLFy7ojdfq1KmT9NjY2Bg7Oztu376Nubk5Q4YMYdy4cdIsT//+/evkkZKSQkpKClBzJdeCBQsIDg7mzp07FBUVSXk016xZszh79ixnz55t0naG5g9QXFyMqalps3NsDjF++hUVFUlFIdQUZfXRN34tMb5Cy2n5/00SBOG5YWJigqOjIw4ODgDY2Njg6OiISqUCYO/evUDNYRi5XI6vry8pKSlcvHjRoDjUrO3Tp08fACZPnoxSqSQuLo7S0lKKioqkmFKprHPFlZubG126dJF+VqlU3L17F6g5dLVr1y58fX3p2LEjUHM+jKenp9QefZRKJdOnT2fz5s1N6LUahuRfKyUlBSsrK0aMGIFCoXhiN4wX49f88YOaRT0HDhyISqVCLpfrLLnwMH3j97TGV3g+iRkpQRAkDg4OxMbGSj+vXLkSgFWrVhEREUFkZCR9+vThyJEjlJSUkJeXx8yZM6Xn64sDJCYmsnXrVszMzFAqlSxfvpx79+4BsHz5cj777DPmzJmDUqkkJCSEAQMGSNs6OzvzzTffUFBQQHV1NWVlZcyfP1+KBwYGYmNjw/Hjx8nJycHa2prbt283+IX4KB8fH27evFnnJGhDVFVV6c2/1o0bNwgICGD9+vWo1WqioqJYtmxZk1/zUWL8mj9+ANHR0UyaNInTp09TUlLC9u3b611YU9/4Pa3xFZ5PRtX/PovQzs5OVM2CIBjE1tYWpVLJtWvXqKysbHLcxMQEBwcHMjMzefDggU5MoVBgb29PRkZGvZf9m5qaYm9vT2VlJbdu3ap3/yqVCjs7O7RaLVlZWQa1yczMjBMnTrBq1Sp+/PFHg7apj778nwdi/Boml8vp0qUL9+7dq9M2QaiPKKQEQRAAKysr+vXrR0JCQoNrMQnPLzF+QksRhZQgCIIgCEIziZPNBUEQBEEQmkkUUoIgCIIgCM0kCilBEARBEIRmEoWUIAiCIAhCM4l1pARBqEMul9OuXTu0Wm2dW4JAzXpAlpaWnD9/nsLCwicW/+tf/0peXh4//fTTk22QAWxtbVEoFA3G09LSqKqqqvN7BwcHsrKyKCoqwtLSknbt2tV5Tl5eHjk5OXpz6N+/P1OnTpW2CQgIaFJcEIRnT1y1JwiCpFWrVrz55pvMmTOHjh07MnfuXP7+97/rxL/++mt69epFYWEhrVu3ZubMmSQnJz+R+I4dO7h16xaffvrpM2/7jh07GDlyZIPxl19+uc66Qq+99ho7duzA3d2d+/fv89Zbb7Fq1ao623711VcGtalz58688sorvPLKK3h6euLm5takuCAIz56YkRIEQeLv74+Hhwfh4eGsWLGiTvydd97hpZdeYujQoWi1Wr788ksCAwPx8PCgqqrqseMt6eHVsz/44AOmTp2qt1B57733+O6777h//770u7KyMrp3796sHNLT00lPTwfA09OzyXFBEJ49cY6UIAiSyMhIhg0bxrfffltvfMyYMezduxetVotCoaBfv3507doVV1fXJxKHmsOKH374IXv27CEoKEi67xpAr169WLlyJd999x0//PADH3/8MVZWVjo5enl5ER4ezp49ewgLC2PQoEE6cXd3d7Zs2cIPP/zAypUradOmTbP6ysXFBTc3NyIiIgzeZtq0aYwZM0b62dLSks8//xy1Wt2sHARBaHmikBIEQXL16tUGV4WWy+U4OjqSmpoKwKJFi/j555+pqqqiZ8+ejx2vNWnSJGxsbAgPD8fGxoZdu3Yhk8kAGDp0KFVVVURHR/PVV1/Rp08fdu7cKW07ePBgAgMDSUhIIDQ0lDNnztC7d28p7uHhQWRkJKmpqURERNC2bVv27duHmZlZk/vqvffeY//+/WRmZur83tjYmGHDhun8a9WqFQBDhgzh1VdflZ6rUCiYPn06SqWyya8vCMLzQRzaEwTBIEqlEplMxv3793FxcWHUqFGMHDkSLy8vrKysHjteKysri48++giAkydPkpSUxIgRI4iNjWXr1q06OV26dIljx47RqVMnbt68Sd++fbl8+TJRUVEAdW5eu3TpUsLCwggNDQUgLi6O+Ph4xo0bx+7duw3ui65du/LGG2/wxhtv1InJ5XI+//xznd9NnDixTsElCMKfgyikBEEwyL+vS8Hc3Jy1a9eycuVK8vPzqayspLq6+rHjtc6cOSM91mq1XL9+HScnJ2JjY7GwsGDmzJn0798ftVqNXF7zEaZSqbh58yYajYYFCxawY8cOjh8/jkaj4cqVKwBYWFjQrVs3Jk6cqFMAqdVqXFxcmlRIzZkzh6NHj/L777/XiZWVlTFw4ECD9yUIwh+bKKQEQTBIfn4+FRUV+Pr6kp6eTkxMDDKZDEtLS3Jzcx87XuvR5RZKSkqkQ2ObN29GoVAQGhpKVlYWKpWKH374AWPjmrMUkpKS8PLyYty4cUyePJmAgACCgoIIDg7GwsICgJCQEC5cuKDzGnl5eQb3Q/v27Zk4cSJvvvlms/rxYUZGRo+9D0EQWpYopARBMEhlZSWXLl2ic+fOzJgxAwAnJydkMhkXLlx47HitTp06SY+NjY2xs7Pj9u3bmJubM2TIEMaNG8evv/4K1Kyr9KiUlBRSUlKAmivxFixYQHBwMHfu3KGoqEjKo7lmzZrF2bNnOXv2bJO3LSoqkopCqCnK6lNcXIypqWmD+9EXFwTh2REnmwuCIDExMcHR0REHBwcAbGxscHR0RKVSAbB3716g5jCZXC7H19eXlJQULl68+ETiULM2U58+fQCYPHkySqWSuLg4SktLKSoqkmJKpZIPP/xQJ383Nze6dOki/axSqbh79y5Qc2hy165d+Pr6SlcCyuVyPD09pfbqo1QqmT59Ops3bzbo+Y9KS0tj4MCBqFQq5HK5zpILD0tJScHKyooRI0agUCjqrPGnLy4IwrMjZqQEQZA4ODgQGxsr/bxy5UoAVq1aRUREBJGRkfTp04cjR45QUlJCXl4eM2fOlJ7/uHGAxMREtm7dipmZGUqlkuXLl3Pv3j0Ali9fzmeffcacOXNQKpWEhIQwYMAAaVtnZ2e++eYbCgoKqK6upqysjPnz50vxwMBAbGxsOH78ODk5OVhbW3P79u0GC5pH+fj4cPPmzTonsRsqOjqaSZMmcfr0aUpKSti+fTujR4+u87wbN24QEBDA+vXrUavVREVFsWzZMoPjgiA8O2Jlc0EQmszW1halUsm1a9eorKx84nETExMcHBzIzMyss5q4QqHA3t6ejIwMCgoK6mxramqKvb09lZWV3Lp1q979q1Qq7Ozs0Gq1ZGVlGdRmMzMzTpw4wapVq/jxxx8N2qY+crmcLl26cO/evTptEwThj0cUUoIgCAawsrKiX79+JCQkNLjWliAILx5RSAmCIAiCIDSTONlcEARBEAShmUQhJQiCIAiC0EyikBIEQRAEQWgmUUgJgiAIgiA0k1hHqh5yuZzevXujVqvJyMjgypUrOvcCe5G0b9+e999/nzVr1lBUVNTS6TxTnp6e9O/fH3Nzc7Zt28atW7daOqU/hRfl72v+/PnExcXpLDb6OIyMjKSFQ6urq8nOzm7R5ROedPuehf79+zN16lSg5rZAAQEBLZyR8GcgZqQe0b17d+Li4oiMjMTPz48DBw5w6NChlk6rSZRKJfv376dz586PvS9ra2t8fHx0bmvxIhg9ejTBwcGUl5eTmZlJeXl5S6f0p/BH+Pt6Un8/Pj4+dOvW7QllVbM+1rx7dJYAACAASURBVNGjRzly5AhHjhzhX//6F3FxcbzyyitP7DWa4km371m4c+cOiYmJFBcX17sQqiA0h5iResSGDRs4e/YsixcvpqKiAlNTUzw9PVs6rSYxMTGhb9++mJubt3Qqf1ju7u7ExcWxfv36lk7lT+WP8Pf1pP5+3N3dn8p6UwsXLmTfvn3Y2NjwxRdfsGPHDtzd3SktLX3ir9WYp9W+pyk9PZ309HSA5+59J/xxiULqIXK5HFdXVzZt2iR9QJSVlXH48GHpOdOmTSM/P5+DBw8CYGlpiZ+fHxs3biQnJ4cZM2ag1WpxcnJiwIABpKWlsXHjRjIzMwH0xgHGjh3LhAkTUCgUJCcnExYWRn5+vhT38vLC1taW5ORk5s6di5WVFTExMezZswd/f3/pZqYLFy7k/v37APj5+VFVVQXUfAD6+PigVqu5ePEiISEh5ObmAjU3iZ09ezavv/462dnZUjsNpa99vXr1YsqUKTg5OSGXyzl79ixbtmwhLy/PoP6tbf/48eOxtrYmMzOT6OhoEhMTpRwaa58+3t7euLq6MmDAACorK1m3bh0AYWFh0gdwQ/3/1VdfNdq+bt26MXnyZMrLy3F2dmbjxo3MnDkTCwsLPv74Y6l9j5P/s+g/hULBihUrAPjkk08M/jLV9/dla2vLwoUL+eKLL6RcASZMmECbNm04duxYo/1nbW39WP2rUqkM+vtpbPzh/2fv3sOqqhLGj3/hHEA8HA6ICiKmgZIG44P2Gmre0NC3lxpJM0x9SZ1sVGbU0VITbyOv2aQCCeMlr5EV+aagycwIySjy65igKDMJYqaBCCgIStxvvz8Y9ssROHtzU8fW53l4nsNZ+7Jue+911t57LVi2bBl2dnZA/ZQwqampBvlgZWXFW2+9xfDhw6mrqyM5OZldu3Y1O0q7MXl5eezYsYNDhw7h4uIi3WKTKz+5/cut31L6evfuzaJFi9iwYQMlJSXS8rNnz+bevXtERUUp2r4cY+fHWbNmUVxcjE6nw8fHh/z8fDZv3syNGzdktytX//bs2aM4jsIvi7i110h1dTV37txh1qxZLc7KPmbMGJ5//nnpf41Gw8yZM9FqtQCMHTuWTZs2YWdnx549e+jTpw+ffPIJJiYmisInT57Mli1b0Ov1RERE4OXlxY4dOwziMGTIEPz8/AgJCSE1NZWYmBieeeYZKisr0ev1JCcnA3Dp0iX0ej16vV56BsXLy4sDBw6Qnp7O3r176d69O1FRUVhYWAAwf/58AgICOHz4MImJidJca0opSX9tbS2RkZHs27cPDw8P9u/frzh/R48eTXBwMAkJCYSFhXHhwgWeffZZaXm59MnJyMhAr9eTn5/P7du3pfxrfJFrKf/l0ufg4MD8+fPJzMxEpVLx1Vdfcfr0aWxtbfnNb37TIfF/GPlnYWGBn58ffn5+qFQqRfEC+eMrLy8PT09PpkyZIn1namrK8uXLKS8vl82/9uavkuMHjJc/QHp6OqmpqUyePJl+/foZpNHU1JTPP/+cl156ia+++orPP/+cp59+mgEDBijOx8Ya8rHhWSm58pPbv5Lybyl9ubm5vPjii0yaNEn6zsLCguXLl0vHT3vrt9z5cdSoUaxZs4aBAwfy2WefYW9vT3h4uKJty9U/QWiJ6JF6wPLly/noo4/47rvvSE9P58SJE+zfv1/6ZapEdnY2K1euBODcuXOcO3eO0aNHk5CQIBu+YMEC9u/fz86dO4H6C/uJEydwd3fnn//8p7QPFxcXJkyY0OSXVlRUFN26dWPjxo2cPHmSK1euGISvXr2a8PBwwsLCAIiLi+PkyZP4+vry5Zdf8tZbbxESEkJkZCRQfyEODAxsRQ4aT19DuhpcuXKFU6dO0adPH7KysmS3PWTIEDIyMoiIiABoMnmsXPrknDt3DoBx48ZRUVEh/Yp+UEv5byx9AHfv3uXQoUOYmJjg5OTE0aNH6dWrFx4eHh0SfzkdkX/V1dX8+OOPAFIvjVLGjq+6ujoiIyN5/fXX2b17NwAvvPACNjY2REdH4+HhYTT/vv3223bnr9zx06Cl8gekHrZ33323SdjkyZPp378/o0aNknphvv76a+mHhhKjR4/G2tqaHj16MGPGDHbv3i29CCGXPrn9Kyn/ltJXU1PDsWPHmDx5MkeOHAFgwoQJVFVVSfWsvfVbyfkxJyeHVatWAZCVlUV0dDRWVlayPX5y9U8QWiIaUg84deoUnp6ejBkzhlGjRvHmm28yZcoU/vM//1PxW2spKSnS54KCAjIzM3nmmWekhlRL4WfOnMHFxYWQkBApPD09nZKSElxdXQ0aUleuXFHUXd2YlZUV/fv3Z+rUqQa/Gu3s7HB3dycuLg47OzsuXrwohTX+rJSx9FtZWTF37lyGDRuGnZ0danV9FdTpdIoaUnq9niVLlrB7927OnDmDXq/n6tWritLXEQ2RBi3lv7H0AZSVlQFQXl4u1aeysjIsLS0fSvw7Iv/u37+Pl5dXm/Yvd3z97//+L++88w4eHh5cvHiRadOmERMTI10EjeWfXHhH5m9bjj8ADw8PLly40ORWVmveWhw0aBB2dnYMHDiQixcvSucLJekztv+OyJ/o6GiOHDmCra0thYWF/PrXvyYmJoaqqirZ7efl5REaGtrsdvPz8/H29lZ0fmz8FmFeXh4A3bp1U3TrVK7+CUJzREOqGeXl5cTGxhIbG8v27ds5c+YMEydObPZXSXO/JB/sBq6oqDB4cLWlcLVajZmZWZPwsrIyNBqNwXf5+fmtTpeVlRUA27Zt4/vvvzcIKyoqkt7Ma7z/tnRpG0v/9u3b0Wg0hIWFkZubi06n49ChQ5iaNn+X+cH8TUpKwsfHB19fX6ZNm0ZQUBAhISGEhobKpq8jtZT/StP34IXTxMSkU+L/OOafseMrPz+fb775htdff50ffviBSZMmMWvWrCbbaC7/5MI7Mn1tOf6gvoe3vcOIfPzxx0RFRdG1a1eio6MJDAxk1apVitJnbP8dkT+XLl0iKyuLl156iaNHjzJ+/Hip/OS2X1FRwbx585rdblVVleLzY2VlpfS5oR60dH55kNL6JwiNiYaUjNzcXAoLC6WTQGlpqcFQAM0969FwGwdApVLRq1cvg4fJWwqvqqqioKCAvn37SuFWVlZ069aN7OxsxXFueFX/wZNHXl4epaWl1NTUNHvLQq1WU11djZOTE2lpaU3iqlRL6bO0tGTMmDH4+vpKPV3Dhg0zWFdJ/qalpUnxmzdvHkuWLCE0NFQ2fZ1NSfqM6Yj4P4z869KlC3PnzgVg165d1NTUtCmu0PT4Avjiiy8IDw8nIyODW7dukZSU1ObtN6Y0fS0dPx3hxo0bTJs2DRMTk3aPnVVaWsr//M//cODAAfbs2cP169dl02ds/x11/ERHR/PrX/+aiooKCgoKpPJTsn25su6I8yPUN74aXip4UGfVP+HJJR42f8C6desYNGgQKpUKlUrFrFmz6NGjB+fPnwfg+vXrjBw5Ep1Oh1qtbvYX1OjRoxk8eDAA06dPx8LCgpMnTyoKj4mJwd/fH1tbWwAWLVpEYWEher1ecRqKi4spKipi/Pjx0q0lqP91dvDgQQICAujduzdQ33jy9vbG2dmZ6upqYmNjmTNnDubm5gYXzNZoKX0VFRWUlpZKz6totVreeecdg3Xl8tfT09PgRKrT6bh9+7ai9HU2JekzpiPi/zDyr2vXrqxYsYIVK1YY1C8l5I4vgISEBO7fv8+KFSukZ/U6gtL0tXT8dISvvvqKnj17smTJEqmhNmzYsDaPWZWQkMDly5f53e9+pyh9xvbfUcdPdHQ0np6ezJkzh+joaKnB1hHb74jzI9T/mLCxsWHChAloNBrMzMyksM6qf8KTS/RIPcDBwcFggMCSkhICAwOlX/CRkZG89tprJCcnU15ezscff9xkYLfExET27t2LWq3GysqKwMBAg2cSjIWHhobi5uZGcnIyJSUl1NXVsXTpUunZD6VWr17NihUrWLZsGSqVChcXF6qrqwkODsbe3p4zZ85QUFCAra0tt27dki64mzZtIiIigkuXLlFXV0dMTAz/8R//0ap9G0vf2rVr2bhxI/Pnz0er1bJt2zaGDx8urSuXv25ubnz66af8/PPP1NXVUVlZyeLFi6VwufR1ptraWtn0yWlv/B/3/JM7vqA+Hw8dOsSiRYtafNi/rZSmr6XjR86UKVP405/+BNQPoBkSEsLWrVvJyMjAx8eH3Nxcfve737Fp0ybefvttqqqqqKioYNq0aW1O0/bt2wkPD2fbtm2y6ZPbv9z6cumD+l6v1NRUPDw8mvyQaG/96qjz408//URQUBCbN2/Gzs6OiIgI1qxZA3Ru/ROeTCZ1//q54OjoaNAq/yWztLSkV69e1NTUkJ2d3eQEqlar6du3L3fu3GkyRcP+/fu5du0aH374Ic7OzmRnZxuMASUX3sDJyQmNRsOPP/7YKaNq63Q6HB0dKSwsJDc31yDM1NQUFxcX7t69azCeihJK0qfRaHByciI7O7vZhziN5S/Un8CdnJyoqanh5s2bzd5aMpa+ziaXPiXaE//HPf/kji+ADz74gJ49e7apR1SJR1k/oP4Yaxg6IDMzs8MHtpRLn9z+Ozt/2rv9zj4/dnb9E54sokeqGWVlZdLr3c2prq7m2rVrRrdRWVlJenp6m8M7e163e/futTikQ21trfQmV1sZS19JSYnRZzDk8reystJo+YDx9HU2ufQp0Z74P+75Z+z4cnR0xM3NjalTp3ZqL+KjrB9Qf4zJlUF7yKVPbv+dnT/t3X5nnR8fVv0TniyiIdXB7t69a/QEIRf+7+5JT5/QudasWcOgQYMIDQ1tMsaVIHQ2Uf+EthC39gRBEARBENpIvLUnCIIgCILQRqIhJQiCIAiC0EaiISUIgiAIgtBGoiHVDLVazeDBg/Hy8sLV1bVVE4oKglKLFy/m2Wef/bfdfmv16tULR0fHJt9rtVpcXFxQqVSPIFaCIAjtIxpSDxgwYABxcXEcOHCAlStXcuzYMYMBBP8daLVaoqOj2zxacmd73OPXXkrT5+/vT//+/R+77XeWF154gVOnTjVpTIWFhbFx48Z2TTUjCILwqIjhDx6wZcsWUlJSWL58OdXV1Zibm+Pt7f2oo9UqZmZmDBkyxGCi5MfJ4x6/9lKavhEjRrRpIMbO3n5nOXz4MP/93//NsmXLWLZsGVAfxzFjxvBf//Vfjzh2giAIbSMaUo003NL76KOPpAtQZWUlMTEx0jIzZsyguLiYr7/+GgBra2tWrlzJ1q1bKSgoYPbs2RQWFuLq6srw4cO5fv06W7dulSYtlgsHmDx5MlOmTEGj0XD+/HnCw8MNRgf38fHBwcGB8+fPs2DBAmxsbDhx4gSHDx8mMDBQmoxz6dKl0phOK1eupLa2Vlr/1VdfxdbWlpycHCIjI0lMTFSUR4MGDcLPzw9XV1fUajUpKSns2LFDmh3eWP5UV1crip9c+o2ZNWsWxcXF6HQ6fHx8yM/PZ/Pmzdy4cUNaZsSIEfj7+2NnZ8fly5fZtm2bNIWNiYkJ8+bNw9vbm/z8fCIiInjllVf4n//5H0pLS43GT6fTKUrfsmXLsLOzA+qndElNTVWUvx2xfbn8VZJ/Go2GdevWAbBq1SrFjbW6ujrWr1/P4cOH2bt3L2lpaQQGBvLZZ58ZDN5qrHygffVXEASho4lbe41UV1dz584dZs2aRc+ePZtdZsyYMTz//PPS/xqNhpkzZ6LVagEYO3YsmzZtws7Ojj179tCnTx8++eQT6TkrufDJkyezZcsW9Ho9EREReHl5sWPHDoM4DBkyBD8/P0JCQkhNTSUmJoZnnnmGyspK9Ho9ycnJAFy6dAm9Xo9er5cmDh09ejTBwcEkJCQQFhbGhQsXWvUczdixY6mtrSUyMpJ9+/bh4eHB/v37FeWPkvgpSb8xo0aNYs2aNQwcOJDPPvsMe3t7wsPDpXAvLy8OHDhAeno6e/fupXv37kRFRWFhYQHAb3/7WxYtWsTRo0c5deoUW7duZebMmXTp0kU2fkrSB5Cenk5qaiqTJ0+WpulQkr8dsX25/JXLPwALCwv8/Pzw8/Nr9XNNKSkpHD16lFWrVjF58mSeeuopgoODFZdPe+uvIAhCRxM9Ug9Yvnw5H330Ed999x3p6emcOHGC/fv3t2q07uzsbFauXAnAuXPnOHfuHKNHjyYhIUE2fMGCBezfv5+dO3cCkJGRwYkTJ3B3d+ef//yntA8XFxcmTJhg0FMAEBUVRbdu3di4cSMnT55sMlXJkCFDyMjIICIiAqDVo/c2xKvBlStXOHXqFH369CErK8voumVlZbLxU5p+Y3Jycli1ahUAWVlZREdHY2Vlxc8//8zq1asJDw8nLCwMgLi4OE6ePImvry9ffvkl8+bNIzg4mIMHDwJgZWXF2rVrFcdPLn2A1MP57rvvNgmTy9/2bl9J/hrLP6j/wdEwvUhDL1hrfPDBB/z973/Hw8ODLVu2UFhYKIXJlU97668gCEJHEz1SDzh16hSenp789re/JSkpiTfffJOvv/6arl27Kt5GSkqK9LmgoIDMzEyeeeYZ2XATExNcXFw4f/68FJ6enk5JSQmurq4G+7hy5UqTRpQSer0eNzc3du/ejb+/PwMGDGjV+lZWVixatIhPP/2Uv/zlL+zatQuon4S0veTSP27cOC5evNjs3zfffCOtc/nyZelzXl4eAN26dcPKyor+/fszdepUjh8/zvHjxzl27Bh2dna4u7tjZ2dH9+7dDcrn0qVLiuPXER5l/jZoKf8a3L9/Hy8vL7y8vNo0YWxeXh6RkZFUVVVJDVZAtnyg/fVXEASho4keqWaUl5cTGxtLbGws27dv58yZM0ycOJHo6OgmyzY3NEJ5ebnB/xUVFQYPBrcUrlarMTMzaxJeVlaGRqMx+C4/P7/V6QJISkrCx8cHX19fpk2bRlBQECEhIYSGhipaf/v27Wg0GsLCwsjNzUWn03Ho0CFMTZtvk7dm6Ai59MfHx7c4kWjjC3plZaX0ueGWl6mpKVZWVgBs27aN77//3mD9oqIi6dmjxus33m5ryqetWpu/raE0/i3lX0cqLi6mrKzM4PkqufKB9tdfQRCEjiYaUjJyc3MpLCyUTvKlpaXS8zJAs89S9enTR/qsUqno1auXwcPkLYVXVVVRUFBA3759pXArKyu6detGdna24jg3XPxbuvilpaWRlpYGwLx581iyZImiC5GlpSVjxozB19eXixcvAjBs2DCDZZTkT0vxk0t/UVERSUlJsvFsSV5eHqWlpdTU1DR7S8zU1JSKigr69+8vXcgbP2OktHzk8r8lSvK3PdvvqPrVpUsX5s6dC8CuXbs6bNgCufJp0Nb6KwiC0BnErb0HrFu3jkGDBqFSqVCpVMyaNYsePXpIt0OuX7/OyJEj0el0qNXqZntIRo8ezeDBgwGYPn06FhYWnDx5UlF4TEwM/v7+2NraArBo0SIKCwvR6/WK01BcXExRURHjx49HrTZsK3t6ehpcSHU6Hbdv31a03YqKCkpLS/Hw8ADqxzN65513DJZRkj/G4tcR6W9JXV0dBw8eJCAggN69ewP1vTTe3t44OztTW1vLkSNHWLhwIU5OTjg4ODSJv5L4GUufMUrytz3bVxp/OV27dmXFihWsWLGi1fs3Rq58oH31VxAEoTOIhtQDHBwcOH78OBkZGWRkZLB8+XICAwOlX8CRkZFUV1eTnJxMSkqKwWvbDRITE9m7dy8pKSmsX7+etWvXGry+bSw8NDSUe/fukZycTGpqKn5+frz77ruUlZW1Kh2rV6/mjTfeICMjg59++km64Lm5uREXF8eFCxc4f/48U6dOZcWKFYq2WVtby9q1a3nvvfc4e/YsZ8+eJT4+3mAZJfljLH4dlf6WBAcHk56ezpkzZ0hKSiI9PZ01a9ZgZmYG1D8InZubS2JiIn/5y1/461//CvxfL5DS+LWUvilTpnD16lWuXr1K9+7dCQkJ4erVq8TExCjK3/Zs/2Hkb3vJlU976q8gCEJnMKn710MQjo6O0snql87S0pJevXpRU1NDdnZ2k3Fy1Go1ffv25c6dO9y/f98gbP/+/Vy7do0PP/wQZ2dnsrOzDcZAkgtv4OTkhEaj4ccff2zTA73GmJub4+TkRE1NDTdv3mz1rRmNRoOTkxPZ2dnSm1yNGcsfpToz/VDfk+Ho6EhhYSG5ublNwtVqNdXV1YwdO5bt27fj5ub20OInl78dobPzt72MlU97668gCEJHEs9INaOsrEx6vbs51dXVXLt2zeg2KisrW+yNURJ+8+ZN+Yi2UWVlpdH0ySkpKTH6DIuS/JHTmekHuHfvXrNDWgwcOJA+ffqQlJSERqNh4cKF0uCiDyt+cvnbETo7f9urpfKB9tdfQRCEjiQaUh3s7t27RseckgsXHi1zc3OWLl1K3759KS4u5uTJk7z//vuPOlqCIAjCY0rc2hMEQRAEQWgj8bC5IAiCIAhCG4mGlCAIgiAIQhuJhpQgCIIgCEIbiYfNm6FWq3n22Wexs7MjOzubq1evSlNl/NL07NmT3//+92zatInS0lLZ5a2trenRo0eT74uKiigoKMDe3l4aJb6xvLw8g1f9tVqtNDBlWlpam6fEaa/Wpr8z9ejRA7VabTBKPkCvXr24f/8+JSUljyhmT67HqfwFQXg8iR6pBwwYMIC4uDgOHDjAypUrOXbsGMePH3/U0WoVrVZLdHQ0Tz31VLu3ZWtri7+/v8G0L8a8+uqrxMfHN/n73e9+B8CaNWuaDff29pa2MXPmTJKTk9m4cSPvv/8+3333HcOHD293WtqitenvTEePHuXs2bN4eXlJ31lYWHD27FmmT5+ueDsdWT8eR4+y/guC8MsjeqQesGXLFlJSUli+fDnV1dWYm5sbXOT/HZiZmTFkyBCDiZIfpsrKSgYMGNBi+OnTp/H39282bPjw4WzcuJElS5ZIk0QPHDjwsRw08lGoqqoiICCAv//9723exqOuH53tSU+fIAiPF9GQakStVjN48GA++ugjaTTzyspKaXoNgBkzZlBcXCwN0mhtbc3KlSvZunUrBQUFzJ49m8LCQlxdXRk+fDjXr19n69at0u0YuXCAyZMnM2XKFDQaDefPnyc8PNxg9HMfHx8cHBw4f/48CxYswMbGhhMnTnD48GECAwMxNzcHYOnSpdKYVStXrqS2thaAESNG4O/vj52dHZcvX2bbtm3SFDWmpqbMmzePF198kfz8/GYHo+xMb7/9Nt9++63UiAKMDlzaWP/+/Zk2bRpVVVW4ubmxdetW5s6di5WVFe+99x4FBQWA8fxVkn5j+Qf15fPqq69ia2tLTk4OkZGRJCYmSuEajYZ169YBsGrVqiYj5xvzt7/9jfHjx+Pp6cl3333X7DItpU+n0ymqH3Jaqn/79u2TzR9R/wVBeNKIW3uNVFdXc+fOHWbNmkXPnj2bXWbMmDE8//zz0v8ajYaZM2ei1WoBGDt2LJs2bcLOzo49e/bQp08fPvnkE0xMTBSFT548mS1btqDX64mIiMDLy4sdO3YYxGHIkCH4+fkREhJCamoqMTExPPPMM1RWVqLX60lOTgbg0qVL6PV69Hq99IyXl5cXBw4cID09nb1799K9e3eioqKwsLAAYP78+QQEBHD48GESExNZv359q/PR1NSUcePGGfw1vjVia2vLqFGjDP4aeg+ef/75Nk9Q7ODgwPz588nMzESlUvHVV19x+vRpbG1t+c1vfgPI569c+uXyb/To0QQHB5OQkEBYWBgXLlzg2WefNdiGhYUFfn5++Pn5oVKpWpXG+/fv8+mnnxIQENBsuLH0KakfSrRU/5Tkzy+h/guC8MsieqQesHz5cj766CO+++470tPTOXHiBPv372/VaOTZ2dmsXLkSgHPnznHu3DlGjx5NQkKCbPiCBQvYv38/O3fuBCAjI4MTJ07g7u7OP//5T2kfLi4uTJgwgRs3bhjsOyoqim7durFx40ZOnjzZZKqR1atXEx4eTlhYGABxcXGcPHkSX19fvvzyS9566y1CQkKIjIwE6huKgYGBrcjB+p69B0cDnzp1qtTrMHDgQLZu3WoQ/vrrr5OXl4dWq+XOnTut2l9jd+/e5dChQ5iYmODk5MTRo0fp1auX9OC6XP7KpV8u/4YMGUJGRgYREREAnDp1qkkcq6urpSlOlPYCNbZ7927+3//7f7i7u3P16lWDMLn0ydUPpVqqf3L5A09+/RcE4ZdF9Eg94NSpU3h6evLb3/6WpKQk3nzzTb7++mu6du2qeBspKSnS54KCAjIzM6Vf7MbCTUxMcHFx4fz581J4eno6JSUluLq6GuzjypUrTS4icqysrOjfvz9Tp07l+PHjHD9+nGPHjmFnZ4e7uzvdunXDzs6OixcvSus0/qxUZWUlI0eONPhrfOtGr9fj6elp8PfTTz9JvQYNvRNtUVZWBkB5ebn0llVZWRmWlpay+SuXfrn8a0ibm5sbu3fvxt/fv9lnxe7fv4+XlxdeXl5tevYrPz+fQ4cOSQ/wN2hN/Wmv5uqfkvyBJ7/+C4LwyyJ6pJpRXl5ObGwssbGxbN++nTNnzjBx4kSD53YaNHfRLy8vN/i/oqLC4MHXlsLVajVmZmZNwsvKytBoNAbftWU4gIZhB7Zt28b3339vEFZUVCTdfmu8/wfj0pkqKiooLCykV69e7d7Wg7eqTExMZPNXLv1y+QeQlJSEj48Pvr6+TJs2jaCgIEJCQggNDW13mhrbuXMnp0+fxsXFRfquNfWnvZqrf0ryB0T9FwThySIaUjJyc3MpLCyUTsKlpaUGz/s09yxVnz59pM8qlYpevXoZ9Mi0FF5VVUVBQQF9+/aVwq2srOjWrRvZ2dmK49zQy2FqatjhmJeXR2lpKTU1Nc3e0lGr1VRXV+Pk5ERaWlqTuD4M3377LePGjSM4CottuAAAIABJREFUOLjDty2Xv7dv3zaafrn8a5CWliatP2/ePJYsWWLQkOrSpQtz584FYNeuXdTU1LQ6LdnZ2Rw7doyFCxcqTl/j5aBp/Wgvpfkj6r8gCE8ScWvvAevWrWPQoEGoVCpUKhWzZs2iR48e0u2G69evM3LkSHQ6HWq1mnnz5jXZxujRoxk8eDAA06dPx8LCgpMnTyoKj4mJwd/fH1tbWwAWLVpEYWFhqx7ALi4upqioiPHjx6NW/19bua6ujoMHDxIQEEDv3r2B+ouHt7c3zs7OVFdXExsby5w5czA3Nze44Hekrl274uLiYvDXkN4dO3bg5ubG4sWLMTMzw8zMjIkTJ/KrX/2qQ/ZtLH/l0i+XfwCenp4GDQGdTsft27ebpH/FihWsWLHCoHxaa/v27bz00kuK09egpfrRXkryB0T9FwThySJ6pB7g4OBgMABnSUkJgYGB0i/UyMhIXnvtNZKTkykvL+fjjz/m5ZdfNthGYmIie/fuRa1WY2VlRWBgoMHr8cbCQ0NDcXNzIzk5mZKSEurq6li6dKn07I9Sq1evZsWKFSxbtgyVSoWLiwvV1dUEBwdjb2/PmTNnKCgowNbWllu3bkkNwk2bNhEREcGlS5eoq6sjJiaG//iP/2hTXrZk2LBhxMfHG3y3ZcsWwsLC+Mc//sH8+fPZuHEjv//97zExMaG4uJg333yzQ/Ytl79y6ZfLPzc3Nz799FN+/vln6urqqKysZPHixR0S9wf98MMPfPPNN/znf/6n4vQ1aKl+tJdc/oCo/4IgPFlM6v71MImjoyNmZmaPOj6PBUtLS3r16kVNTQ3Z2dlNLjBqtZq+ffty584d7t+/bxC2f/9+rl27xocffoizszPZ2dkGY+DIhTdwcnJCo9Hw448/dspglDqdDkdHRwoLC8nNzTUIMzU1xcXFhbt370pjLz1spqam9OvXD4DMzMwOucg3Zix/laTfWP6Zm5vj5ORETU0NN2/ebNOtu/bq7Pojp6X8EfVfEIQnjeiRakZZWZn0enpzqquruXbtmtFtVFZWGh1IUi785s2b8hFth3v37rU4pENtbW2T1+ofttraWqNl0F7G8ldJ+o3lX2VlZafGXYnOrj9yjOUPiPovCMKTQzwj1cHu3r1r9AIiFy4ITzJR/wVBeNKIW3uCIAiCIAhtJHqkBEEQBEEQ2kg0pARBEARBENpINKQEQRAEQRDaSLy11wJ7e3usrKy4fv260Ylle/bsye9//3s2bdokze32uFi8eDFxcXFcvny50/bR2vQPGzaM6dOnA/XTcgQFBbW4bFviP3ToUMaPH8+WLVsUr9OZHuf6YYxaraZHjx4UFhY2O02Km5sb1tbWpKamUlJSIn3/xhtvUFRUxF//+teHGV2gfgw4Y1PhtHQsOzs7k5ubS3l5OU8//TS5ubkGaerXrx9FRUUG09y0pDX129vbm2HDhmFpacmuXbta9abiL7F8SktLsba2pkePHk2WKSoqUjRUhVz5tKb8BKGB6JFqQWRkJPHx8QwdOtTocra2tvj7+xtMG9PZtFot0dHRPPXUU0aX8/f3p3///p0al9amPy8vj8TERMrKypoMZPqgtsTf1dWVadOmtWqdzvQo6kd7dOnSBX9/fxISEjh79izjx49vEv7ll1/yxRdfEBwczLfffstzzz0nhY8fP57nn3/+YUcbgKCgIOLj41v8a5jmqbEXXniB48ePY2ZmhpWVFfHx8YwaNcpgmejoaF5//XVFcVBav19++WVCQ0OpqqqSpsdR4pdcPgCvvvpqs+s+OIF3S+TKpzXnJ0FoIHqkmvH000/Tr18/kpKS8Pb2Jjk5+VFHyYCZmRlDhgwxmAi5OSNGjOjwgSzbKzMzk8zMTKD+F7kxj2P8n3SBgYF4eXmxZ88e1q1b1yT87bff5umnn2bs2LEUFhby5z//meDgYLy8vIz23D4MjUdP/8Mf/sD06dPx9PQ0us7ChQv5/PPPuXfvHtbW1u2Og9L6PWLECOLi4ti8eXOrtv9LLp8GlZWVDBgwoE1xkCuf1pyfBKGBaEg1w9vbm0uXLnH06FHmzJnDpk2bpDBTU1PmzZvHiy++SH5+Pl9//bUU1rt3bxYtWsSGDRsMutNnz57NvXv3iIqKAupPov7+/tjZ2XH58mW2bdtmMIWMj48PDg4OnD9/ngULFmBjY8OJEyc4fPgwgYGBmJubA7B06VLpBLNy5UrpRLls2TLs7OyA+p611NRUg/T5+Pjw6quvYmtrS05ODpGRkSQmJkrhxuJnLP0dxVj8Z82aRXFxMTqdDh8fH/Lz89m8eTM3btxodlv29vYsXryYI0eOyDaI+/fvz7Rp06iqqsLNzY2tW7cyd+5crKyseO+996RbB5MnT2bKlCloNBrOnz9PeHi4NDq3kvxRUv7Gykej0UgX0VWrVnVoY/PAgQP88Y9/RKVSNXuhfuWVVzhy5AiFhYVoNBqGDh2Ko6MjgwcP5uLFi0D9bad33nmHESNGkJmZyZYtW6RJhwcNGoSfnx+urq6o1WpSUlLYsWOHwW2z9tTP1nB3d8fT05N33nlH8TpK4m/MrFmzGDx4MMOHD6empoYPP/wQgPDwcOkCbowoH+NmzJhBcXGxdNxZW1uzcuVKtm7dKkapFzqNuLXXjIkTJ5KQkMCpU6dwcXGRpioBmD9/PgEBARw+fJjExETWr18vheXm5vLiiy8yadIk6TsLCwuWL1/Ozz//DICXlxcHDhwgPT2dvXv30r17d6KiorCwsJDWGTJkCH5+foSEhJCamkpMTAzPPPMMlZWV6PV6qUFw6dIl9Ho9er2efw0HBkB6ejqpqalMnjzZIO5QP2FscHAwCQkJhIWFceHCBZ599lkpXC5+xtLfUYzFf9SoUaxZs4aBAwfy2WefYW9vT3h4eLPbcXR05H//938pLi5W1Kvo4ODA/PnzyczMRKVS8dVXX3H69GlsbW35zW9+A9Q3orZs2YJeryciIgIvLy927NghbUMuf+TyV658oL5O+fn54efnh0qlkk1Xa1y7dq3FhplarcbFxUUakXzZsmWcPn2a2tpaBg4cKC332muvYW9vz549e7C3t+fgwYNSPMeOHUttbS2RkZHs27cPDw8P9u/fL63b3vrZGgsXLiQ6OpqcnByD7wcOHMioUaOkv8bj68nFX05GRgZ6vZ78/Hxu374tHb8N5wc5onzqf6yMGzfO4K/h1vmYMWMMbl1qNBpmzpyJVqtt9f4FQSnRI/WAbt26MXToUN5//32ysrK4fv063t7e7N69G4C33nqLkJAQIiMjgfoDNTAwEICamhqOHTvG5MmTOXLkCAATJkygqqqKU6dOAfWTqYaHhxMWFgZAXFwcJ0+exNfXly+//FKKh4uLCxMmTGjS0xIVFUW3bt3YuHEjJ0+e5MqVK03SEBMTA8C7777bJGzIkCFkZGQQEREBIMWrgVz8jKW/oxiLP0BOTg6rVq0CICsri+joaKysrAwuRv369eOLL74gMjKSjz76SPG+7969y6FDhzAxMcHJyYmjR4/Sq1cvPDw8AFiwYAH79+9n586dQP2F8cSJE7i7u/PPf/5TNn/k8leufKB+iqKGKWge5u0arVaLSqXi3r17uLu789JLLzFx4kR8fHywsbGRlsvNzZXK7uzZsyQlJTFhwgRiY2OlfGtw5coVTp06RZ8+fcjKymp3/VSqX79+TJo0yeBHT4M5c+YwY8YM6f+uXbtKn+XiL+fcuXMAjBs3joqKCqmXuiP8UspHrVbz/vvvG3w3derUJg0uQXhYREPqARMmTODnn3/m0qVLAJw+fVpqSHXr1g07Ozupixww+Az1D6YeOXIEW1tbCgsL+fWvf01MTAxVVVVYWVnRv39/pk6danCCsLOzw93d3eBEc+XKlRZvV7WHXq9nyZIl7N69mzNnzqDX66V5xeTiFxcXJ5v+h6HxW3x5eXlAfQO4oSGl1Wo5dOgQAB9//HGrtl1WVgZAeXm59JZdWVkZlpaWmJiY4OLiQkhIiLR8eno6JSUluLq6cuvWLaP5o6T8jZVPg/v37+Pl5dWqdHWEhl5PS0tLPvjgA9avX09xcTE1NTUGPaIXLlyQPhcWFnLjxg1cXV2JjY3FysqKuXPnMmzYMOzs7FCr609BOp2OrKysdtXP1lyo58+fT3x8PD/88EOTsBUrVnDixAnp/wfL0Fj8H6VfSvlUVlYycuTI1mWOIHQi0ZB6gLe3NyqVis8//xyof329b9++2NjYSN3HjV83fvDV40uXLpGVlcVLL73E0aNHGT9+PLNmzQKQ3krZtm0b33//vcF6Dz5jkZ+f37EJ+5ekpCR8fHzw9fVl2rRpBAUFERISQmhoqGz8lKT/YaisrJQ+N1wgTE3/7y51w4XE39+fDRs2tNizZUzjCw+AiYkJarUaMzOzJmkuKytDo9HI5o+S8jdWPo9acXEx1dXVBAQEkJmZyYkTJ1CpVFhbWxs8A/Ng/pSXl0t5s337djQaDWFhYeTm5qLT6Th06JBUfu2pn0r17NmTqVOnKn4TrzG5+D9KonyaMjExafc2BEGOaEg1YmFhwejRo/niiy/4xz/+IX3/wQcfMH78eI4dO0Z1dTVOTk6kpaUB0KdPnybbiY6O5te//jUVFRUUFBSQlJQE1PeelJaWUlNT0+wtOaUaXpVu68k7LS1Niv+8efNYsmQJoaGhsvFTq9WK0q9EWVmZ9NB8R7t9+zYREREkJSVx7Ngxzpw5w7Fjx9q93aqqKgoKCujbt6/0nZWVFd26dSM7O5vbt28bzR+l5d9S+TTo0qULc+fOBWDXrl3U1NS0O21KNMT7qaeeYvbs2UD9cBMqlcrgwtk4zaampjg6OnLr1i0sLS0ZM2YMvr6+Ui/PsGHDmuynrfVTqbfeeouUlBRSUlJatZ7S+EPn1u+W/NLLB6C0tNRgqJGePXs2u5xc+TyK8hP+fT36n1GPkRdeeAFLS0u2b99OVFSU9Hf27Fm8vb2prq4mNjaWOXPmYG5ubnBBayw6OhpPT0/mzJlDdHS01LtRV1fHwYMHCQgIoHfv3kB948Tb2xtnZ2fF8SwuLqaoqIjx48dLXe9KeXp6GjQEdDodt2/fVhQ/pelXIi0tDRsbGyZMmIBGo+mUCbPT0tL44IMP2LRpU5sbfA+KiYnB398fW1tbABYtWkRhYSF6vV42f5SUv7HyadC1a1dWrFjBihUrWl3+cszMzHBxcZHiY29vj4uLCzqdDkB69s/Kygq1Wk1AQABpaWkGt1tfeOEF6ZmyadOmodVqiYuLo6KigtLSUilMq9U2eSOrPfVTCa1Wy8yZM9m+fXur80ZJ/Bt0Vv0W5WPc9evXGTlyJDqdDrVabTDkQmNy5fMwzk/Ck0M0pBrx9vYmLS2tyW21hIQExo4di5mZGZs2bcLR0ZFLly5x4cIF6aHfxm7cuEFqaiq/+tWvOHr0qEFYcHAw6enpnDlzhqSkJNLT01mzZk2rD9TVq1fzxhtvkJGRwU8//SRdUKdMmcLVq1e5evUq3bt3JyQkhKtXr0oPcLu5uREXF8eFCxc4f/48U6dOZcWKFYrjpyT9Svz0008EBQWxefNmLl++zNq1axXFv7X27dtHcnIy4eHhHdLoCA0N5d69eyQnJ5Oamoqfnx/vvvuu9GyVXP7I5a9c+XQ2Z2dn4uPj+dvf/gbA+vXriY+P57XXXgPqX78/ffo033zzDZcuXWLIkCEsXrzYYBuJiYns3LmTlJQUNm7cyLp167hz5w61tbWsXbuW9957j7Nnz3L27Fni4+MN1m1v/ZTj7+9PVlZWsw/xy1ES/wYt1e/2EuVjXGRkJNXV1SQnJ5OSkiK9wfggufLprPITnkwmdf/qLnF0dBStboVMTU1xcXHh7t27bR6bRKfT4ejoSGFhIbm5uR0cQ+PMzc1xcnKipqaGmzdvNntryFj8OiL9/+6cnJzQaDT8+OOPTUalVpI/xvJXSfk8ag4ODmi1Wn788cdm42dmZoazszM5OTncv3/fIEyj0eDk5ER2dnazr/23t362xMLCgm+//ZYNGzY0+YHTGnLxfxz8kstHrVbTt29f7ty50yRtgtAZRENKEIRfBBsbG4YOHUpCQoIYMf8xJMpH+HclGlKCIAiCIAhtJJ6REgRBEARBaCPRkBIEQRAEQWgj0ZASBEEQBEFoI9GQEgRBEARBaCMxsrkgCE2o1Wp69OhBYWFhs9MAubm5YW1tTWpqKiUlJYrD33jjDYqKivjrX//aqfFvjoODAxqNpsXw69evNzsJtLOzM7m5uZSXl/P000+Tm5trkKZ+/fpRVFSkaBqUYcOGMX36dKB+2pSgoKAWl/X29mbYsGFYWlqya9cubt68Kbv9BqL8/k9D+ZWWlmJtbU2PHj2aLFNUVKRoKBe58mtN+QpPDtEjJQiCpEuXLvj7+5OQkMDZs2cZP358k/Avv/ySL774guDgYL799luee+45xeHjx4/n+eeff2jpaSwoKIj4+PgW/xrmimvshRde4Pjx45iZmWFlZUV8fDyjRo0yWCY6OlrxvHB5eXkkJiZSVlbGyy+/3OJyL7/8MqGhoVRVVZGTk9NkrLKWiPIz1Lj8AF599dVm1/3d736nKA5y5ae0fIUni+iREgRBEhgYiJeXF3v27GHdunVNwt9++22efvppxo4dS2FhIX/+858JDg7Gy8uL2tpa2fBHqfF0IX/4wx+YPn06np6eRtdZuHAhn3/+Offu3cPa2rrdccjMzCQzMxOo73FqyYgRI4iLi2Pz5s2t2r4oP0ONy69BZWUlAwYMaFMc5MpPafkKTxbRkBIEQXLgwAH++Mc/olKpmr0Qv/LKKxw5coTCwkI0Gg1Dhw7F0dGRwYMHc/HiRdlwqL/t9M477zBixAgyMzPZsmUL2dnZAAwaNAg/Pz9cXV1Rq9WkpKSwY8cOg9tmPj4+vPrqq9ja2pKTk0NkZCSJiYlS+IgRI/D398fOzo7Lly+zbds27t692+q8cHd3x9PTs8X59JqjJP7GzJo1i8GDBzN8+HBqamr48MMPAQgPD5cu0MaI8vs/bSm/GTNmUFxczNdffw2AtbU1K1euZOvWrb/YWRwEeeLWniAIkmvXrrU4qrRarcbFxUWav2zZsmWcPn2a2tpaBg4cKBve4LXXXsPe3p49e/Zgb2/PwYMHUalUAIwdO5ba2loiIyPZt28fHh4e7N+/X1p39OjRBAcHk5CQQFhYGBcuXODZZ5+Vwr28vDhw4ADp6ens3buX7t27ExUVhYWFRavzYuHChURHR5OTk2Pw/cCBAxk1apT013ggY7n4y8nIyECv15Ofn8/t27fR6/Xo9XrFU9GI8vs/LZWfqakp48aNM/jr0qULAGPGjDG4danRaJg5cyZarbbV+xd+OUSPlCAIimi1WlQqFffu3cPd3Z2XXnqJiRMn4uPjg42NjWx4g9zcXN59910Azp49S1JSEhMmTCA2NpadO3ca7PPKlSucOnWKPn36kJWVxZAhQ8jIyCAiIgKgyeS2q1evJjw8nLCwMADi4uI4efIkvr6+fPnll4rT2q9fPyZNmsSkSZOahM2ZM4cZM2ZI/3ft2lX6LBd/OefOnQNg3LhxVFRUEBUVpTjOckT51VOr1bz//vsG302dOrVJg0sQlBINKUEQFPnXbFJYWlrywQcfsH79eoqLi6mpqaGurk42vMGFCxekz4WFhdy4cQNXV1diY2OxsrJi7ty5DBs2DDs7O9Tq+lOUTqcjKysLvV7PkiVL2L17N2fOnEGv13P16lUArKys6N+/P1OnTjW4gNrZ2eHu7t6qC/H8+fOJj4/nhx9+aBK2YsUKTpw4If3fcMurIQ7G4v8oifKrV1lZyciRI1uRc4JgnGhICYKgSHFxMdXV1QQEBJCZmcmJEydQqVRYW1tz9+5d2fAGD76OX15eLt1a2b59OxqNhrCwMHJzc9HpdBw6dAhT0/qnEJKSkvDx8cHX15dp06YRFBRESEgIoaGh0ltb27Zt4/vvvzfYh9JnlAB69uzJ1KlTFb+J15hc/B8lUX6tZ2Ji0u5tCE8+0ZASBEGRmpoarly5wlNPPcXs2bMBcHV1RaVS8f3338uGN+jTp4/02dTUFEdHR27duoWlpSVjxozB19dX6uUZNmxYk3ikpaWRlpYG1L/JtWTJEkJDQ8nLy6O0tFSKR1u99dZbpKSkkJKS0qr1lMYfoKysDHNz8zbHsS1E+ckrLS2VGoVQ3yhrjlz5PYryFR6dR/8zSRCEx4aZmRkuLi44OzsDYG9vj4uLCzqdDoAjR44A9bdh1Go1AQEBpKWlcfnyZUXhUD+2j4eHBwDTpk1Dq9USFxdHRUUFpaWlUphWq23yxpWnpyd9+/aV/tfpdNy+fRuov3V18OBBAgIC6N27N1D/PIy3t7eUHjlarZaZM2eyffv2VuRaPSXxb5CWloaNjQ0TJkxAo9EYPLDeHqL82l5+UD+o58iRI9HpdKjVaoMhFxqTK7/OKl/h8SR6pARBkDg7OxMbGyv9v379egA2bNjA3r17OXDgAB4eHnzzzTeUl5dTVFTE3LlzpeXlwgESExPZuXMnFhYWaLVa1q5dy507dwBYu3YtGzduZP78+Wi1WrZt28bw4cOldd3c3Pj000/5+eefqauro7KyksWLF0vhwcHB2Nvbc+bMGQoKCrC1teXWrVstXhAf5O/vT1ZWVpOHoJWora2VjX+Dn376iaCgIDZv3oydnR0RERGsWbOm1ft8kCi/tpcfQGRkJK+99hrJycmUl5fz8ccfNzuwplz5dVb5Co8nk7p/PUXo6OgoWs2CICji4OCAVqvlxx9/pKamptXhZmZmODs7k5OTw/379w3CNBoNTk5OZGdnN/vav7m5OU5OTtTU1HDz5s1mt6/T6XB0dKSwsJDc3FxFabKwsODbb79lw4YNHD16VNE6zZGL/+NAlF/L1Go1ffv25c6dO03SJgjNEQ0pQRAEwMbGhqFDh5KQkNDiWEzC40uUn/CoiIaUIAiCIAhCG4mHzQVBEARBENpINKQEQRAEQRDaSDSkBEEQBEEQ2kg0pARBEARBENpIjCMlCEITarWaHj16UFhY2GRKEKgfD8ja2prU1FRKSko6LPyNN96gqKiIv/71rx2bIAUcHBzQaDQthl+/fp3a2tom3zs7O5Obm0tpaSnW1tb06NGjyTJFRUUUFBTIxmHYsGFMnz5dWicoKKhV4YIgPHzirT1BECRdunTh9ddfZ/78+fTu3ZsFCxbwl7/8xSD8k08+YdCgQZSUlNC1a1fmzp3L+fPnOyR89+7d3Lx5kz/+8Y8PPe27d+9m4sSJLYb/6le/ajKu0AsvvMDu3bsZMWIE9+7d480332TDhg1N1t23b5+iND311FM899xzPPfcc3h7e+Pp6dmqcEEQHj7RIyUIgiQwMBAvLy/27NnDunXrmoS//fbbPP3004wdO5bCwkL+/Oc/ExwcjJeXF7W1te0Of5Qaj579hz/8genTp8s2VBYuXMjnn3/OvXv3pO8qKysZMGBAm+KQmZlJZmYmAN7e3q0OFwTh4RPPSAmCIDlw4ADjxo3js88+azb8lVde4ciRIxQWFqLRaBg6dCj9+vVj8ODBHRIO9bcV33nnHQ4fPkxISIg07xrAoEGDWL9+PZ9//jmHDh3ivffew8bGxiCOPj4+7Nmzh8OHDxMeHs6oUaMMwkeMGMGOHTs4dOgQ69evp1u3bm3KK3d3dzw9Pdm7d6/idWbMmMErr7wi/W9tbc3777+PnZ1dm+IgCMKjJxpSgiBIrl271uKo0Gq1GhcXF9LT0wFYtmwZp0+fpra2loEDB7Y7vMFrr72Gvb09e/bswd7enoMHD6JSqQAYO3YstbW1REZGsm/fPjw8PNi/f7+07ujRowkODiYhIYGwsDAuXLjAs88+K4V7eXlx4MAB0tPT2bt3L927dycqKgoLC4tW59XChQuJjo4mJyfH4HtTU1PGjRtn8NelSxcAxowZw/PPPy8tq9FomDlzJlqtttX7FwTh8SBu7QmCoIhWq0WlUnHv3j3c3d156aWXmDhxIj4+PtjY2LQ7vEFubi7vvvsuAGfPniUpKYkJEyYQGxvLzp07DeJ05coVTp06RZ8+fcjKymLIkCFkZGQQEREB0GTy2tWrVxMeHk5YWBgAcXFxnDx5El9fX7788kvFedGvXz8mTZrEpEmTmoSp1Wref/99g++mTp3apMElCMKTQTSkBEFQ5F/vpWBpackHH3zA+vXrKS4upqamhrq6unaHN7hw4YL0ubCwkBs3buDq6kpsbCxWVlbMnTuXYcOGYWdnh1pdfwrT6XRkZWWh1+tZsmQJu3fv5syZM+j1eq5evQqAlZUV/fv3Z+rUqQYNIDs7O9zd3VvVkJo/fz7x8fH88MMPTcIqKysZOXKk4m0JgvDvTTSkBEFQpLi4mOrqagICAsjMzOTEiROoVCqsra25e/duu8MbPDjcQnl5uXRrbPv27Wg0GsLCwsjNzUWn03Ho0CFMTeufUkhKSsLHxwdfX1+mTZtGUFAQISEhhIaGYmVlBcC2bdv4/vvvDfZRVFSkOB969uzJ1KlTef3119uUj42ZmJi0exuCIDxaoiElCIIiNTU1XLlyhaeeeorZs2cD4Orqikql4vvvv293eIM+ffpIn01NTXF0dOTWrVtYWloyZswYfH19uXjxIlA/rtKD0tLSSEtLA+rfxFuyZAmhoaHk5eVRWloqxaOt3nrrLVJSUkhJSWn1uqWlpVKjEOobZc0pKyvD3Ny8xe3IhQuC8PCIh80FQZCYmZnh4uKCs7MzAPb29ri4uKDT6QA4cuQIUH+bTK1WExAQQFpaGpcvX+6QcKgfm8nDwwOAadOmodVqiYuLo6KigtLSUilMq9XyzjvvGMTf09OTvn37Sv/rdDpu374N1N+aPHjwIAEBAdKbgGq1Gm9vbym9crRaLTNnzmRhy7l5AAAgAElEQVT79u2Kln/Q9evXGTlyJDqdDrVabTDkQmNpaWnY2NgwYcIENBpNkzH+5MIFQXh4RI+UIAgSZ2dnYmNjpf/Xr18PwIYNG9i7dy8HDhzAw8ODb775hvLycoqKipg7d660fHvDARITE9m5cycWFhZotVrWrl3LnTt3AFi7di0bN25k/vz5aLVatm3bxvDhw6V13dzc+PTTT/n555+pq6ujsrKSxYsXS+HBwcHY29tz5swZCgoKsLW15datWy02aB7k7+9PVlZWk4fYlYqMjOS1114jOTmZ8vJyPv74Y15++eUmy/30008EBQWxefNm7OzsiIiIYM2aNYrDBUF4eMTI5oIgtJqDgwNarZYff/yRmpqaDg83MzPD2dmZnJycJqOJazQanJycyM7O5ueff26yrrm5OU5OTtTU1HDz5s1mt6/T6XB0dKSwsJDc3FxFabawsODbb79lw4YNHD16VNE6zVGr1fTt25c7d+40SZsgCP9+RENKEARBARsbG4YOHUpCQkKLY20JgvDLIxpSgiAIgiAIbSQeNhcEQRAEQWgj0ZASBEEQBEFoI9GQEgRBEARBaCPRkBIEQRAEQWgj0ZBqQcNAhA1TT7SkZ8+eBAUF0bVr14cUM+UWL15sMPN9Z3ic09/ZvL29WbVqFUFBQTg5OT3q6Dwx1Go1gwcPxsvLC1dX1yd2GpWOPj5NTExwcXGRBlS1trbusG23xcM4/3S0YcOGsXXrVrZu3SrG5RIUEw2pFkRGRhIfH8/QoUONLmdra4u/v7/BtA+dTavVEh0dzVNPPWV0OX9/f/r379+pcXkU6X8cvPzyy4SGhlJVVUVOTg5VVVWPOkpPhAEDBhAXF8eBAwdYuXIlx44d4/jx4486WgaUHn9yOvr4NDc3Jz4+nm+++YZvvvmGf/zjH8TFxfHcc8912D5a42GcfzpaXl4eiYmJlJWVNTtQqiA0R4xs3oynn36afv36kZSUhLe3N8nJyY86SgbMzMwYMmQIlpaWRpcbMWKEGO+mk4wYMYK4uDg2b978qKPyRNmyZQspKSksX76c6upqzM3N8fb2ftTRMqD0+JPTWcfn0qVLiYqKwt7enj/96U/s3r2bESNGUFFR0eH7Mubf8fyTmZlJZmYmwGNX74THl2hINcPb25tLly5x9OhR5syZw6ZNm6QwU1NT5s2bx4svvkh+fj5ff/21FNa7d28WLVrEhg0bKCkpkb6fPXs29+7dIyoqCqg/wfj7+2NnZ8fly5fZtm0bd+/elZb38fHBwcGB8+fPs2DBAmxsbDhx4gSHDx8mMDBQmqx06dKl3Lt3D4CVK1dSW1sLwLJly7CzswPqe9ZSU1MN0ufj48Orr76Kra0tOTk5REZGkpiYKIUbi5+x9Csxe/ZsCgsLcXV1Zfjw4Vy/fp2tW7eSk5MDwKBBg/Dz88PV1RW1Wk1KSgo7duygqKgIgBkzZlBcXCzt19rampUrV7J161YKCgranT45s2bNYvDgwQwfPpyamho+/PBDAMLDw6UTcEvlt2/fPqPp69+/P9OmTaOqqgo3Nze2bt3K3LlzsbKy4r333pPS1574P4z802g0rFu3DoBVq1Ypvpg23NL76KOPpHUqKyuJiYkB6kdDX7p0KX/605+kuAJMmTKFbt26cerUKaP5Z2tr26781el0io4/Y+UP8senlZUVb731FsOHD6euro7k5GR27drV7CjuxuTl5bFjxw4OHTqEi4uLNJ+hXPnJ7V9u/ZbS11HnRzmTJ09mypQpaDQazp8/T3h4OMXFxUD98VtcXIxOp8PHx4f8/Hw2b97MjRs3ZLcrV//27NmjOI7Ck0Xc2mvGxIkTSUhI4NSpU7i4uNCvXz8pbP78+QQEBHD48GESExOlucgAcnNzefHFF5k0aZL0nYWFBcuXL5dOQl5eXhw4cID09HT27t1L9+7diYqKwsLCQlpnyJAh+Pn5ERISQmpqKjExMTzzzDNUVlai1+ulHrJLly6h1+vR6/X8a1xVANLT00lNTWXy5MkGcQcYPXo0wcHBJCQkEBYWxoULFwyeY5CLn7H0KzF27Fg2bdqEnZ0de/bsoU+fPnzyySfSczBjx46ltraWyMhI9u3bh4eHB/v375fWHzNmDM8//7z0v0ajYebMmWi12g5Jn5yMjAz0ej35+fncvn1byv/GF7mWyk8ufQ4ODsyfP5/MzExUKhVfffUVp0+fxtbWlt/85jcdEv+HkX8WFhb4+fnh5+eH6v+zd/ZhVVX54v8ABwgPyJuKIqaJkY7mg86P0BQNkBwvjaAOYeVl0om5ml31ZoqJmlcynVQg4aLl6zim6KQcLO5cJbkK3A4jCEIlCKUGEqi8qCSIvPj7g2EPR+DsfeDgS63P85znOWevvff6vq2Xs/baa5mZKZILoLGxkevXrzNnzhz69evXLv3q1at4enoyc+ZM6ZipqSnLly/nzp07svbrrn2Vlj99/gf95dPU1JQDBw4wbdo0PvvsMw4cOMBTTz3F008/rdiObWm1Y+tWNHL+k8tfif87089Y9aM+AgIC2Lx5M1qtln379uHt7c22bduk9IkTJ7J69WqGDx/Op59+ipOTE7GxsYruLRd/gl8uYkTqPhwcHBg7diwffPABJSUlXLp0CT8/P3bs2AHAG2+8QVRUFPHx8UBLQxQeHg5AU1MTx44dIyAgQNrl3tfXl4aGBmmT01WrVhEbG0tMTAwAycnJnDx5ksDAQA4dOiTJ4erqiq+vb7t/SgkJCTg4OLB+/XpOnjzJhQsX2unQ+g9+2bJl7dLGjBlDYWEh+/btA2i3+aqcfPr0V0ppaSkrVqwA4MyZM5w5cwYvLy9SU1PZvn27zrkXLlzg1KlTDBo0iJKSEtl7d1c/Oc6cOQPACy+8QH19vfQv+n46858+/QCqqqo4fPgwJiYmuLi4kJiYyIABA3B3dzeK/HIYw36NjY1cvHgRQBqlUcry5cv56KOP+Pvf/05BQQHHjx9nz5493Lx5k3v37hEfH8/LL78slccJEyZgZ2eHRqPB3d1dr/2++uqrbttXSfmDzv0P+stnQEAAw4YNY+LEidIozOeff27QhHsvLy969+5N3759efXVV9mxYwdXrlxRpJ9c/kr835l+xqwfO2PBggXs2bNHKmeFhYUcP36cUaNG8c033wBQVlbGypUrASgpKUGj0WBtbS074icXf4JfLqIjdR++vr789NNP5ObmAnD69GmpI+Xg4ICjoyPnzp2Tzm/7HUCj0XD06FHs7e2prq5m+vTpJCUl0dDQgLW1NcOGDWPWrFk6/8ocHR0ZNWqUTkVx4cIFRcPNhqLValmyZAk7duwgLS0NrVZLUVERgKx8ycnJsvorIScnR/peWVlJcXExzzzzDKmpqVhbWzNv3jw8PDxwdHREpWoJUVtbW0Udqe7oZ4yOSCud+U+ffgB1dXUA3Llzh9raWumYlZXVA5HfGPa7desW3t7eXcr/1KlTeHp6MmnSJCZOnMjvf/97Zs6cyW9+8xtqa2v561//yjvvvIO7uzvnzp0jKCiIpKQkqRHUZz+5dGPat6vl193dnezs7HaPstqOeMkxYsQIHB0dGT58OOfOnSMqKgpQ5j99+RvDPt2pH69evUp0dHSH962oqMDPzw9XV1dJX2gZHbt9+zZubm5SR6r1ESe0jDJByx9oJY9O5eJP8MtEdKTuw8/PDzMzMw4cOAC0DI0PHjwYOzs76c20tsO49w/p5ubmUlJSwrRp00hMTMTHx4c5c+YALRUZwNatW/n22291rmudA9RKRUWFcRX7B5mZmfj7+xMYGEhQUBARERFERUURHR0tK58S/ZVw/zX19fVSQxcXF4darSYmJoby8nJsbW05fPhwp8tQ3P9PvTv6GZPO/KdUv/sbThMTkx6R/1G03507dzhx4gQnTpwgLi6OtLQ0XnzxRTQaDRUVFXz55Ze8/PLLfPfdd0ydOlUqX23pyH5y6cbUr6vlV61WSx28rvLJJ5+QkJBAr1690Gg0hIeHs3LlSkX66cvfGPbpTv1YX19PaGhoh/dtaGhApVJhbm7ern6pq6tDrVZLv+/evSt9b40DuWVuWlEaf4JfFqIj1QZLS0u8vLw4ePAgX3/9tXR848aN+Pj4cOzYMRobG3FxcSE/Px9AeiTTFo1Gw/Tp06mvr6eyspLMzEyg5d9PbW0tTU1NnT4SUELrq/ZKC//95OfnS/KHhoayZMkSoqOjZeVTqVSK9Jej7TVmZmYMGDCAsrIyrKysmDRpEoGBgdJIl4eHh861tbW1OkstdDSXpqv69TRK9NOHMeR/EPZ74oknmDdvHgAff/wxTU1NXZIVWubVVFdXS40swMGDB4mNjaWwsJAff/xRKl/dRal+3S1/+rh8+TJBQUGYmJgYNArVEbW1tbz//vvs3buXnTt3cunSJVn99OVvrPLTnfpRzteVlZUMHjxY+m1tbY2DgwOlpaUGyVhXVye9VHA/PRV/gscXMdm8DRMmTMDKyoq4uDgSEhKkT0ZGBn5+fjQ2NnLixAnmzp2LhYWFToPRFo1Gg6enJ3PnzkWj0UgV0r1799i/fz8LFy5k4MCBQEvnxM/Pj6FDhyqWs6amhhs3buDj4yM9GlKKp6enTkVja2vLtWvXFMmnVH85vLy8GD16NACzZ8/G0tKSkydPUl9fT21trTRfxcbGhnfeeUfn2kuXLvH8889ja2uLSqVq9w+1O/r1NEr004cx5H8Q9uvVqxdhYWGEhYUZHJ/vvfceI0aMwMzMDDMzM+bMmUPfvn05e/asdE5qaiq3bt0iLCxMmqtnDJTq153yJ8dnn31Gv379WLJkidRR8/Dw6PKaVampqZw/f5633npLkX768jdW+enJ+jEpKYmQkBDs7e0BWLRoEdXV1Wi1WsXyQcufCTs7O3x9fVGr1Zibm0tpPRV/gscX0ZFqg5+fH/n5+e2G5VNTU5k8eTLm5uZs2LABZ2dncnNzyc7OlibVtuXy5cvk5eXx7LPPkpiYqJMWGRlJQUEBaWlpZGZmUlBQwOrVq3UKqhJWrVrFK6+8QmFhIT/88INUoc+cOZOioiKKioro06cPUVFRFBUVSRNAR44cSXJyMtnZ2Zw9e5ZZs2YRFhamWD4l+suRnp7Orl27yMnJYe3ataxZs4aqqiqam5tZs2YN7777LhkZGWRkZJCSkqJzbXx8PI2NjWRlZZGTk0NBQYFOenf160mU6CdHd+V/1O3Xv39/vvjiCwoLCyksLGT58uWEh4dLI2TQYsfDhw9jaWnZ6WT/rqJUv87Knxxy5bO8vJy33nqLV155hW+//Za8vDzi4uK6NfoVFxdHYGAgQ4YMkdVPLn+56+X0g56tH6Ojo7l58yZZWVnk5eURHBzMsmXLpLlxSvnhhx+IiIhg06ZNnD9/njVr1khpPRl/gscTk3v/+Dvg7Oz8QBqTnwOmpqa4urpSVVWls56IIdja2uLs7Ex1dTXl5eVGllA/FhYWuLi40NTUxJUrVzp89KJPvu7ov2fPHr7//ns+/PBDhg4dSmlpqbTGSytqtRoXFxdKS0s7nMSpUqkYPHgw169fl17rNqZ+PY2cfkrojvyPuv2srKwYMGAATU1NlJaWdrgO1caNG+nXr1+XRkSV8DDjA1rKWOvSAcXFxUZf2FJOP7n8e9o+3b2/i4sLarWaixcv9siuAz0df4LHC9GREjxQWjtS77///sMWRfAY4uzszMiRI4mLiyM0NLTd8gwCQU8i4k/QEWKyueCBUlVVJa0GLRAYyurVqxkxYgTR0dGiERM8cET8CTpCjEgJBAKBQCAQdBEx2VwgEAgEAoGgi4iOlEAgEAgEAkEXER0pgUAgEAgEgi4iOlKd4OTkhKurq+z6Lf369SMiIoJevXo9IMmUs3jxYn71q1/1aB6Psv4/d3ravw8ifgxhwIABODs7tztuY2ODq6srZmZmD0EqgUDwS0d0pDohPj6elJQUxo4dq/c8e3t7QkJCdLbd6GlsbGzQaDSyqx2HhIQwbNiwHpXlUdb/caWn/fsoxY8hTJgwgVOnTrXrTMXExLB+/fpubUUjEAgEXUUsf9ABTz31FEOGDCEzMxM/Pz+ysrIetkg6mJubM2bMGGmj384YP3680RfyexRQqv/jSk/793GNnyNHjvCv//qvLF26lKVLlwItMk6aNIl/+Zd/ecjSCQSCXyqiI9UBfn5+5ObmkpiYyNy5c9mwYYOUZmpqSmhoKFOmTKGiooLPP/9cShs4cCCLFi1i3bp13L59Wzr++uuvc/PmTWk7gfHjxxMSEoKjoyPnz59n69atVFVVSef7+/vTv39/zp49y4IFC7Czs+P48eMcOXKE8PBwaTPNt99+W1qTacWKFTQ3NwOwdOlSHB0dgZaRtby8PB39/P39mTFjBvb29pSVlREfH096erqUrk8+fforYcSIEQQHB+Pm5oZKpSInJ4dt27ZJu8e/+uqr1NTUSPft3bs3K1asYMuWLTQ2NirSPyAggJkzZ6JWqzl79iyxsbHtVk/vjDlz5lBTU4OtrS3+/v5UVFSwadMmLl++rMg+JiYmhIaG4ufnR0VFBfv27eO3v/0t77//PrW1tXrls7W17bZ/9dnXGPeXs68S+6nVat577z0AVq5cqbizdu/ePdauXcuRI0fYtWsX+fn5hIeH8+mnn+psdaOkfOmLf4FAIDAE8WivA1588UVSU1M5deoUrq6u0lYJAPPnz2fhwoUcOXKE9PR01q5dK6WVl5czZcoUpk6dKh2ztLRk+fLl0lYg3t7e7N27l4KCAnbt2kWfPn1ISEjA0tJSumbMmDEEBwcTFRVFXl4eSUlJPPPMM9y9exetViuNkOXm5qLVatFqtTo7tRcUFJCXl0dAQICO7NCyYXBkZCSpqanExMSQnZ2tMw9GTj59+ith8uTJNDc3Ex8fz+7du3F3d2fPnj1S+qRJk3juueek32q1mtdeew0bGxtF+gcEBLB582a0Wi379u3D29ubbdu2KZZv4sSJrF69muHDh/Ppp5/i5OREbGysYvv827/9G4sWLSIxMZFTp06xZcsWXnvtNenRpz75jOFfffY1xv3l7CtnP2gpE8HBwQQHBxs8ryknJ4fExERWrlxJQEAATz75JJGRkYr9Ixf/AoFAYChiROo+HBwcGDt2LB988AElJSVcunQJPz8/duzYAcAbb7xBVFSUtOu3Wq0mPDwcgKamJo4dO0ZAQABHjx4FwNfXl4aGBmkV3FWrVhEbG0tMTAwAycnJnDx5ksDAQA4dOiTJ4erqiq+vr84/eYCEhAQcHBxYv349J0+e5MKFC+10aN0gdNmyZe3SxowZQ2FhIfv27QNotzqvnHz69FfC9u3bdX5fuHCBU6dOMWjQIEpKSvReW1dXJ6v/ggUL2LNnj5RPYWEhx48fZ9SoUXzzzTeKZCwrK2PlypUAlJSUoNFosLa25qeffpK1T2hoKJGRkezfvx8Aa2trnQ1P5eTrrn/l7Nvd+yuxrz77ATQ2NkqbXbeOghnCxo0b+d///V/c3d3ZvHkz1dXVUpqcf+TiXyAQCAxFdKTuw9fXl59++onc3FwATp8+LXWkHBwccHR05Ny5c9L5bb8DaDQajh49ir29PdXV1UyfPp2kpCQaGhqwtrZm2LBhzJo1S2fUytHRkVGjRul0pC5cuNCuE2UMtFotS5YsYceOHaSlpaHVaikqKgKQlS85OVlWfzmsra2ZN28eHh4eODo6olK1hKCtra1sR0oOExMTXF1diYqKko4VFBRw+/Zt3Nzc6NOnD9HR0R1eW1FRwZQpUwA4f/68dPzq1atASwcb0GufL7/8kj59+pCTkyOltcaREvmUdvT08TDt2yp/Z/Zr7UjdunULb2/vLstx9epV4uPjmTFjhtRhBfn4PXTokN74FwgEgq4gOlL34efnh5mZGQcOHABaXu8fPHgwdnZ20uOZO3fuSOe3/Q4tDWdJSQnTpk0jMTERHx8f5syZA7RU9ABbt27l22+/1bmudY5QKxUVFcZV7B9kZmbi7+9PYGAgQUFBREREEBUVRXR0tKx8SvSXIy4uDrVaTUxMDOXl5dja2nL48OFOl5kwMTFRfG+VSoW5uXk7merq6lCr1aSkpBAaGtrhtW13iL979670vfWRl6mpqax9Wucetb2+7X3l5DMGhtrXEJTK35n9jElNTQ11dXU686uUlC998S8QCARdQXSk2mBpaYmXlxcHDx7k66+/lo5v3LgRHx8fjh07RmNjIy4uLuTn5wMwaNCgdvfRaDRMnz6d+vp6KisryczMBFr+SdfW1tLU1NThIxWltDbOXW2c8vPzJflDQ0NZsmQJ0dHRsvKpVCpF+neGlZUVkyZNIjAwUBrJ8vDw0DmntrZWZymFfv36tbtPZ/o3NDRQWVnJ4MGDpWPW1tY4ODhQWlrKjRs3JF90BTn7mJqaUl9fz7Bhw6SGvO0cIzn55PSTQ4l9u3N/pfLL8cQTTzBv3jwAPv74Y6MtW6C0fHUW/wKBQNAVxGTzNkyYMAErKyvi4uJISEiQPhkZGfj5+dHY2MiJEyeYO3cuFhYWOg1CWzQaDZ6ensydOxeNRiP9K7937x779+9n4cKFDBw4EGjpnPj5+TF06FDFctbU1HDjxg18fHykRzdK8fT01GkIbW1tuXbtmiL5lOrfGfX19dTW1uLu7g60rGf0zjvv6Jxz6dIlnn/+eWxtbVGpVB2OIOnTPykpiZCQEOzt7QFYtGgR1dXVaLVaxXJ2hpx9mpubOXr0KG+++SYuLi7079+/nfxK5Ouqf5XYtzv3Vyq/HL169SIsLIywsDCD89eHkvKlL/4FAoGgK4iOVBv8/PzIz89v91gtNTWVyZMnY25uzoYNG3B2diY3N5fs7Gxp0mxbLl++TF5eHs8++yyJiYk6aZGRkRQUFJCWlkZmZiYFBQWsXr0ac3Nzg2RdtWoVr7zyCoWFhfzwww9SgzRz5kyKioooKiqiT58+REVFUVRUJE0gHjlyJMnJyWRnZ3P27FlmzZpFWFiYYvmU6N8Zzc3NrFmzhnfffZeMjAwyMjJISUnROSc+Pp7GxkaysrLIycnRea1dif7R0dHcvHmTrKws8vLyCA4OZtmyZdTV1Sk3rh7k7LNx40bKy8tJT0/nv//7v/nb3/4G/HMUSKl8XfGvEvt25/4Pwr7dRc4/cvEvEAgEhmJy7x/DJc7OzgY35r9UTE1NcXV1paqqisrKyi7dw9bWFmdnZ6qrqykvLzeyhPqxsLDAxcWFpqYmrly50uGjFX3ydVd/tVqNi4sLpaWl0gTktqhUKgYPHsz169e5deuWwfcHcHFxQa1Wc/HiRZ15SsZCzn+tj0EnT55MXFwcI0eOfGDyydnXGPS0fbuLPv8oiX+BQCBQiuhICQRGZPjw4QwaNIjMzEzUajWRkZFcunSJFStWPGzRBAKBQNADiMnmAoERsbCw4O2332bw4MHU1NRw8uRJPvjgg4ctlkAgEAh6CDEiJRAIBAKBQNBFxGRzgUAgEAgEgi4iOlICgUAgEAgEXUR0pAQCgUAgEAi6iOhIdYKTkxOurq6yqz/369ePiIgIevXq9YAkU87ixYt7fGd7Q/Xv3bs3rq6u7T6Ojo7AP+1+/6d1+49WbGxs8PLywsvLiz59+hhdL6U8Sv7v27cvAwYMaHd8wIABRtuCRqDLo+R/gUDwcBAdqU6Ij48nJSWFsWPH6j3P3t6ekJAQnW1NehobGxs0Gg1PPvmk3vNCQkIYNmxYj8piqP4zZswgJSWl3eett94CYPXq1R2m+/n5Sfd47bXXyMrKYv369XzwwQf8/e9/Z9y4cT2inxwPw/+dkZiYSEZGhs6GwJaWlmRkZDB79mzF91EaX48rxtTvUfK/QCB4OIjlDzrgqaeeYsiQIWRmZuLn50dWVtbDFkkHc3NzxowZg5WVld7zxo8fr7Op66PC3bt3efrppztNP336NCEhIR2mjRs3jvXr17NkyRI0Gg3QsnbTo7go5MOgoaGBhQsX8r//+79dvofS+Hpc+bnrJxAIHiyiI9UBfn5+5ObmkpiYyNy5c9mwYYOUZmpqSmhoKFOmTKGiooLPP/9cShs4cCCLFi1i3bp13L59Wzr++uuvc/PmTRISEoCWDk5ISAiOjo6cP3+erVu3UlVVJZ3v7+9P//79OXv2LAsWLMDOzo7jx49z5MgRwsPDsbCwAODtt9/m5s2bAKxYsYLm5mYAli5dKj0qi4+PJy8vT0c/f39/ZsyYgb29PWVlZcTHx5Oeni6l65NPn/4Pgj/+8Y989dVXUicK6HQbmfsZNmwYQUFBNDQ0MHLkSLZs2cK8efOwtrbm3XfflVZpDwgIYObMmajVas6ePUtsbCw1NTWAMv2V+Fef/dVqNe+99x4AK1euNKgz/D//8z/4+Pjg6enJ3//+9w7P6Uw/W1tbRfElR2fxu3v3bln7vP7661RXV+Pm5sa4ceO4dOkSW7ZsoaysTFZ+ufyVlp9HOf4FAsGjh3i01wEvvvgiqampnDp1CldXV4YMGSKlzZ8/n4ULF3LkyBHS09NZu3atlFZeXs6UKVOYOnWqdMzS0pLly5dLW3V4e3uzd+9eCgoK2LVrF3369CEhIQFLS0vpmjFjxhAcHExUVBR5eXkkJSXxzDPPcPfuXbRarTRClpubi1arRavVShsjQ0vHIi8vj4CAAB3ZAby8vIiMjCQ1NZWYmBiys7N15lHJyadPf6WYmprywgsv6HzaPhqxt7dn4sSJOp/W0YPnnnuuyxsQ9+/fn/nz51NcXIyZmRmfffYZp0+fxt7enj/84Q9ASyO9efNmtFot+/btw9vbm23btkn3kNNfzn5y9oeWmAkODiY4OBgzMzODdLx16xZ/+ctfWLhwYYfp+vRTGl9ydBa/SuwzefJkNmzYgKOjIzt37mTQoEH8+c9/xsTERFZ+ufyV6Pcg4l8gEPy8ECNS94S2FVMAACAASURBVOHg4MDYsWP54IMPKCkp4dKlS/j5+bFjxw4A3njjDaKiooiPjwdaRg/Cw8MBaGpq4tixYwQEBHD06FEAfH19aWho4NSpU0DLZrGxsbHExMQAkJyczMmTJwkMDOTQoUOSHK6urvj6+nL58mUd+RISEnBwcGD9+vWcPHmSCxcutNOhdYPZZcuWtUsbM2YMhYWF7Nu3D0CSqxU5+fTprxSVStVute9Zs2ZJow7Dhw9ny5YtOukvv/wyV69excbGhuvXrxuUX1uqqqo4fPgwJiYmuLi4kJiYyIABA3B3dwdgwYIF7Nmzh+3btwNQWFjI8ePHGTVqFN98842s/nL2k7M/QGNjo7QZtNJRoLbs2LGD//u//2PUqFEUFRXppMnppyS+lNBZ/CqJ/9LSUmlLnTNnznDmzBm8vLxITU2VlV8ufzn9HkT8CwSCnxeiI3Ufvr6+/PTTT+Tm5gIt83VaO1IODg44Ojpy7tw56fy23wE0Gg1Hjx7F3t6e6upqpk+fTlJSEg0NDVhbWzNs2DBmzZqlM2rl6OjIqFGjdDpSFy5caNcIGAOtVsuSJUvYsWMHaWlpaLVaqbGVky85OVlWfyXcvXuX559/Xq+MHc2Rah0VaB2d6Ap1dXUA3Llzh9raWumYlZUVJiYmuLq6EhUVJZ1fUFDA7du3cXNz48cff9SrvxL/6rN/K7du3dKZMG4oFRUVHD58mLfeeovFixdLx+X0a9sR6S4dxa/S+M/JyZHSKisrKS4u5plnniEtLU2x/F0pPw8q/gUCwc8L0ZG6Dz8/P8zMzDhw4ADQ8nrz4MGDsbOzkx4/3blzRzq/7XdoeVxQUlLCtGnTSExMxMfHhzlz5gBIr/Bv3bqVb7/9Vue6Gzdu6PyuqKgwrmL/IDMzE39/fwIDAwkKCiIiIoKoqCiio6Nl5VOif09SX19PdXV1h6/4G8r9j6pMTExQqVSYm5u306murg61Wi2rvxL/6rO/Mdm+fTunT5/G1dVVOiannzHpKH6Vxv/98tXX12NlZWWQ/F0pP496/AsEgkcT0ZFqg6WlJV5eXhw8eJCvv/5aOr5x40Z8fHw4duwYjY2NuLi4kJ+fD8CgQYPa3Uej0TB9+nTq6+uprKwkMzMTgKtXr1JbW0tTU1OXH5kA0htqcmtcdUZ+fr4kf2hoKEuWLCE6OlpWPpVKpUj/nuSrr77ihRdeIDIy0uj3bmhooLKyksGDB0vHrK2tcXBwoLS0lGvXrunVX6l/O7N/K0888QTz5s0D4OOPP6apqclgXUpLSzl27BhvvvmmYv3angddj6/OUGqftjY1MzNjwIABlJWVKZZfjs70exziXyAQPHqIyeZtmDBhAlZWVsTFxZGQkCB9MjIy8PPzo7GxkRMnTjB37lwsLCx0Gry2aDQaPD09mTt3LhqNRhr9uHfvHvv372fhwoUMHDgQaKmc/fz8GDp0qGI5a2pquHHjBj4+PqhUhvWFPT09dRoiW1tbrl27pkg+pfp3l169erVbkNPe3h6Abdu2MXLkSBYvXoy5uTnm5ua8+OKLPPvss0bJOykpiZCQECm/RYsWUV1djVarldVfiX/12b+t/mFhYYSFhRns37bExcUxbdo0xfq10p340ofS+Pfy8mL06NEAzJ49G0tLS06ePKlYfjk60+9RiX+BQPB4IUak2uDn50d+fn67xwKpqaksXboUc3NzNmzYwL59+8jNzeXevXskJSXx//7f/9M5//Lly+Tl5eHu7s4777yjkxYZGYmTkxNpaWlUVlZib2/Pjz/+SGhoqEGyrlq1irCwMJYuXYqZmRmurq40NjYyc+ZM/vSnPwFgYWFBVFQUW7ZsobCwEH9/f0aOHMlf/vIXfvrpJ+7du8fdu3d15tHIyadE/+7i4eFBSkqKzrHNmzcTExPD119/zfz581m/fj3//u//jomJCTU1Nfz+9783St7R0dGMHDmSrKwsbt++zb1793j77beluVVy+svZT87+xuS7777jyy+/5De/+Y1i/VrpLL66i5L4T09PZ9euXahUKqytrQkPD5eWH1Aqvxyd6fcoxL9AIHi8MLn3j+ESZ2dnzM3NH7Y8jwWmpqa4urpSVVUlrT1kKLa2tjg7O1NdXU15ebmRJdSPhYUFLi4uNDU1ceXKlQ4fHemTzxj6dxdTU1NpaYfi4mKjLzzq4uKCWq3m4sWL7Rb7VKK/PvspsX9Po0+/B0Fn9tmzZw/ff/89H374IUOHDqW0tFRnjahWelr+Rz3+BQLBo4PoSAkEgkeG1o7U+++//7BFEQgEAkWIOVICgeCRoaqqSlptXCAQCB4HxIiUQCAQCAQCQRcRI1ICgUAgEAgEXUR0pAQCgUAgEAi6iOhICQQCgUAgEHQRsY7UfTg6OtKrVy9KSkpkz128eDHJycmcP39e8f3Hjh2Lj48Pmzdv7o6YAoX069ePf//3f2fDhg3S3nqPCl2JH0MxVH8PDw9mz54NtGyLEhER0em5P4f4f5TjQx8qlYq+fftSXV3d4TY1I0eOpHfv3uTl5XH79m3p+CuvvMKNGzf429/+9iDFBaB///56tyK6dOlSh5t0Dx06lPLycu7cucNTTz1FeXm5jk5Dhgzhxo0b7bbZ6ghD4tvPzw8PDw+srKz4+OOPuXLliuz9W/kl+qe2tpbevXvTt2/fdufcuHFD0VIhcv4xxH8PEjEidR+hoaHs27dP0bkhISEMGzbMoPu7ubkRFBTUFdEeGDY2Nmg0Gp588smHLUq3sbe3JyQkRNon7UGg1H5diR9DMVT/q1evkp6eTl1dHS+99JLec38O8f8w4qM7PPHEE4SEhJCamkpGRgY+Pj7t0g8dOsTBgweJjIzkq6++4te//rWU7uPjw3PPPfegxQYgIiKClJSUTj+tex22ZcKECXzxxReYm5tjbW1NSkoKEydO1DlHo9Hw8ssvK5JBaXy/9NJLREdH09DQIG1PpIRfsn8AZsyY0eG1b731liIZ5PxjSP30IBEjUt1g/PjxRl8I8lHA3NycMWPGYGVl9bBFeSxRar9HMX6Ki4spLi4GWv6R6+NRlP/nTnh4ON7e3uzcuZP33nuvXfof//hHnnrqKSZPnkx1dTX/9V//RWRkJN7e3h2OJjxI2q5e/x//8R/Mnj0bT09Pvde8+eabHDhwgJs3b9K7d+9uy6A0vsePH09ycjKbNm0y6P6/ZP+0cvfuXZ5++ukuySDnH0PqpweJ6Eh1gaVLl+Lo6AhAfHw8eXl5UtqcOXOoqanB1tYWf39/Kioq2LRpE5cvX+7wXk5OTixevJijR4+SlZUlm/frr79OdXU1bm5ujBs3jkuXLrFlyxbKysoAGDFiBMHBwbi5uaFSqcjJyWHbtm06w97+/v7079+fs2fPsmDBAuzs7Dh+/DhHjhwhPDwcCwsLAN5++22pgKxYsYLm5mZF+o0fP56QkBAcHR05f/48W7dulbb40Jf/7t27ZfWX08/U1JTQ0FCmTJlCRUUFn3/+uXTtwIEDWbRoEevWrdMZTn/99de5efMmCQkJ3ZJfif1Af/y03n/GjBnY29tTVlZGfHw86enpiuyrT39j8bDif9iwYQQFBdHQ0MDIkSPZsmUL8+bNw9ramnfffVd6dBAQEMDMmTNRq9WcPXuW2NhYaXV0JfZR4n99/lGr1VIjunLlSqN2Nvfu3ct//ud/YmZm1mFD/dvf/pajR49SXV2NWq1m7NixODs7M3r0aM6dOwe0PHZ65513GD9+PMXFxWzevFna9Flp/dHV+DSEUaNG4enp2W6bLX0okV8fc+bMYfTo0YwbN46mpiY+/PBDAGJjY6UGXB/CP/p59dVXqampkcpd7969WbFiBVu2bHmsdwkQj/a6QEFBAXl5eQQEBEjblLQyceJEVq9ezfDhw/n0009xcnIiNja2w/s4Ozvz17/+lZqaGkWdKIDJkyezYcMGHB0d2blzJ4MGDeLPf/4zJiYmUnpzczPx8fHs3r0bd3d39uzZo3OPMWPGEBwcTFRUFHl5eSQlJfHMM89w9+5dtFqtJEtubi5arRatVittvCynn7e3N3v37qWgoIBdu3bRp08fEhISsLS0lM1fqf769Js/fz4LFy7kyJEjpKens3btWimtvLycKVOmMHXqVOmYpaUly5cv56effuq2/ErsB/rjx8vLi8jISFJTU4mJiSE7O5tf/epXiu2rT39j8bDiv3///syfP5/i4mLMzMz47LPPOH36NPb29vzhD38AWjpRmzdvRqvVsm/fPry9vdm2bZt0Dzn7yNlXzj/QElPBwcEEBwdjZmYmq5chfP/99512zFQqFa6urhQUFAAtHd7Tp0/T3NzM8OHDpfN+97vf4eTkxM6dO3FycmL//v2SnHLlq7vxaQhvvvkmGo1G+pPYyvDhw5k4caL0abv+oZL6Tx+FhYVotVoqKiq4du2aVH5b6wc5hH9a/qy88MILOp/WR+eTJk3SeXSpVqt57bXXsLGxMTj/RwkxItUFkpKSAFi2bFmH6WVlZaxcuRKAkpISNBoN1tbWOoVxyJAhHDx4kPj4eD766COD8i8tLWXFihUAnDlzhjNnzuDl5UVqairbt2/XOffChQucOnWKQYMG6Uygd3V1xdfXt91IQUJCAg4ODqxfv56TJ09y4cIFg/RbtWoVsbGxxMTEAJCcnMzJkycJDAzk0KFDsvnLIaffG2+8QVRUFPHx8UBLQQ0PDwegqamJY8eOERAQwNGjRwHw9fWloaGBU6dOAXRbfiX20xc/Y8aMobCwUJqn1ypXK3Ly6dPfWDzM+K+qquLw4cOYmJjg4uJCYmIiAwYMwN3dHYAFCxawZ88eKU4KCws5fvw4o0aN4ptvvpG1j5x95fwD0NjYyMWLFwEe6OMaGxsbzMzMuHnzJqNGjWLatGm8+OKL+Pv7Y2dnJ51XXl4u+S4jI4PMzEx8fX05ceKEbPnqbnwqZciQIUydOlXnT08rc+fO5dVXX5V+9+rVS/qutP7rjDNnzgDwwgsvUF9fL41SG4Nfin9UKhUffPCBzrFZs2a163D9nBAdqR6g7VtMV69eBcDBwUFqSGxsbDh8+DAAn3zyicH3z8nJkb5XVlZSXFzMM888Q2pqKtbW1sybNw8PDw8cHR1RqVpcbGtrq1ORXLhwweBOTCud6Qctj19mzZqlU8AcHR0ZNWqUTkHtav769Lt9+zaOjo7SEDmg8x1aJqYePXoUe3t7qqurmT59OklJSTQ0NGBtbd3j8suh1WpZsmQJO3bsIC0tDa1WS1FRkaS7PvmSk5Nl9X8Q9GT819XVAXDnzh3pLbu6ujqsrKwwMTHB1dWVqKgo6fyCggJu376Nm5sbP/74o177KPG/Pv+0cuvWLby9vQ3Syxi0jnpaWVmxceNG1q5dS01NDU1NTTojotnZ2dL36upqLl++jJubGydOnJCtP7oTn4Y01PPnzyclJYXvvvuuXVpYWBjHjx+Xft/vQyX138Pgl+Kfu3fv8vzzzxtmnMcc0ZHqAe7evSt9by0gpqb/fIraWpBCQkJYt25dp//sO+P+12nr6+ulic1xcXGo1WpiYmIoLy/H1taWw4cP6+QPUFFRYVCebelMv9a3OrZu3cq3336rc839cxS6mr8+/VqHj9va535b5ebmUlJSwrRp00hMTMTHx4c5c+YAPBD55cjMzMTf35/AwECCgoKIiIggKiqK6OhoWfmU6P8g6On4b3vfVkxMTFCpVJibm7fTua6uDrVaLWsfJf7X55+HTU1NDY2NjSxcuJDi4mKOHz+OmZkZvXv31pkDc7997ty5I9lGrv7oTnwqpV+/fsyaNUvxm3htUVr/PQyEf9rTOiXlcUd0pB4C165dY9++fWRmZnLs2DHS0tI4duyY4usHDRokfTczM2PAgAGUlZVhZWXFpEmTCAwMlP6leXh4GCxf66u+hlY+V69epba2lqampg4faXUXOf2uXbtGY2MjLi4u5OfnA7q2akWj0TB9+nTq6+uprKwkMzPTqPJ31X6t5OfnS/KHhoayZMkSoqOjZeVTqVSK9FdCXV2dNGne2HQ3/jujoaGByspKBg8eLB2ztrbGwcGB0tJS2fhQ6v/O/NPKE088wbx58wD4+OOPaWpq6rZuSmiV+8knn+T1118HWpabMDMz02k42+psamqKs7MzP/74o+L6o6vxqZQ33niDnJwcnZF3JRhS//VkfHfGL90/ALW1tTpLjfTr16/D8+T88zD8p4+H301/BDE3N8fV1VXn4+zsbPR88vPz2bhxIxs2bDCowfPy8mL06NEAzJ49G0tLS06ePEl9fT21tbXSfBEbGxuD3qhopaamhhs3buDj4yMNHSvh3r177N+/n4ULFzJw4ECgpXH38/Nj6NChBstxP3L6NTY2cuLECebOnYuFhYVOg9YWjUaDp6cnc+fORaPRSKMbxpK/q/YD8PT01OkI2Nracu3aNUXyKdVfCfn5+djZ2eHr64tare6RDc27Gv/6SEpKIiQkBHt7ewAWLVpEdXU1Wq1W1j5K/K/PP6306tWLsLAwwsLCDPa/HK11U6s8Tk5OuLq6YmtrCyDN/bO2tkalUrFw4ULy8/N1HrdOmDBBKkNBQUHY2NiQnJysqP7oTnwqwcbGhtdee424uDiDbWNI/ddT8S38o59Lly7x/PPPY2tri0ql0llyoS1y/nkQ9ZMhiI5UBwwaNKjdgmKt8y5mzpxJUVERRUVF9OnTh6ioKIqKiqQJuIaye/dusrKyiI2NVVzppqens2vXLnJycli7di1r1qyhqqqK5uZm1qxZw7vvvktGRgYZGRmkpKR0Sa5Vq1bxyiuvUFhYyA8//KBYtsjISAoKCkhLSyMzM5OCggJWr15tlEBXot+GDRtwdnYmNzeX7OxsadJvWy5fvkxeXh7PPvssiYmJPSJ/Z/aTi5+RI0eSnJxMdnY2Z8+eZdasWYSFhSmWT4n+Svjhhx+IiIhg06ZNnD9/njVr1iiS31C6Ev/6iI6O5ubNm2RlZZGXl0dwcDDLli2T5lbJ2UfOvnL+6WmGDh1KSkoK//M//wPA2rVrSUlJ4Xe/+x3Q8vr96dOn+fLLL8nNzWXMmDEsXrxY5x7p6els376dnJwc1q9fz3vvvcf169cVla/uxqccISEhlJSUdDiJXw5D6r/O4ru7CP/oJz4+nsbGRrKyssjJyZHeYLwfOf/0lP+6ism9f/wdd3Z2fui9OoE8e/bs4fvvv+fDDz9k6NChlJaWSmvktKJWq3FxcaG0tFTxa7vGxtbWFmdnZ6qrqykvLzfqveX0MzU1xdXVlaqqqi6vTdKT8sthYWGBi4sLTU1NXLlypcNHQ/rkM4b+jzsuLi6o1WouXrzYblVqJfbRZ18l/nnY9O/fHxsbGy5evNihfObm5gwdOpSysjJu3bqlkyZXvrobn51haWnJV199xbp169r9wTGER6H+k+OX7B+VSsXgwYO5fv16O90eV0RH6jGjtSP1/vvvP2xRBAKBwGjY2dkxduxYUlNTxYr5jyDCP50jJps/ZlRVVeksxy8QCAQ/B27cuNHlqQiCnkf4p3PEiJRAIBAIBAJBFxGTzQUCgUAgEAi6iOhICQQCgUAgEHQR0ZESCAQCgUAg6CJisrlAIBA8ZqhUKvr27Ut1dXWH2wCNHDmS3r17k5eXx+3btxWnv/LKK9y4cYO//e1vPSp/R/Tv3x+1Wt1p+qVLlzrcBHro0KGUl5dz584dnnrqKcrLy3V0GjJkCDdu3FC0DYqHhwezZ88GWiZXR0REdHqun58fHh4eWFlZ8fHHH3PlyhXZ+7ci/PdPWv1XW1tL79696du3b7tzbty4oWgpFzn/GeJfQxAjUgKBQPCY8MQTTxASEkJqaioZGRn4+Pi0Sz906BAHDx4kMjKSr776il//+teK0318fHjuuecemD5tiYiIaLcQcttP615xbZkwYQJffPEF5ubmWFtbk5KSwsSJE3XO0Wg0iveFu3r1Kunp6dTV1fHSSy91et5LL71EdHQ0DQ0NlJWVtVurrDOE/3Rp6z+AGTNmdHjtW2+9pUgGOf8p9a+hiBEpgUAgeEwIDw/H29ubnTt38t5777VL/+Mf/8hTTz3F5MmTqa6u5r/+67+IjIzE29ub5uZm2fSHSdvtQv7jP/6D2bNn4+npqfeaN998kwMHDnDz5k169+7dbRmKi4spLi4GWkacOmP8+PEkJyezadMmg+4v/KdLW/+1cvfuXZ5++ukuySDnP6X+NRTRkRIIBILHhL179/Kf//mfmJmZddgQ//a3v+Xo0aNUV1ejVqsZO3Yszs7OjB49mnPnzsmmQ8tjp3feeYfx48dTXFzM5s2bKS0tBWDEiBEEBwfj5uaGSqUiJyeHbdu26Tw28/f3Z8aMGdjb21NWVkZ8fDzp6elS+vjx4wkJCcHR0ZHz58+zdetWqqqqDLbFqFGj8PT0NGg/USXy62POnDmMHj2acePG0dTUxIcffghAbGys1EDrQ/jvn3TFf6+++io1NTV8/vnnAPTu3ZsVK1awZcuWh7qLg3i0JxAIBI8J33//faerSqtUKlxdXaX9y5YuXcrp06dpbm5m+PDhsumt/O53v8PJyYmdO3fi5OTE/v37MTMzA2Dy5Mk0NzcTHx/P7t27cXd3Z8+ePdK1Xl5eREZGkpqaSkxMDNnZ2fzqV7+S0r29vdm7dy8FBQXs2rWLPn36kJCQgKWlpcG2ePPNN9FoNJSVlekcHz58OBMnTpQ+bddHlJNfjsLCQrRaLRUVFVy7dg2tVotWq1W8FY3w3z/pzH+mpqa88MILOp8nnngCgEmTJuk8ulSr1bz22mvY2NgYnL8xESNSAoFA8DPAxsYGMzMzbt68yahRo5g2bRovvvgi/v7+2NnZyaa3Ul5ezrJlywDIyMggMzMTX19fTpw4wfbt23XyvHDhAqdOnWLQoEGUlJQwZswYCgsL2bdvH0C7zW1XrVpFbGwsMTExACQnJ3Py5EkCAwM5dOiQYl2HDBnC1KlTmTp1aru0uXPn8uqrr0q/e/XqJX2Xk1+OM2fOAPDCCy9QX19PQkKCYpnlEP5rQaVS8cEHH+gcmzVrVrsO16OE6EgJBALBz4B/bFKBlZUVGzduZO3atdTU1NDU1MS9e/dk01vJzs6WvldXV3P58mXc3Nw4ceIE1tbWzJs3Dw8PDxwdHVGpWpoQW1tbSkpK0Gq1LFmyhB07dpCWloZWq6WoqAgAa2trhg0bxqxZs3QaUEdHR0aNGmVQQzx//nxSUlL47rvv2qWFhYVx/Phx6XfrI69WGfTJ/zAR/mvh7t27PP/88wZY7uEjOlICgUDwM6CmpobGxkYWLlxIcXExx48fx8zMjN69e1NVVSWb3sr9r+PfuXNHerQSFxeHWq0mJiaG8vJybG1tOXz4MKamLbNEMjMz8ff3JzAwkKCgICIiIoiKiiI6Olp6a2vr1q18++23OnkonaME0K9fP2bNmqX4Tby2yMn/MBH+MxwTE5Nu38MYiI6UQCAQ/AxoamriwoULPPnkk7z++usAuLm5YWZmxrfffiub3sqgQYOk76ampjg7O/Pjjz9iZWXFpEmTCAwMlEZ5PDw82smRn59Pfn4+0PIm15IlS4iOjubq1avU1tZKcnSVN954g5ycHHJycgy6Tqn8AHV1dVhYWHRZxq4g/CdPbW2t1CmElk5ZR8j5z9j+ffjdcIFAIBAowtzcHFdXV4YOHQqAk5MTrq6u2NraAnD06FGg5TGMSqVi4cKF5Ofnc/78eUXp0LK2j7u7OwBBQUHY2NiQnJxMfX09tbW1UpqNjU27N648PT0ZPHiw9NvW1pZr164BLY+u9u/fz8KFCxk4cCDQMh/Gz89P0kcOGxsbXnvtNeLi4gywWgtK5G8lPz8fOzs7fH19UavVOhPWu4PwX9f9By2Lej7//PPY2tqiUql0llxoi5z/jO1fMSIlEAgEjwlDhw7lxIkT0u+1a9cCsG7dOnbt2sXevXtxd3fnyy+/5M6dO9y4cYN58+ZJ58ulA6Snp7N9+3YsLS2xsbFhzZo1XL9+HYA1a9awfv165s+fj42NDVu3bmXcuHHStSNHjuQvf/kLP/30E/fu3ePu3bssXrxYSo+MjMTJyYm0tDQqKyuxt7fnxx9/7LRBvJ+QkBBKSkraTYJWQnNzs6z8rfzwww9ERESwadMmHB0d2bdvH6tXrzY4z/sR/uu6/wDi4+P53e9+R1ZWFnfu3OGTTz7pcGFNOf8Z278m9/4xS83Z2dlovW6BQCAQPDz69++PjY0NFy9epKmpyeB0c3Nzhg4dSllZGbdu3dJJU6vVuLi4UFpa2uFr/xYWFri4uNDU1MSVK1c6vL+trS3Ozs5UV1dTXl6uSCdLS0u++uor1q1bR2JioqJrOkJO/kcB4b/OUalUDB48mOvXr7fT7WEhOlICgUAgeOSxs7Nj7NixpKamdroWk+DR5efsP9GREggEAoFAIOgiYrK5QCAQCAQCQRcRHSmBQCAQCASCLiI6UgKBQCAQCARdRHSkBAKBQCAQCLqI6Ejdh6Ojo87KsPpYvHixzs7YShg7dmyni8AJjE+/fv2IiIjQ2bj0UaEr8WMoj7L+PY2fnx8rV64kIiICFxeXhy3OzwaVSsXo0aPx9vbGzc3tkdmmw9gYu3yamJjg6uoqLcjZu3dvo927KzyI+sfYeHh4sGXLFrZs2WKUdb2MhehI3UdoaKi087UcISEhDBs2zKD7u7m5ERQU1BXRHhg2NjZoNBqefPLJhy1Kt7G3tyckJERnW4GeRqn9uhI/hvIw9H8UeOmll4iOjqahoYGysjIaGhoetkg/C55++mmSk5PZu3cvK1as4NixY3zxxRcPWywdjFV/Gbt8WlhYkJKSwpdffsmXX37J119/TXJyMr/+9a+NlochPIj6x9hcvXqV9PR06urqOlyI82EhVjbvBuPHj//ZrYcBLYu5jRkzBisroBHXqgAAIABJREFUq4ctymOJUvv9XOPnUWD8+PEkJyezadOmhy3Kz4rNmzeTk5PD8uXLaWxsxMLCAj8/v4ctlg7Gqr96qny+/fbbJCQk4OTkxJ/+9Cd27NjB+PHjqa+vN3pe+ngc65/i4mKKi4sBHqm4Ex2pLrB06VIcHR2BliXr8/LypLQ5c+ZQU1ODra0t/v7+VFRUsGnTJi5fvtzhvZycnFi8eDFHjx4lKytLNu/XX3+d6upq3NzcGDduHJcuXWLLli2UlZUBMGLECIKDg3Fzc0OlUpGTk8O2bdt0duf29/enf//+nD17lgULFmBnZ8fx48c5cuQI4eHh0maOb7/9Njdv3gRgxYoVNDc3K9Jv/PjxhISE4OjoyPnz59m6davO7uSd5b97925Z/eX0MzU1JTQ0lClTplBRUcHnn38uXTtw4EAWLVrEunXruH37to5Nb968SUJCQrfkV2I/0B8/rfefMWMG9vb2lJWVER8fT3p6uiL76tNfCd2Nr1dffZWamhop3969e7NixQq2bNlCZWVlt/WTY86cOYwePZpx48bR1NTEhx9+CEBsbKxUAeuLP336DRs2jKCgIBoaGhg5ciRbtmxh3rx5WFtb8+6770r6dUf+B2E/tVrNe++9B8DKlSsVN6atj/Q++ugj6Zq7d++SlJQEtKy2/fbbb/OnP/1JkhVg5syZODg4cOrUKb32s7e375Z9bW1tFZU/ufpHrnxaW1vzxhtvMG7cOO7du0dWVhYff/yxwaukX716lW3btnH48GFcXV2l/fLk/CeXv9z1nelnrPpRjoCAAGbOnIlarebs2bPExsZSU1MDGN5+tkUu/nbu3KlYRkMRj/a6QEFBAXl5eQQEBDBkyBCdtIkTJ7J69WqGDx/Op59+ipOTE7GxsR3ex9nZmb/+9a/U1NQo6kQBTJ48mQ0bNuDo6MjOnTsZNGgQf/7zn6V5CpMnT6a5uZn4+Hh2796Nu7s7e/bs0bnHmDFjCA4OJioqiry8PJKSknjmmWe4e/cuWq1WkiU3NxetVotWq+Uf67bK6uft7c3evXspKChg165d9OnTh4SEBCwtLWXzV6q/Pv3mz5/PwoULOXLkCOnp6dJeVgDl5eVMmTKFqVOnSscsLS1Zvny5VAl1R34l9gP98ePl5UVkZCSpqanExMSQnZ2tM49BTj59+iu1b3fia9KkSTz33HPSb7VazWuvvYaNjY1R9JOjsLAQrVZLRUUF165dk+zftpHTF3/69Ovfvz/z58+nuLgYMzMzPvvsM06fPo29vT1/+MMfjCL/g7CfpaUlwcHBBAcHY2ZmpkgugMbGRq5fv86cOXPo169fu/SrV6/i6enJzJkzpWOmpqYsX76cO3fuyNqvu/ZVWv7k6h995dPU1JQDBw4wbdo0PvvsMw4cOMBTTz3F008/rdiObWm1Y+tWJ3L+k8tfif87089Y9aM+AgIC2Lx5M1qtln379uHt7c22bdukdEPaz/uRi7+eRIxIdYHWf2DLli3rML2srIyVK1cCUFJSgkajwdraWqcyHzJkCAcPHiQ+Pp6PPvrIoPxLS0tZsWIFAGfOnOHMmTN4eXmRmprK9u3bdc69cOECp06dYtCgQZSUlEjHXV1d8fX1bdfTT0hIwMHBgfXr13Py5EkuXLhgkH6rVq0iNjaWmJgYAJKTkzl58iSBgYEcOnRINn855PR74403iIqKIj4+HmhpiMLDwwFoamri2LFjBAQESLuo+/r60tDQIG2i2V35ldhPX/yMGTOGwsJCaZ7e/Zt7ysmnT3+lGCO+OqO7+slx5swZAF544QXq6+ulf9H305n/9OkHUFVVxeHDhzExMcHFxYXExEQGDBiAu7u7UeSXwxj2a2xs5OLFiwDSKI1Sli9fzkcffcTf//53CgoKOH78OHv27OHmzZvcu3eP+Ph4Xn75ZXbs2AHAhAkTsLOzQ6PR4O7urtd+X331Vbftq6T8gf76R1/5DAgIYNiwYUycOFEahfn8888NmnDv5eVF79696du3L6+++io7duzgypUrivSTy1+J/zvTz5j1Y2csWLCAPXv2SOWssLCQ48ePM2rUKL755htAWfvZEXLx15OIjlQP0DpECy29ZAAHBwcpEGxsbDh8+DAAn3zyicH3z8nJkb5XVlZSXFzMM888Q2pqKtbW1sybNw8PDw8cHR1RqVpcbGtrq9PQXbhwweBOTCud6QcwbNgwZs2apfOvxtHRkVGjRukUtK7mr0+/27dv4+joyLlz56Tz234H0Gg0HD16FHt7e6qrq5k+fTpJSUk0NDRgbW3d4/LLodVqWbJkCTt27CAtLQ2tVktRUZGkuz75kpOTZfVXgjHiqyf0M0ZHpJXO/KdPP4C6ujoA7ty5Q21trXTMysrqgchvDPvdunULb2/vLuV/6tQpPD09mTRpEhMnTuT3v/89M2fO5De/+Q21tbX89a9/5Z133sHd3Z1z584RFBREUlKSVPfps59cujHt29Xy6+7uTnZ2drtHWW1HvOQYMWIEjo6ODB8+nHPnzhEVFQUo85++/I1hn+7Uj1evXiU6OrrD+1ZUVODn54erq6ukL7SMjt2+fRs3NzepIyXXfupDLv56CtGR6gHu3r0rfW8tYKam/3yKamVlxcaNGwkJCWHdunWdjmx1xv3DlPX19VJFFBcXh1qtJiYmhvLycmxtbTl8+LBO/tAS2F2lM/2sra0B2Lp1K99++63ONW3naHUnf336tb6Z1tY+99sqNzeXkpISpk2bRmJiIj4+PsyZMwfggcgvR2ZmJv7+/gQGBhIUFERERARRUVFER0fLyqdEfyUYI75auf+fenf0Myad+U+pfvc3nCYmJj0i/6Novzt37nDixAlOnDhBXFwcaWlpvPjii2g0GioqKvjyyy95+eWX+e6775g6dapUvtrSkf3k0o2pX1fLr1qtljp4XeWTTz4hISGBXr16odFoCA8PZ+XKlYr005e/MezTnfqxvr6e0NDQDu/b0NCASqXC3Ny8Xf1SV1eHWq2Wfsu1n/pQGn/GRnSkHgLXrl1j3759ZGZmcuzYMdLS0jh27Jji69uuc2VmZsaAAQMoKyvDysqKSZMmERgYKI1EeHh4GCxf66viSoO3latXr1JbW0tTU1OnQ+rdQU6/a9eu0djYiIuLC/n5+QAdrgmm0WiYPn069fX1VFZWkpmZaVT5u2q/VvLz8yX5Q0NDWbJkCdHR0bLyqVQqRfrL0Z34qq2t1VlqoaO5NF3Vr6fpbvkxhvwPwn5PPPEE8+bNA+Djjz+mqampS7JCy7ya6upqqZEFOHjwILGxsRQWFvLjjz9K5au7KNWvu+VPH5cvXyYoKAgTExODRqE6ora2lvfff5+9e/eyc+dOLl26JKufvvyNVX66Uz/K+bqyspLBgwdLv62trXFwcKC0tNQgGevq6qSXCu6np+JPH2KyeQeYm5tLC6e1fpydnY2eT35+Phs3bmTDhg0GNXheXl6MHj0agNmzZ2NpacnJkyepr6+ntrZWmk9gY2PTpcU/a2pquHHjBj4+PtKjDSXcu3eP/fv3s3DhQgYOHAi0NO5+fn4MHTrUYDnuR06/xsZGTpw4wdy5c7GwsNBpMNqi0Wjw9PRk7ty5aDQaqUIylvxdtR+Ap6enTkVja2vLtWvXFMmnVH85uhNfly5d4vnnn8fW1haVStXuH2p39Otpult+jCH/g7Bfr169CAsLIywszOD4fO+99xgxYgRmZmaYmZkxZ84c+vbty9mzZ6VzUlNTuXXrFmFhYdJcPWOgVL/ulD85PvvsM/r168eSJUukjpqHh0eX16xKTU3l/PnzvPXWW4r005e/scpPT9aPSUlJhISEYG9vD8CiRYuorq5Gq9Uqlg9a2k47Ozt8fX1Rq9WYm5tLaT0Vf/oQHakOGDRoECkpKTqf1ue6M2fOpKioiKKiIvr06UNUVBRFRUXSBD5D2b17N1lZWcTGxiou9Onp6ezatYucnBzWrl3LmjVrqKqqorm5mTVr1vDuu++SkZFBRkYGKSkpXZJr1apVvPLKKxQWFvLDDz8oli0yMpKCggLS0tLIzMykoKCA1atX6wR6V1Gi34YNG3B2diY3N5fs7GxpUm1bLl++TF5eHs8++yyJiYk9In9n9pOLn5EjR5KcnEx2djZnz55l1qxZhIWFKZZPif5ydCe+4uPjaWxsJCsri5ycHAoKCnTSu6tfT2KM8tNd+R91+/Xv358vvviCwsJCCgsLWb58OeHh4dIIGbTY8fDhw1haWv5/9u49rqoyX/z4h7u4wS1sQkVIBSJL8yXNmFGhgZLHYwXqOOjk4ZeemLHsqCfHMG+ZZHpMwYSDOeVlzAqdUdBi5hhBBkybCZRgRtnI8UoEGAKKgsjt94exDlsu+8LGS37fr5ev12ZdnvV8n/Xsvb+utfbzdPmwv7mMjc/czy9D78/y8nJeffVVZs2axfHjxykoKCAhIaFHV78SEhIICwtj6NChBuMzdHxD+xvz/dWbn4+bN2/m0qVL5ObmUlBQQHh4OEuWLFGejTPWuXPniI6O5t133+XEiROsWrVKWdeb/a8rVq0/pZseHh635MNK9MzOnTs5deoUGzZswNvbm9LSUmUMjjYqlQpPT09KS0t7/SG7rqjVajw8PKiurqa8vNyiZRuKz9raGh8fH6qqqvTGEzFFb9bfEHt7ezw9PWlubub777/v9NZLd/XrSfyW6F+2trYMGTKEH3/8UflZtyXj622WeP/0pP53evs5OjoyaNAgmpubKS0t7XQcqvXr1+Pu7m7WFVFj3M7+ATfeY21DB5w/f97iA1sais/Q8Xu7fXpavqenJyqVitOnT/fKrAO93f9uJonUXabti+7tt9++3VURP0PSv0RPeHh4MGLECBISEoiMjOwwPIMQvel29T952PwuU1VVpYzWK4SlSf8SPbFy5UoeeughNm/eLEmUuOVuV/+TK1JCCCGEEGaSh82FEEIIIcwkiZQQQgghhJkkkRJCCCGEMJMkUjfRaDRGD465cOFCvZnXjfHoo4+aNUimMI+7uzvR0dH07dv3dlelA3P6j6nu5Ph/7nr7/N6K/mOKQYMGdTpwsbOzMz4+PtjY2NyGWgnR+ySRuklkZKQys7ohERER+Pr6mlS+n58fM2bMMKdqt4yzszPJyclmj9Z7J3FxcSEiIkJv2o3eZmz7mdN/THUnx3+36u3zeyf1H1M8+eSTHDlypEMyFRcXx9q1a3s0FY0QdzIZ/qAHAgICLD4Q253Azs4Of39/ZaJaYRpj20/6z92pt8/v3dp/9u/fz7/927+xePFiFi9eDNyo47hx4/jXf/3X21w7IXqPJFJmWLx4MRqNBrgxpUNBQYGybvbs2dTW1qJWq5kyZQqVlZW8++67nD17ttOyBgwYwMKFCzlw4AC5ubkGj/3iiy9SXV2Nn58fjz/+OGfOnGHTpk2UlZUB8NBDDxEeHo6fnx+2trbk5eWxdetWvdm/p0yZwsCBAzl69Cgvv/wy/fv35/Dhw+zfv5/ly5crk0G+9tpryphCS5cupaWlxaj4AgICiIiIQKPRcOLECbZs2UJVVZXB4+/YscNg/Ibis7a2JjIykokTJ1JZWclnn32m7Dt48GAWLFjAmjVruHr1ql6bXrp0SZlOwNz6G9N+0H3/aSt/6tSpuLi4UFZWRmJiIllZWUa1b3fxG8NQ+/7mN7+htrZWKbdfv34sXbqUTZs20dTUZFT8oaGhTJs2DZVKxdGjR4mPj+8wenpXetr/rKysiIyMJCQkhMrKSnbv3s1zzz3H22+/TV1dXbf1U6vVPT6/3bWvJco31L7GtJ9KpeLNN98EYNmyZUYna62traxevZr9+/ezfft2CgsLWb58OR9//LHeVDfGvL+66/9C3Gnk1p4ZdDodBQUFhIaGKsP0t3nqqadYuXIlw4cP5+OPP2bAgAHEx8d3Wo6Hhwd/+tOfqK2tNSqJAhg/fjzr1q1Do9Hw4Ycf4uXlxR//+EesrKyU9S0tLSQmJrJjxw5Gjx7Nzp079crw9/cnPDyc2NhYCgoKSElJ4cEHH+T69etotVqlLvn5+Wi1WrRarTJxpaH4goKC2LVrFzqdju3bt+Pm5kZSUhIODg4Gj29s/N3FN2/ePObPn8/+/fvJyspi9erVyrry8nImTpzIpEmTlGUODg68/vrrylQgPam/Me0H3fefwMBAYmJiyMjIIC4ujmPHjuk9B2Ooft3Fb4n2HTduHI899pjyt0ql4oUXXsDZ2dmo+ENDQ9m4cSNarZbdu3cTFBTE1q1bja5fT/vf7373OxYsWMDBgwc5cuQImzZt4oUXXlBufXZXP0uc3+7a1xLlG2pfYz6fHBwcCA8PJzw83OTnmvLy8jh48CDLli0jNDSU+++/n5iYGKPPj6H+L8SdSK5ImaFtgsclS5Z0ur6srIxly5YBUFJSQnJyMk5OTnrzdg0dOpRPP/2UxMRE3nvvPZOOX1paytKlSwH49ttv+fbbbwkMDCQjI4P3339fb9uioiKOHDmCl5cXJSUlynIfHx8mTJjQ4UpZUlISrq6urF27lrS0NIqKikyKb8WKFcTHxxMXFwdAamoqaWlphIWFsXfvXoPHN8RQfC+99BKxsbHKrN8qlYrly5cD0NzczKFDhwgNDeXAgQMATJgwgcbGRmUU3J7W35j2667/+Pv7c/LkSeU5vZtH5zVUv+7iN4ax/acz9fX1BuN/+eWX2blzp3KckydPcvjwYUaOHMk///lPo+rYk/4XGRlJTEwMe/bsAcDJyUlvwlND9evp+TXUvj0t35j2NfT51NTUpEx23XYVzBTr16/nq6++YvTo0WzcuJHq6mplnaHzY6j/C3EnkkSqF5w4cUJ5XVFRAYCrq6vyQeXs7My+ffsA+MMf/mBy+Xl5ecrrixcvcv78eR588EEyMjJwcnJi7ty5jBkzBo1Go8x6rlar9b4Ii4qKTE5i2nQVH4Cvry/Tp0/Xu+qj0WgYOXKkXiJi7vG7i+/q1atoNBq+++47Zfv2rwGSk5M5cOAALi4uVFdX8/zzz5OSkkJjYyNOTk69Xn9DtFotixYt4oMPPiAzMxOtVktxcbESe3f1S01NNRi/Icb2H3NYWVnh4+NDbGysskyn03H16lX8/Pxwc3Nj8+bNne5bWVnJxIkTAfP735dffombm5ve+yc/P9/o+hmb6HXndrZvW/0NfT5dvnyZoKAgs+tRUVFBYmIiU6dOVRJWMNx/9+7d223/F+JOJYlUL7h+/bryuu2SvLX1/91FdXR0ZP369URERLBmzZour2x15dq1a3p/NzQ0KA+mJiQkoFKpiIuLo7y8HLVazb59+/SODze+mMzVVXxOTk4AbNmyhePHj+vt0/4ZrZ4cv7v42m7PtG+fm9sqPz+fkpISJk+ezMGDBwkODmb27NkAt6T+huTk5DBlyhTCwsKYMWMG0dHRxMbGsnnzZoP1MyZ+Q4ztP23abikbw9bWFjs7uw51qq+vR6VSkZ6eTmRkZKf7tp8h3tz+1/bsUfv925drqH6WYGr7msLY+hv6fLKE2tpa6uvr9Z6vMub91V3/F+JOJYnUbXDhwgV2795NTk4Ohw4dIjMzk0OHDhm9f/txrmxsbBg0aBBlZWU4Ojoybtw4wsLClCsRY8aMMbl+bV8upn64VlRUUFdXR3Nzc6e3JHrKUHwXLlygqakJT09PCgsLATodEyw5OZnnn3+ehoYGLl68SE5OjkXrb277tSksLFTqHxkZyaJFi9i8ebPB+tna2hoVf1eM6T91dXV6Qym4u7t3KKer+BsbG7l48SJDhgxRljk5OeHq6kppaSk1NTXKuTCHofaxtramoaEBX19f5Yu8/TNGhupnKD5DjH1/mlu+sfU3pE+fPsydOxeAbdu2WWzYAmPfX131fyHuVPKweSfs7Ozw8fHR+9fZQHM9VVhYyPr161m3bp1JX3iBgYGMGjUKgJkzZ+Lg4EBaWhoNDQ3U1dUxevRo4MYtRHMG/6ytraWmpobg4GDl1oMxWltb2bNnD/Pnz2fw4MHAjS/3kJAQvL29Ta7HzQzF19TUxBdffMGcOXOwt7fX+0JoLzk5mbFjxzJnzhySk5OV/5Vbqv7mth/A2LFj9b4I1Wo1Fy5cMKp+xsbfFWP6z5kzZ3jiiSdQq9XY2tp2egWpu/hTUlKIiIjAxcUFgAULFlBdXY1WqzW6nl0x1D4tLS0cOHCAV155BU9PTwYOHNih/sbUz9zza+z7syf9xxLt27dvX6KiooiKijL5+N0x5v3VXf8X4k4liVQnvLy8SE9P1/vX9tzBtGnTKC4upri4GDc3N2JjYykuLlYeADXVjh07yM3NJT4+3ugPraysLLZv305eXh6rV69m1apVVFVV0dLSwqpVq3jjjTfIzs4mOzub9PR0s+q1YsUKZs2axcmTJzl37pzRdYuJiUGn05GZmUlOTg46nY6VK1diZ2dnVj3aMya+devW4eHhQX5+PseOHVMemm3v7NmzFBQU8Mgjj3Dw4MFeqX9X7Weo/4wYMYLU1FSOHTvG0aNHmT59OlFRUUbXz5j4u2JM+yYmJtLU1ERubi55eXl6P2s3Jv7Nmzdz6dIlcnNzKSgoIDw8nCVLllBfX29843bDUPusX7+e8vJysrKy+Mtf/sJf//pX4P+uAhlbP3POrynvT3P7T2+3b08ZOj+G+r8QdyKr1p/+O+7h4WGRLzvRu3bu3MmpU6fYsGED3t7elJaWdhiDR6VS4enpSWlpqd4vBW8ltVqNh4cH1dXVlJeXW7RsQ/FZW1vj4+NDVVUVFy9eNOsYvVl/Q+zt7fH09KS5uZnvv/++01sr3dWvp/Ebal9bW1uGDBnCjz/+yOXLl00uH8DT0xOVSsXp06f1nlOyFEPnr+026Pjx40lISGDEiBG3rH634v3Z2+3bU92dH2P6vxB3Ekmk7jJtidTbb799u6sixF1n+PDheHl5kZOTg0qlIiYmhjNnzijDiQghhKnkYfO7TFVVlTLasRDCNPb29rz22msMGTKE2tpa0tLSeOedd253tYQQdzG5IiWEEEIIYSZ52FwIIYQQwkySSAkhhBBCmEkSKSGEEEIIM0kidRONRmP04JgLFy40eWbyRx991KxBMoV53N3diY6Opm/fvre7Kh2Y039MZWr8/fr16zAYrY+PDxqNBoABAwZ0ur5t+o82zs7OBAYGEhgYiJubm8XjMtaddP7vu+8+Bg0a1GH5oEGDLDYFjdB3J51/8fMlidRNIiMjlZnHDYmIiMDX19ek8v38/JgxY4Y5VbtlnJ2dSU5O5v7777/dVekxFxcXIiIi9KY16W3Gtp85/cdUpsY/derUDoPRpqen8+qrrwKwcuXKTteHhIQoZbzwwgvk5uaydu1a3nnnHf7+97/z+OOP90p8htyO89+VgwcPkp2drTchsIODA9nZ2cycOdPocn5O78/OWDK+O+n8i58vGf6gBwICAvQm5fy5sLOzw9/fX5kIWZjG2Pa7U/vP9evXeeCBB7pc//XXXxMREdHpuscff5y1a9eyaNEikpOTgRtjN92Jg0LeDo2NjcyfP5+vvvrK7DJ+7u/Pn3t84udHEikzLF68WLnVkZiYSEFBgbJu9uzZ1NbWolarmTJlCpWVlbz77rucPXu207IGDBjAwoULOXDgALm5uQaP/eKLL1JdXY2fnx+PP/44Z86cYdOmTZSVlQHw0EMPER4ejp+fH7a2tuTl5bF161ZldnWAKVOmMHDgQI4ePcrLL79M//79OXz4MPv372f58uXY29sD8NprryljVi1dupSWlhaj4gsICCAiIgKNRsOJEyfYsmULVVVVBo+/Y8cOg/Ebis/a2prIyEgmTpxIZWUln332mbLv4MGDWbBgAWvWrOHq1at6bXrp0iWSkpJ6VH9j2g+67z9t5U+dOhUXFxfKyspITEwkKyvLqPbtLv5b4be//S3ffPONkkQBXU4jczNfX19mzJhBY2MjI0aMYNOmTcydOxcnJyfeeOMNZZT20NBQpk2bhkql4ujRo8THxyuj+xsTvzHnt7v2V6lUvPnmmwAsW7bMpGT4f/7nfwgODmbs2LH8/e9/73SbruJTq9VG9S9DDL3/umsfQ58/3dXf0PGNff/cyf1f3Jvk1p4ZdDodBQUFhIaG6s0eD/DUU0+xcuVKhg8fzscff8yAAQOIj4/vtBwPDw/+9Kc/UVtba1QSBTB+/HjWrVuHRqPhww8/xMvLiz/+8Y9YWVkp61taWkhMTGTHjh2MHj2anTt36pXh7+9PeHg4sbGxFBQUkJKSwoMPPsj169fRarVKXfLz89FqtWi1WmViX0PxBQUFsWvXLnQ6Hdu3b8fNzY2kpCQcHBwMHt/Y+LuLb968ecyfP5/9+/eTlZXF6tWrlXXl5eVMnDiRSZMmKcscHBx4/fXXlak6elJ/Y9oPuu8/gYGBxMTEkJGRQVxcHMeOHdN7jspQ/bqL31jW1tY8/fTTev/a3xpxcXHhqaee0vvXdvXgscceM3sC4oEDBzJv3jzOnz+PjY0Nf/7zn/n6669xcXHh3//934EbX9IbN25Eq9Wye/dugoKC2Lp1q1KGofgNtZ+h9ocbfSY8PJzw8HBsbGxMivHy5ct89NFHzJ8/v9P13cVnbP8ypLv3n6H2MfT5Y+j8dHd8Y+K7Ff1fCFPJFSkztE0QumTJkk7Xl5WVsWzZMgBKSkpITk7GyclJb16toUOH8umnn5KYmMh7771n0vFLS0uVKS2+/fZbvv32WwIDA8nIyOD999/X27aoqIgjR47g5eVFSUmJstzHx4cJEyZ0uFKWlJSEq6sra9euJS0tjaKiIpPiW7FiBfHx8cTFxQGQmppKWloaYWFh7N271+DxDTEU30svvURsbCyJiYnAjasHy5cvB6C5uZlDhw4RGhrKgQMHAJgwYQKNjY0cOXIEoMf1N6b9uus//v7+nDx5UnlOr61ebQzrElNoAAAgAElEQVTVr7v4jWVra9thtO/p06crVx2GDx/Opk2b9Nb/+te/pqKiAmdnZ3788UeTjtdeVVUV+/btw8rKCk9PTw4ePMigQYMYPXo0AC+//DI7d+5U+sHJkyc5fPgwI0eO5J///KfB+A21n6H2B2hqalImgzb2KlB7H3zwAX/7298YOXIkxcXFeusMxWdM/zJGV/3XmP7f3eePofobOr6h+G5F/xfCVJJI9YITJ04orysqKgBwdXVVEilnZ2f27dsHwB/+8AeTy8/Ly1NeX7x4kfPnz/Pggw+SkZGBk5MTc+fOZcyYMWg0GmXWeLVarZdIFRUVmZzEtOkqPrhxe2b69Ol6V300Gg0jR47US0TMPX538V29ehWNRsN3332nbN/+NUBycjIHDhzAxcWF6upqnn/+eVJSUmhsbMTJyanX62+IVqtl0aJFfPDBB2RmZqLVapUvW0P1S01NNRi/Ma5fv84TTzzRbR07e0aq7apA29UJc9TX1wNw7do16urqlGWOjo5YWVnh4+NDbGyssr1Op+Pq1av4+fnxww8/dBu/Mee3u/Zvc/nyZb0Hxk1VWVnJvn37ePXVV1m4cKGy3FB87RORnuqs/xrb/7v6/MnMzDS6/ua8f25V/xfCVJJI9YLr168rr9suSVtb/99dVEdHR9avX09ERARr1qzp8spWV65du6b3d0NDg3JrJSEhAZVKRVxcHOXl5ajVavbt26d3fLjxYW6uruJr+wn8li1bOH78uN4+7Z/R6snxu4uv7fZT+/a5ua3y8/MpKSlh8uTJHDx4kODgYGbPng1wS+pvSE5ODlOmTCEsLIwZM2YQHR1NbGwsmzdvNlg/Y+LvTQ0NDVRXV3f6E39T3XyrysrKCltbW+zs7DrEVF9fj0qlMhi/Mee3u/a3pPfff5+vv/4aHx8fZZmh+Cyps/5rbP/v6vPHlPqb8/650/u/uHdJInUbXLhwgd27d5OTk8OhQ4fIzMzk0KFDRu/ffpwrGxsbBg0aRFlZGY6OjowbN46wsDDlf2JjxowxuX5tv7C6OfkypKKigrq6Opqbm82+5dAdQ/FduHCBpqYmPD09KSwsBOh0TLDk5GSef/55GhoauHjxIjk5ORatv7nt16awsFCpf2RkJIsWLWLz5s0G62dra2tU/L3pm2++4emnnyYmJsbiZTc2NnLx4kWGDBmiLHNycsLV1ZXS0lKD59/Y89tV+7fp06cPc+fOBWDbtm00NzebHEtpaSmHDh3ilVdeMTq+9tuB+f2rK8a2T1efP8bW35Cu4rsb+r+4N8nD5p2ws7PrMOCgh4eHxY9TWFjI+vXrWbdunUlv+MDAQEaNGgXAzJkzcXBwIC0tjYaGBurq6pTnSZydnc0a/LO2tpaamhqCg4OVW2fGaG1tZc+ePcyfP5/BgwcDNz7cQkJC8Pb2NrkeNzMUX1NTE1988QVz5szB3t5e7wuvveTkZMaOHcucOXNITk5Wrn5Yqv7mth/A2LFj9b6I1Go1Fy5cMKp+xsbfU3379u3w/nBxcQFg69atjBgxgoULF2JnZ4ednR3PPPMMjzzyiEWOnZKSQkREhHK8BQsWUF1djVarNRi/Mee3u/ZvH39UVBRRUVEmn9/2EhISmDx5stHxtelJ/+qOsf2/q88fY+tvSFfx3Sn9X4ibSSLVCS8vrw4DDrbd9582bRrFxcUUFxfj5uZGbGwsxcXFygPEptqxYwe5ubnEx8cb/aGYlZXF9u3bycvLY/Xq1axatYqqqipaWlpYtWoVb7zxBtnZ2WRnZ5Oenm5WvVasWMGsWbM4efIk586dM7puMTEx6HQ6MjMzycnJQafTsXLlSuzs7MyqR3vGxLdu3To8PDzIz8/n2LFjykPB7Z09e5aCggIeeeQRDh482Cv176r9DPWfESNGkJqayrFjxzh69CjTp08nKirK6PoZE39PjRkzpsP7o+326D/+8Q/mzZvHCy+8QGFhITqdjg0bNljs6snmzZu5dOkSubm5FBQUEB4ezpIlS5RnqwzFb6j9DLW/Jf3v//4vX375pUnxtTH3/WmIMf2/q88fU+pvSFfx3Qn9X4ibWbX+9N9xDw8Pi3zZid61c+dOTp06xYYNG/D29qa0tFRvjBa48UsVT09PSktL9X4peCup1Wo8PDyorq6mvLzcomUbis/a2hofHx+qqqqUsYdM1Zv1N8Te3h5PT0+am5v5/vvvO7111F39LBF/T1lbWytDO5w/f97iA496enqiUqk4ffp0h8E+jYm/u/Yzpv17W3fx3QpdtY8xnz/Q+/W/0/u/uLdIInWXafsge/vtt293VYQQ9xj5/BGiI7m1d5epqqpSRvsVQohbST5/hOhIrkgJIYQQQphJrkgJIYQQQphJEikhhBBCCDNJIiWEEEIIYSZJpDpha2vLqFGjCAoKws/Pr0dzh/WUu7s70dHR9O3b16Ll2traMmjQIGVahZuNGDGCgICALqem6Gy9RqNh0KBBemMG9e3bl0GDBinbzZo1q8MghIZ4e3tbPH4hhBDCEiSRuskDDzxAamoqu3btYunSpRw6dIjPP//8ttXHxcWFiIiILhMeU/Xp04eIiAgyMjLIzs4mODi4w/q9e/fy6aefEhMTwzfffMMvfvELo9YnJCSQnZ3NuHHjlO3feustsrOzmTlzJgDBwcE89thjRtf3ySef5PPPP5cfQgghhLgjSSJ1k40bN5KXl8djjz3GpEmTGDVqFAkJCbe7WhazfPlyfvvb3/Lhhx92uv63v/0tw4YNY/z48QQEBJCVlUVMTIxylcnQ+jNnzvDss88CN6baCQoK4ocffjC7vq+88gqffPKJ/ORaCCHEHUkmLW6n7Zbee++9p4zEfP36db3pX1588UWqq6vx8/Pj8ccf58yZM2zatImysjJlm4CAACIiItBoNJw4cYItW7YoUygYWm9tbU1kZCQTJ06ksrKSzz77rEM9VSoVb775JgDLli0zadToXbt28dZbb2FjY6OU0d5zzz3HgQMHqK6uRqVS8eijj+Lh4cGoUaP47rvvul0PkJaWxrPPPoudnR1PP/00x44dY9iwYR3a+fe//z0BAQGcP3+ejRs3djqp6ciRIxk7dmyH+QKnTJnC1KlTcXFxoaysjMTERLKysoxuAyGEEMJS5IpUO01NTfz444/Mnj0bd3f3TrcZP34869atQ6PR8OGHH+Ll5cUf//hH5TmqoKAgdu3ahU6nY/v27bi5uZGUlISDg4NR6+fNm8f8+fPZv38/WVlZrF69ukMdHBwcCA8PJzw8HBsbG5NiPHXqVJeJl62tLT4+Puh0OgAWL17M119/TUtLC8OHDze4HqC+vp6cnByefvppnnvuuU4TwV/96lcMGDCADz/8kAEDBrBnz55O43jllVdITk7WS1IDAwOJiYkhIyODuLg4jh07xsMPP2xSGwghhBCWIlekbvL666/z3nvv8fe//x2dTsfhw4fZuXOn3q2l0tJSli5dCsC3337Lt99+S2BgIBkZGaxYsYL4+Hji4uIASE1NJS0tjbCwMPbu3Wtw/UsvvURsbCyJiYnAjatPy5cv16tjU1OTMhlnS0uLxWJ3dnbGxsaGS5cuMXLkSCZPnswzzzzDlClT6N+/v8H1bT777DNmzJjBL3/5S5YuXcqCBQv0jlNeXs6SJUsAyM7OJicnhwkTJvDFF18o2wwdOpRJkyYxadIkvX39/f05efIku3fvBuDIkSMWi18IIYQwlVyRusmRI0cYO3Ysv/vd78jJyeH//b//x2effab3q7G8vDzl9cWLFzl//jwPPvggTk5O+Pr6Mn36dD7//HM+//xzDh06hEajYeTIkQbXu7q6otFo+O6775Ty279uc/nyZYKCgggKCrLohKA/DXKPo6Mj69evZ/Xq1dTW1tLc3Exra6vB9e3b8Mknn0Sr1VJXV9fhOMeOHVNeV1dXc/bsWfz8/PS2mTdvHunp6fzv//6v3nKtVsuIESP44IMPiIiI4IEHHrBY/EIIIYSp5IpUJ65du8YXX3zBF198QUJCApmZmTzzzDMkJycr69traGjA0dERJycnALZs2cLx48f1tqmpqTG4vu2Xee3Lv/lYvam2tpampibmz5/P+fPnOXz4MDY2NvTr14+qqiqD69s0NDTw6quv8v3333d6nJtjunbtmt6vEt3d3Zk+fTq//vWvO+ybk5PDlClTCAsLY8aMGURHRxMbG8vmzZst1ApCCCGE8SSRMqC8vJzq6molCQLw8vJSXtvY2DBo0CDKysqoqKigrq6O5uZmioqKOpRlZWXV7XpbW1uamprw9PSksLCww7Ha9OnTh7lz5wKwbds2mpubexwnoNTr/vvv58UXXwTAz88PGxsbjh8/bnD9r371K6Wsr776qsvjtI/J2toaDw8PvV/2vfTSS+Tl5eld+WuvsLBQaZ/IyEgWLVokiZQQQojbQm7t3eTNN9/koYcewsbGBhsbG2bPns19993H0aNHlW0CAwOVX6nNnDkTBwcH0tLSaG1tZc+ePcyfP5/BgwcDN5KjkJAQvL29Da5vamriiy++YM6cOdjb2+slTO317duXqKgooqKisLU1LRe2s7PDx8cHb29vAAYMGICPjw9qtRqAAwcOAODk5IStrS3z58+nsLCQEydOGLXeGE8++SSjR48GYMaMGTg7O5OamgrceE7rhRde6HLIibFjxzJkyBDlb7VazYULF0xpAiGEEMJi5IrUTQYOHKg3AOfVq1dZvny5cgUEICsri+3bt2Nra4uTkxPLly9Xbm3FxMQwYMAAMjMzuXjxIi4uLvzwww9ERkYatX7dunXs3r2b/Px8WltbSUlJ4Ze//KXF4vP29tZ7qLvtV4Fr1qxh+/bt7Nq1i9GjR/Pll19y7do1ampq9JI5Q+uNkZWVxfvvv4+DgwPOzs6sWrWKH3/8EYCIiAhKSkq6fIh8xIgRfPTRR1y5coXW1lauX7/OwoULTWsEIYQQwkKsWn96StjDw0NGj/6Jo6MjgwYNorm5mdLSUr3hAnbu3MmpU6fYsGED3t7elJaWUltb26EMtVqNh4cH1dXVlJeXm7Te2toaHx8fqqqquHjxouUDNMLAgQNxdnbm9OnTnd46NLTeEDs7O7y9vSkrK+Py5cvAjWEdvvnmG9asWcPBgwe73Nfe3h5PT0+am5v5/vvvLXZrUwghhDCVJFImakuk3n777dtdlZ+d/v378+ijj5KRkWHSIKNCCCHE7SK39kxUVVUl05X0kpqaGtLT0293NYQQQgijyRUpIYQQQggzya/2hBBCCCHMJImUEEIIIYSZJJESQgghhDCTPGzejrW1NcOGDaO1tZVr165x4cIFi/96bMyYMcycORO48XB1dHS0RcvvqX79+nHfffd1WF5TU2PUUAyG4rvT4xdCCCFMIVek2nFyciI9PZ20tDS0Wi0FBQVER0frzQPXUxUVFWRlZVFfX8+zzz5rsXItZerUqaSnp3f49+qrrxq1v6H47vT4hRBCCFPIFalOzJs3j/T0dH75y1/yX//1X7i7u/O73/3OImWfP3+e8+fPAxASEmKRMi3t+vXrPPDAA2btayi+uyF+IYQQwlhyRaoLjY2NaLVaVq1axb/8y7/g4+MDwG9+8xuee+45Zbt+/frxzjvvoNFoAHjxxRcJDQ1lyZIl7N+/n40bNzJo0CCTjh0QEMDWrVvZt28fq1evxtXVFbgx8vdbb73FY489pmzbt29foqOj8ff3V5apVCo2bNjAhg0bTJ6LzxBD8QshhBD3EkmkDNBqtbS2tirJy7hx4/QSGZVKxQsvvICzszMA48ePZ926dWg0Gj788EO8vLz44x//iJWVlVHHCwoKYteuXeh0OrZv346bmxtJSUk4ODjQ0NBAYWEh//3f/60kLmvWrMHPz4+CggKlDAcHB8LDwwkPD8fGxsbkmK2trXn66af1/rXd3jQUvxBCCHEvkVt7BjQ0NHDlypVOH8DuSmlpKUuXLgXg22+/5dtvvyUwMJCMjAyD+65YsYL4+Hji4uIASE1NJS0tjbCwMPbu3UtiYiJPPPEEmzZtIikpieDgYCZPnqw331xTUxOnT58GoKWlxZRwAbC1teWdd97RWzZ9+nTKyspMLksIIYT4OZNEygjW1tb8NAC8UfLy8pTXFy9e5Pz58zz44IMGEyknJyd8fX2ZPn06kyZNUpZrNBpGjhzJ3r17AXjjjTf4/PPPiYmJYe7cuVRUVOiVc/nyZYKCgoyu782uX7/OE088Yfb+QgghxL1CEikDVCoVKpWqy6sxnd2yu3btmt7fDQ0NODo6GjyWk5MTAFu2bOH48eN662pqapTXTU1NNDQ0AFBfX2+w3N5k7C1LIYQQ4udIEikDgoKCaGlp4ZtvvgGgrq5ObzgEd3f3Dvt4eXkpr21sbBg0aFCHRKy+vh57e3u9ZRUVFdTV1dHc3ExRUVGXdVqzZg11dXW8/fbbxMfHM3nyZL0xnvr06cPcuXMB2LZtm95tv54yJn7oPD5T1gshhBB3A3nYvBMajQZfX1/Cw8OJjo7mo48+4ocffgDgzJkzPPHEE6jVamxtbYmMjOywf2BgIKNGjQJg5syZODg4kJaWprdNYWEh/fv3Z8KECahUKuzs7GhtbWXPnj3Mnz+fwYMHAzeeVwoJCcHb2xuAsLAw/vVf/5X/+I//YOfOneTl5REbG6t3Zahv375ERUURFRVl8V/tGRN/V/GZsl4IIYS4G0gi1Yl169bxl7/8hTlz5hAfH8/q1auVdYmJiTQ1NZGbm0teXh46na7D/llZWWzfvp28vDxWr17NqlWrqKqq0tvm3LlzREdH8+6773LixAlWrVoFQExMDDqdjszMTHJyctDpdKxcuRI7Ozu8vb155513WLp0KaWlpQC8/vrr+Pr6Gj1gZk8ZE3938Rm7XgghhLgbWLX+9BS1h4eHXBUwkq2tLUOGDOHHH3/k8uXLeut27tzJqVOn2LBhA97e3pSWllJbW2vyMdRqNR4eHlRXV1NeXm6pqltEd/ELIYQQ9xJ5RsoMTU1NnDp1qtttrl+/3uXVGmNcunSJS5cumb1/bzImfiGEEOJeILf2LKyqquqOTYCEEEIIYVlya08IIYQQwkxyRUoIIYQQwkySSAkhhBBCmEkSKSGEEEIIM0ki1YUBAwbg4+ODtbU0kbkWLlzIww8/fNeWL4QQQhgiWUIXEhMTSU9P59FHHzV5X2dnZ5KTk7n//vt7oWa3n7HxRURE4Ovre8eVL4QQQliKjCPViWHDhjF06FBycnIICQkhNzfXpP3t7Ozw9/c3aqLiu5Gx8QUEBNDU1HTHlS+EEEJYiiRSnQgJCSE/P5+DBw8yZ84c1q1bp6z7zW9+Q21tLZ999hkA/fr1Y+nSpWzatImmpiaWL1+uTMb72muvKWNKLV26lJaWFgBCQ0OZNm0aKpWKo0ePEh8fb/To57Nnz6a2tha1Ws2UKVOorKzk3Xff5ezZs8o2AQEBREREoNFoOHHiBFu2bFGmqLGysiIyMpKQkBAqKyvZvXs3zz33HG+//TZ1dXXd1k+tVhsV3+LFi9FoNMCNK3sFBQVK3R566CHCw8Px8/PD1taWvLw8tm7dSk1NjUXKN9S+xrSfSqXizTffBGDZsmUmJ2s9Pb4QQoi7h9za68QzzzxDRkYGR44cwcfHh6FDhyrrxo0bx2OPPab8rVKpeOGFF3B2dub69etotVrlClZ+fj5arRatVstPw3URGhrKxo0b0Wq17N69m6CgILZu3Wp03Z566ilWrlzJ8OHD+fjjjxkwYADx8fHK+qCgIHbt2oVOp2P79u24ubmRlJSEg4MDAL/73e9YsGABBw8e5MiRI2zatIkXXniBPn36GKyfMfEB6HQ6CgoKCA0N1Ws7gPHjx9PS0kJiYiI7duxg9OjR7Ny502LlG2pfQ+0H4ODgQHh4OOHh4djY2Bh9bix1fCGEEHcPuSJ1E1dXVx599FHeeecdSkpKOHPmDCEhIXzwwQcG962vrycpKQlXV1fWrl1LWloaRUVFetu8/PLL7Ny5k/fffx+AkydPcvjwYUaOHMk///lPo+pYVlbGsmXLACgpKSE5ORknJyeuXLnCihUriI+PJy4uDoDU1FTS0tIICwtj7969REZGEhMTw549ewBwcnLSmzDYUP0MxQeQkpICwJIlSzqsayu3TVFREUeOHMHLy4uSkpIel29M+3bXfnBjCpzTp08DKFfBjGWJ4wshhLh7SCJ1kwkTJnDlyhXy8/MB+Prrr41OpAyxsrLCx8eH2NhYZZlOp+Pq1av4+fnh5ubG5s2bO923srKSiRMnAnDixAlleUVFBXAjAQTw9fVl+vTpTJo0SdlGo9EwcuRIvvzyS9zc3MjLy1PWtcVpTP2MTfS64+TkxNy5cxkzZgwajQZb2xtdUK1WU1JS0qOyja1/V+3XlshcvnyZoKCg23Z8IYQQdw9JpG4SEhKCjY0Nn3zyCQDu7u4MGTKE/v37U1NT02F7Kysro8u2tbXFzs6Oa9eu6S2vr69HpVKRnp5OZGRkp/s2NjYqr69fv668brvlZW1tjZOTEwBbtmzh+PHjevvX1NQozx613799uYbqZwkJCQmoVCri4uIoLy9HrVazb98+iwwzYWz9u2q/u/34Qgghbj1JpNpxcHAgMDCQTz/9lH/84x/K8vXr1xMcHMyBAweoq6tTnieCG4nWzdqSk5u/HBsbG7l48SJDhgxRljk5OeHq6kppaSk1NTXk5OSYXf+Kigrq6upobm7u9JaYtbU1DQ0N+Pr6KolW+2eMDNXPUHyGODo6Mm7cOMLCwvjuu+8AGDNmTIftzC3f2Pob0qdPH+bOnQvAtm3baG5uvqXHF0IIcfeQ/wa38+STT+Lo6EhCQgJJSUnKv+zsbEJCQgA4c+YMTzzxBGq1Gltb206vINXW1lJTU0NwcLBy66pNSkoKERERuLi4ALBgwQKqq6vRarU9rn9rayt79uxh/vz5DB48GLhxlSQkJARvb29aWlo4cOAAr7zyCp6engwcOLBD/Y2pX3fxdaehoYG6ujpGjx4N3Bgv6ve//32H7cwt39j6G9K3b1+ioqKIioq6LccXQghx95BEqp2QkBAKCwuprKzUW56RkcH48eOxs7MjMTGRpqYmcnNzycvLQ6fTdVrWihUrmDVrFidPnuTcuXPKF/LmzZu5dOkSubm5FBQUEB4ezpIlS6ivr7dIDDExMeh0OjIzM8nJyUGn07Fy5Urs7OyAG1fXysvLycrK4i9/+Qt//etfgf+7CmRs/bqKb9q0aRQXF1NcXIybmxuxsbEUFxeTkpJCS0sLq1at4o033iA7O5vs7GzS09NNar/uyr8V7WvI7T6+EEKIW8uq9aeHNDw8PJQvW9E9W1tbhgwZwo8//sjly5fNKsPT0xOVSsXp06f1nlOyFLVajYeHB9XV1ZSXl3dYb2trS1NTE+PHjychIYERI0bcsvqpVCo8PT0pLS3ttQese7t97/TjCyGEuDUkkbrHDB8+HC8vL3JyclCpVMTExHDmzBmWLl16u6smhBBC3HXkYfN7jL29Pa+99hpDhgyhtraWtLQ03nnnndtdLSGEEOKuJFekhBBCCCHMJA+bCyGEEEKYSRIpIYQQQggzSSIlhBBCCGEmedj8JgMGDFCmWrl27Rrl5eVGj2x9uw0cOLDbqVzOnDlj0iS8CxcuJDU1VW9uuFvN3d2d//iP/2DdunXU1dUZ3N6S5+9OiF8IIcSdTRKpm6xcuZJnn32WlpYWrK2taWpq4uOPP2bNmjUWS6icnZ356KOPWLBgAefPn7dImQDR0dE888wzXa5/5JFHTBr3KiIigjNnzpicSFgyPhcXFyIiIoiNjTUqkbLk+TM3fiGEEPcOSaQ6kZGRQUREBHZ2djzzzDPExcVx9uxZdu7caZHy7ezs8Pf3x9HR0SLltWk/3ct//ud/MnPmTMaOHWt2eQEBATQ1NZm8X2/FZyxLnT9z4xdCCHHvkESqG42NjaSkpDB79mwCAgKUL+LQ0FCmTZuGSqXi6NGjxMfHU1tbq+w3ZcoUBg4cyNGjR3n55Zfp378/hw8fZv/+/Sxfvhx7e3sAXnvtNS5dugTA0qVLldtuKpWKN998E4Bly5ZZ7Mt89erV7N27l8LCwg7r3nzzTfbt20dhYSGLFy9Go9EAkJiYSEFBgd62U6ZMYerUqbi4uFBWVkZiYiJZWVmo1Wqj4gsICCAiIgKNRsOJEyfYsmULVVVVwI2JiiMjI5k4cSKVlZV89tlnZsfb2fl76KGHCA8Px8/PD1tbW/Ly8ti6dSs1NTXKfsbE39n53bFjh9l1FUIIcXeSh82N0K9fP65duwbcSKI2btyIVqtl9+7dBAUFsXXrVr3t/f39CQ8PJzY2loKCAlJSUnjwwQe5fv06Wq2W3NxcAPLz89FqtWi1Wn4azgsABwcHwsPDCQ8Px8bGxmJxDB8+nODg4A7L3d3dmTt3rpL06HQ6CgoKCA0NZejQoXrbBgYGEhMTQ0ZGBnFxcRw7doyHH34YwKj4goKC2LVrFzqdju3bt+Pm5kZSUhIODg4AzJs3j/nz57N//36ysrJYvXp1j+Nuf/7Gjx9PS0sLiYmJ7Nixg9GjR3e4UtVd/ND1+RVCCHHvkStSnXB2dmbUqFH06dOHyZMnM3LkSLZs2QLAyy+/zM6dO3n//fcBOHnyJIcPH2bkyJH885//VMrw8fFhwoQJnD17Vq/spKQkXF1dWbt2LWlpaRQVFXU4flNTE6dPnwYw6eFwQ3Jychg9ejQA3t7eeHt78+WXX+Lv788PP/zADz/8AKBMALxkyZIOZfj7+3Py5El2794NwJEjR5R19fX1BuNbsWIF8fHxxMXFAZCamkpaWhphYWHs3buXl156idjYWBITE4EbV+eWL19uUpzdnb+289amqKiII0eO4OXlRUlJicH423R1foUQQtxbJJHqxNGVXXQAACAASURBVKhRo9i9ezcNDQ2UlJSwYMECDh8+jJWVFT4+PsTGxirb6nQ6rl69ip+fn14iVVRUZPaX7OXLlwkKCuppGB3k5OQwa9YsAF566SWee+45/P398ff3Jycnx6gytFotixYt4oMPPiAzMxOtVktxcbFR+zo5OeHr68v06dOZNGmSslyj0TBy5EhSU1PRaDR89913yrr2r43V1flrq8PcuXMZM2YMGo0GW9sbbwG1Wq0kUsboyfkVQgjx8yGJVCf+9re/ERER0WG5ra0tdnZ2ym2iNvX19R2GHaisrOzVOprj6NGjuLq6MnjwYB577DG++uorfvGLX+Dv78/nn39uVBk5OTlMmTKFsLAwZsyYQXR0NLGxsWzevNngvm3DEmzZsoXjx4/rraupqaFPnz4Aeu17c1sbo6vzB5CQkIBKpSIuLo7y8nLUajX79u3D2tq0u9x34vkVQghx60kiZYLGxkYuXrzIkCFDlGVOTk64urpSWlpqUjlAl1/effr0Ye7cuQBs27bNYsMuXL16FZ1Ox/Tp0ykpKeGvf/0rwcHBPPLII8rD7cYoLCxUHliPjIxk0aJFeolUV/FVVFRQV1dHc3Nzp7c0bW1taWpqwtPTUynfy8vL5Di74ujoyLhx4wgLC1OudI0ZM8Zi5QshhLj3yMPmJkpJSSEiIgIXFxcAFixYQHV1NVqt1ugyamtrqampITg4WLm11F7fvn2JiooiKiqq0/U9kZOTw0svvcRXX31FZmYmv/rVr7pMbDozduxYvURSrVZz4cIFvW26iq+1tZU9e/Ywf/58Bg8eDNxInkJCQvD29qapqYkvvviCOXPmYG9vr5dQWkJDQwN1dXXKc2LOzs78/ve/t1j5Qggh7j2SSJlo8+bNXLp0idzcXAoKCggPD2fJkiXU19ebVM6KFSuYNWsWJ0+e5Ny5cxZPmLqSk5ODWq0mPT2dK1eucPLkSY4ePar8qm7atGkUFxdTXFyMm5sbsbGxFBcXKw9gjxgxgtTUVI4dO8bRo0eZPn06UVFRRscXExODTqcjMzOTnJwcdDodK1euxM7ODoB169bh4eFBfn4+x44dUx66t4SWlhZWrVrFG2+8QXZ2NtnZ2aSnp+ttYyh+IYQQoj2r1p++QT08PJQvM2GYp6cnKpWK06dPK7ey7hX29vZ4enrS3NzM999/b9atR7VajYeHB9XV1ZSXl+uts7a2xsfHh6qqKi5evGipaitUKhWenp6UlpZy5coVi5cvhBDi3iGJlBBCCCGEmeTWnhBCCCGEmSSREkIIIYQwkyRSQgghhBBmkkRKCCGEEMJMkkgJIYQQQphJRja/yYABA5SpTK5du0Z5ebny835ra2uGDRtGeXk5V69eVfYZOnQoNTU1ODo6YmVlpUz+28bZ2Rl3d3fOnj2rlNV2nDNnzigTE7eV39rayrVr17hw4QJNTU29EqetrS333Xcf1dXVZk3DIoQQQgi5ItXBypUrSUtLIzU1lb/97W8UFRXx1ltvYWNjg5OTE+np6Tz11FN6+yQnJ/PrX/+aJ598kiNHjuDh4aG3Pi4ujrVr1+qNt5SYmEh6ejqPPvqosqyt/LS0NLRaLQUFBURHRytz0FlCnz59iIiIICMjg+zsbIKDgy1WthBCCHGvkUSqExkZGXh7e/PAAw+wcOFC/u3f/q3LSXDb279/P4WFhSxevFhZFhAQwLhx41i9erWybNiwYQwdOpScnBxCQkI6lDNv3jx8fX3593//d8aPH897771nkbgAli9fzm9/+1s+/PBDi5UphBBC3KskkepGY2MjKSkp/P3vfycgIMDg9q2traxevZqpU6fy8MMPY2VlxfLly/n444/R6XTKdiEhIeTn53Pw4MFOE6m2Y2u1WlatWsW//Mu/4OPjo6xTqVRs2LCBDRs2mDy1zK5du3j66af5+OOPTdpPCCGEEB1JImWEfv366T1HNHz4cJ566inlX/sR4fPy8jh48CDLli0jNDSU+++/n5iYGL3ynnnmGTIyMjhy5Ag+Pj4MHTq0y2NrtVpaW1t57LHHlGUODg6Eh4cTHh6OjY2NSbGcOnWq1567EkIIIe418rB5J5ydnRk1ahR9+vRh8uTJjBw5ki1btijr58yZw29+8xvl7759++rtv379er766itGjx7Nxo0bqa6uVta5urry6KOP8s4771BSUsKZM2cICQnhgw8+6LQuDQ0NXLlyhfvuu09Z1tTUpEzm2/aguhBCCCFuPUmkOjFq1Ch2795NQ0MDJSUlLFiwgMOHD9OvXz8AoqKiOHz4sLL9d999p7d/RUUFiYmJTJ06lT179uitmzBhAleuXCE/Px+Ar7/+uttECm78mu+nKREBuHz5MkFBQT2OUwghhBA9I4lUJ/72t78Z9XB5d2pra6mvr+9wGy0kJAQbGxs++eQTANzd3RkyZAj9+/fv9OqSSqVCpVJRVlbWo/oIIYQQwvIkkbqFHBwcCAwM5NNPP+Uf//iHsnz9+vUEBwfz5ZdfdtgnKCiIlpYWvvnmG2VZnz59mDt3LgDbtm3TG1ZBCCGEELeOJFK30JNPPomjoyMJCQlUVlYqy8PCwggJCVESKY1Gg6+vL7/4xS9YunQpH330kd4gn3379iUqKgqA7du3m5RI2dnZcf/992Nvbw/cGBjUx8eHyspKLl26ZIkwhRBCiHuGJFK3UEhICIWFhXpJFNwYt2rx4sXKr//WrVtHQ0MDp0+fJj4+np07d1qsDt7e3nzxxRfK323jW61Zs4bt27db7DhCCCHEvcCq9aenmD08PPR+xi+EEEIIIbon40gJIYQQQphJEikhhBBCCDNJIiWEEEIIYSZJpIQQQgghzCSJlBBCCCGEmSSREkIIIYQwk4wj1c7AgQNRqVRdrj9z5szPapLghQsXkpqayokTJ253Vcxyt9e/M2PGjGHmzJkA1NTUEB0dfZtrJIQQojtyRaqd6Oho0tPTu/zn5OR0u6toUREREfj6+t7uapjN3Po7OzuTnJzM/fff3wu16pmKigqysrKor6/n2Wefvd3VEUIIYYBckWonMjJSef2f//mfzJw5k7Fjx97GGvWugICADpMq303Mrb+dnR3+/v44Ojr2Qq165vz585w/fx64MRK+EEKIO5skUmaYMmUKAwcO5OjRo7z88sv079+fw4cPs2PHDh566CHCw8Px8/PD1taWvLw8tm7dSk1NDQCzZ8+mtrYWtVrNlClTqKys5N133+Xs2bN65U+dOhUXFxfKyspITEwkKytLWe/k5MRLL73E448/TmtrK7m5uWzbto0rV64ANxKMiIgINBoNJ06cYMuWLVRVVSn7L168GI1GA0BiYiIFBQUADB48mAULFrBmzRquXr2qbP/iiy9y6dIlkpKSjCq/u/YBUKlUvPnmmwAsW7bM5GSoq/obal+1Ws3y5cuVeQZfe+01ZX7BpUuXKrdtexKfofNrqH8IIYS4u8itPTP4+/sTHh5ObGwsBQUFpKSk8OCDDwIwfvx4WlpaSExMZMeOHYwePVpvrrynnnqKlStXMnz4cD7++GMGDBhAfHy8sj4wMJCYmBgyMjKIi4vj2LFjPPzww8p6a2trPvnkEyZPnsyf//xnPvnkE4YNG8YDDzwAQFBQELt27UKn07F9+3bc3NxISkrCwcFBKUOn01FQUEBoaChDhw5VlpeXlzNx4kQmTZqkLHNwcOD1119XkjRjyu+ufdrKDA8PJzw8HBsbG5Pbv6v6G2rf69evo9Vqyc3NBSA/Px+tVotWq+WnmZJ6HJ+h82uofwghhLi7yBUpM/n4+DBhwgS9K0kA77//vt7fRUVFHDlyBC8vL0pKSgAoKytj2bJlAJSUlJCcnIyTkxNXrlzB39+fkydPsnv3bgCOHDmiV15oaCi+vr489dRTylWSzz77DCsrKwBWrFhBfHw8cXFxAKSmppKWlkZYWBh79+4FICUlBYAlS5bold3c3MyhQ4cIDQ3lwIEDAEyYMIHGxkalHsaU3137ADQ1NXH69GkAsx7e76r+bbpr36SkJFxdXVm7di1paWkUFRXp7WuJ+Lo7vjH9QwghxN1DEikzFRUVdfol6uTkxNy5cxkzZgwajQZb2xtNrFarlS/K9r8yq6ioAMDV1ZUrV66g1WpZtGgRH3zwAZmZmWi1WoqLi5XtR48ezbFjx/RuNQG0trbi5OSEr68v06dP17uqpNFoGDlypF4i0JXk5GQOHDiAi4sL1dXVPP/886SkpNDY2GhS+V21D8Dly5cJCgoyWBdzdde+3bFUfN0d35j+IYQQ4u4hiZSZKisrO12ekJCASqUiLi6O8vJy1Go1+/btw9r6/+6iXr9+XXnddkupbX1OTg5TpkwhLCyMGTNmEB0dTWxsLJs3bwZuPF9UV1fX6bHbflW4ZcsWjh8/rrfO2Gdw8vPzKSkpYfLkyRw8eJDg4GBmz55tcvldtc+t0F37dsdS8XV3fGP6hxBCiLuHJFIW5OjoyLhx4wgLC+O7774DbowLZKrCwkIKCwuBG78kXLRokZJInT17lhkzZmBlZaV8SbepqKigrq6O5ubmDresTJGcnMzzzz9PQ0MDFy9eJCcnx6Ll9+nTh7lz5wKwbds2mpubzS7LHI2NjUDH5MpS8XXFlP5RX1+vPBQvhBDiziX/DbaghoYG6urqGD16NHBjvKLf//73JpUxduxYhgwZovytVqu5cOGC8vef//xn3N3dWbRokZIIjBkzhvvvv5/W1lb27NnD/PnzGTx4MAC2traEhITg7e1tdB2Sk5MZO3Ysc+bMITk5WUnYLFV+3759iYqKIioqSrm1dSvV1tZSU1NDcHCw3vEtFV9XTOkfhYWF9O/fnwkTJqBSqbCzs+vx8YUQQlieJFIW1NLSwqpVq3jjjTfIzs4mOzub9PR0k8oYMWIEqampHDt2jKNHjzJ9+nSioqKU9eXl5bz66qvMmjWL48ePU1BQQEJCgpJUxcTEoNPpyMzMJCcnB51Ox8qVK5Uv4mnTplFcXExxcTFubm7ExsZSXFysPMANN656FRQU8Mgjj3Dw4EG9+hkqv7cZU39jrFixglmzZnHy5EnOnTunJFS9GZ8p/ePcuXNER0fz7rvvcuLECVatWtXj4wshhLA8q9afLjd4eHjI/3otRKVS4enpSWlpqcEHnDtjb2+Pp6cnzc3NfP/9953e+rK2tlZ++n/+/PkOYzGp1Wo8PDyorq6mvLzcrDi609vl3269GV9P+4cQQog7hyRSQgghhBBmklt7QgghhBBmkkRKCCGEEMJMkkgJIYQQQphJEikhhBBCCDNJIiVuG41Gw0MPPXS7q9HBsGHD8PLyut3VEEIIcReQkc3b0Wg02NvbU1FRoUym27dvX9RqNZcvX6a+vp5hw4bR2trKtWvXuHDhQodhB9zd3XF2du5Q9qlTpwwe39nZGXd3d86dO6dXrouLCy4uLspEv7dKSEgIY8aMwdHRkW3btvH999+btN6Qd999l8zMTGUU9zuFh4cHa9euZeLEiR3OrxBCCNGeXJFqJyEhgezsbMaNG6cse+utt8jOzmbmzJk4OTmRnp5OWloaWq2WgoICoqOj6dOnj7L98uXLSU9P7/DPGPb29iQlJfHiiy8qy2z+f3t3Hld1lT9+/AVc1gsiXAVFXABznxIRlRl3Un+GqWmKpkNq2WiuoeXulEtqJioyWjlqkZZoAWrUGOO4wEQTLsikIKYhKIKxiGwiF/j94fD5cmW7F8n1/Xw8enT5nM/ZPvc+5M05555jYsKXX37J9OnTG6yf+hg2bBibNm2ipKSE69evK8eq6JteFw8PD7p168aePXsastnA3YA0PDycVq1a1Sv/v//9b27duoWvr28Dt0wIIcSTRgKpe/z6668MGzYMAFNTUwYMGEBaWprOPdOmTaNt27a89tpr9OvXj82bNytpc+bMoXXr1mzatIlr167RunVrnSNfapOVlcUHH3zA3Llz0Wg0AEyYMAEHBwdWrVrVQD3Uj5eXF5GRkaxfv56tW7eSkZFhUHpdXn31VQ4dOqRzwG9DMTU1xd3dHUtLy3qXERoayp///OcGbJUQQognkUzt3ePIkSMMGzYMU1NT+vfvz+nTp3FxcalyX0lJCTExMSxfvpzPPvsMNzc3vabv6vLFF1/w8ssvs2DBAtauXcv8+fNZunQpubm5yj1qtZq//vWvACxevNjg6acRI0YwatQo1Go1p06dIigoiLy8PAAmTpzIs88+S69evSgtLeWDDz4AICgoiJSUlDrT9WFiYoK3tzf+/v5V0jp27Iivry/t2rVDpVJx5swZtm3bxs2bNwF45ZVXyMvL49ChQwA0atSIhQsXsmHDBrRaLUuWLFEO+/X391ee28KFC5Xp2tr6XyEqKor33nsPZ2dng6cshRBCPD1kROoeRUVFxMbG0r9/f1588UXlF3ZNYmJiKC8vp0ePHg1Sf1lZGYsXL2b06NFs3bqVM2fOcPDgQZ17zM3N8fX1xdfXFxMTE4PKHzFiBB9++CExMTEEBwczYMAAtm3bpqQnJSURExNDZmYmN27cICYmhpiYGOUok7rS9fHMM89gbW3NuXPnqqT169ePsrIy9u7dy86dO+natSu7du1S0vv27avzrNVqNRMmTMDGxoY7d+4QExPDyZMnATh79qzSvoqDl+vqf4XLly9TVFSEh4eH3v0SQgjx9JERqWocOnSIMWPG0L17dxYuXMjs2bNrvLe4uJj8/HyaNm3aYPWfP3+eiIgIRowYwfPPP18lXavVKgvPK0ZZ9DV9+nR27drFRx99BNwNjA4fPkyXLl34+eef+emnnwDo378/xcXFhIWF6eSvK10fDg4OAOTk5FRJq2hXhQsXLnDs2DFatmxJampqreUWFRURFhaGvb09q1ev5siRI1y4cEHnnrr6X6G8vJzs7OwGfV+FEEI8eSSQqsaxY8cICAjg2LFjFBYW1nm/sbGxMuJRm/79+7Np06Zq0zIzM5WgycHBgYEDB5KVlcWoUaNYt26dzr23bt1iwIABevREl5GREW5ubmzcuFG5lpiYSEFBAe3atdMJJH5PtT0ra2trpkyZgqenJxqNBpXq7kfU1ta2zkCqLob238jISK/3VQghxNNLAqlqFBcXM3PmTL3WxqjVatRqNdevX6/z3ri4OKZOnVptWuVvvb333nucP3+eNWvWsG/fPvbv398gWx+oVCpMTU25ffu2zvWioiLUavV9l6+vimfVtGlTCgoKdNK2bt2KWq1my5YtpKenY2try759+zA2rn4W2sjISO96Dem/sbExGo2G9PR0vcsXQgjx9JFAqgZHjx7V674BAwZQVlbGDz/8UOe9N2/eJDY2ttZ7vL29GTx4MP/v//0/Ll68yLfffsuqVat45ZVXlHssLCyYMmUKAB9//DGlpaV6tbWkpISsrCydbxFaW1tjb2/PtWvX9CqjIVy6dImbN2/SpUsXkpOTleuWlpb07duXkSNHEhcXB4Cnp6dO3sLCQp3tJiqmCSurCErvDb4M6X/79u0xNzfn9OnT9eukEEKIp4IsNq8HjUZD27Zt8fX1ZeXKlXz++efKFgkODg64ublhb2+PSqXCzc0NNzc3vcpVq9WsWrWKTz75hIsXLwKwdu1aunXrxosvvqjcZ2VlxYIFC1iwYIEy9aWviIgI/Pz8sLOzA2D27Nnk5OQQExNjUDn3o7y8nMOHD9OvXz+d68XFxRQWFtK1a1fg7n5Q8+fP17nn119/5Y9//CO2traoVKpqR/jy8vK4efMmAwcOrPJ89O1/3759iYuL02ukUQghxNNLAql6WLNmDd9++y2TJ08mKCiId999V0mr2JDTz88PR0dHgzbknDdvHuXl5QQGBirXrl+/zieffMKyZcsaZPpt06ZN5ObmcvLkSeLj4/H19eXtt9+mqKjovss2xK5duxg6dKhOn8rKyli+fDmLFi3ixx9/5Mcff6zy7Pbu3YtWq+XkyZOcOXOGxMTEastfunQp48ePJykpiStXrigBlb79f/nll/nss88auNdCCCGeNEbl/1tN6+TkhKmp6cNuj3hAnJ2dUavVXL582eBdyRtKYGAgSUlJBAUF6VxXq9U4Oztz7dq1ardVUKlUtG7dmt9++41bt27Vq+7a+j948GD8/f154YUXDP5WpBBCiKeLBFLioVGr1dja2lbZOf5ha9q0KVqtttrtGYQQQojKJJASQgghhKgnWSMlhBBCCFFPOl9punLlysNqhxBCCCHEY0dGpIQQQggh6kkCKSGEEEKIepJAqhparZb4+HiOHj1KUlKSnLf2P5cvX652O4K60io7ffo0H374YUM37anx5Zdf8t133z3sZgghhPgfCaTucfHiRQYNGsSkSZNYu3Ytw4cPZ9iwYQ+7WQbJy8tj5MiRpKSkNGi5Y8eOJTQ0tMr14uJiBgwYoNdxKklJSezfv79B2/U0+de//sVPP/30sJshhBDif+SsvXvMnz8fd3d3PvjgA1QqFXfu3CEyMvJhN8sgJSUlnDlzpsF3K3d1da32TL6Ka66urg1anxBCCPGok0CqkoopvTlz5ihHipiZmeHj46Pc88UXX2BjY6OcfXfr1i3Wrl3LvHnz0Gg0fPrpp9jZ2ZGUlMSPP/6Ii4sL8+bNo3nz5gB1pgMcOHCA0NBQCgoK8PDwYObMmdjY2CjpERERpKen4+HhwbZt27h58yZDhgxh9OjRrF69mjt37gAQEBCAra0tcPfMvopDfCMiIggLCyMnJ4fmzZszbtw4evfuXefzcXFxUTbPjI+PJyUlhWHDhpGWloa5uTlOTk4kJCQQEhJCUlISWq0Wd3d3pk+fTuPGjastMyMjg82bNzNq1Ci6d+8OQExMDMHBwWRlZdGpUydmz56Nvb29Hu9g3c9v9+7d2NjYkJubS0REBE2aNOHtt9+mTZs2Sv6CggLee+89AN5//32DzjOs6/2t7fOTk5PD/v37MTU15dy5c8ybN4+dO3eSn5/PmjVr0Gg0wN3P6YcffkhMTAytWrVi/vz5tGjRArh7juH27duJjIykSZMm+Pn5cejQIZYuXYqVlZXe/RBCCKEfmdqrRKVS0bRpU3bv3s2NGzeqvefEiRM6UysFBQXs2bOHvLw8AI4fP86iRYvIysri9ddfJzU1lVdffVVZZ1VX+oEDB5g/fz5eXl74+flx9OhRpk+frtOGM2fOEBISwltvvcWzzz6Lj48PFy5cwMzMDC8vLyUgee655/Dy8sLLywsjIyMAoqKi8Pf3p2/fvsyaNYtu3bpx/vx5vZ5P5RGpDRs2MGPGDLKyskhLS6N169YYGxtz/PhxjI2NGTduHFOmTCEuLo7JkydXW15aWhpjxozBxsZGafPRo0eZNGkSHTp04LXXXiMzM5OXXnqJ4uJivdpY1/OLjo5m5cqVJCYmMmHCBDIyMpg5c6ZOGcXFxYSEhBASEkJpaale9Vao6/2t7fOTnp7ORx99RKtWrSgtLeXll1+mX79+5OTksGPHDiXPV199RUZGBq+//joZGRlMnDhRaefHH39MYGAgI0aMoH///sybN489e/Zw+/Ztg/ohhBBCPzIidY8PPviAOXPm0LNnTzp06MCQIUOYPHmyMrKjjxYtWrB27VoAevToQY8ePYiKiqJv3751pm/bto3Jkyczbdo0ANq1a8eQIUP4+eef6dKli1LHpUuXOHLkiM5ICsBLL71EdnY2S5Yswdvbm/bt2+uknzlzhnbt2uHn5wdA//799e7XvSNSnp6enDlzhmvXruHi4gKgtLtC+/bt6d+/P6mpqbRs2VK5npyczPjx4xk3bhxz5sxRrq9atYqZM2cya9YsAAYNGoS3tzfh4eH4+vrW2UZ9nl/z5s15//33AWjZsiUjR44kPz8fa2tr4G5AXTFNWTGKZ4i63v/a2NvbM3bsWMrLy7l69SojRozg+vXrxMXFKfc0a9aM9evXA9CrVy88PT05cuQIgwcPZvv27fj7+zNx4kQA8vPzWbFihcF9EEIIoR8JpO7Rv39//vOf/3DixAmio6P57LPPCA0N5R//+IfeUyPu7u7Ka41GQ6tWrbhw4YLyi7Sm9D59+nDp0iXeeustJb1Dhw6o1WqSkpJ0Aqn27dtXCaL04eXlxaZNm5g6dSp9+vTBy8uLZ555Rq+8bm5u3Lhxg0uXLmFvb4+3tzdxcXFkZGTg5uYG3P3FvXPnTmJjY8nKykKr1QKQm5urBFJ5eXmMHTsWgDfeeEMpPz8/n19++YWvv/6aw4cPK9ezsrL4+eefcXR0ZO7cudW2rUmTJkRGRur1/Dp16qSkOzo6ApCdna0EUo0aNeLo0aN6PZPq1PX+18bS0hIACwsL5fNmaWmps96tW7duyms7OzvatGlDUlISHh4eZGZm6tT/3HPP1bsfQggh6iaBVDUsLCwYPHgwgwcP5s0336RPnz58//33jBw5ssq91W2NYGFhofOzubm5zi/CmtK1Wi0lJSVV0i0tLSkoKNC51qRJE4P7BeDp6UlERATh4eHs37+fZcuW8dZbb9UYoFTWunVrAL777js8PDzw8PBg8+bNlJeX4+npCcCbb75JQUEBs2bNolmzZuTm5jJ27FjKysqUcoqKili4cCHBwcEsX75cGV2p2D5h9uzZdO7cWafuxo0bY25uzvbt26ttm6mpqd7Pz8zMTHldMeVZuX33q673v7KattaoaFd1991bvoWFBbdv31bWxlXun5yfKYQQvy8JpOrQrFkz7OzslF/yVlZWOutNqltLlZqaqrwuLS3l+vXrOovJa0o3NTVFo9HoHNWTn59Pdna2sphYHxW/PGsKDjp27EjHjh0B2L59O5s2bdIrkFKpVDg7O/Ptt98yadIknnvuORISErCxscHV1ZWioiJOnDhBeHg4Xbt2BSA2NrZKOQ4ODvj5+eHp6cnw4cPp06cPw4cPx9HRESsrK0xMTKpMSVaoCNhq0hDP2UYaIgAAIABJREFU7/bt2+zcuROAv/zlL5iYmOidF2p///X5/BhSfllZGWlpaTg5OeHo6Ii5uTm//PKLEogmJycbXL4QQgj9yWLze7z33nskJCRQWlpKaWkpu3fv5rfffsPDwwO4u07ohx9+IDc3F61WW+0ISVRUFPHx8QDs3buX4uJivL299Ur38fEhODiYnJwcAAIDA7Gzs8PLy0vvPtjY2NC4cWP+9a9/KVNrFf7zn//oBBq5ubk4ODjoXbaLiwvnzp2je/fumJub06pVK5KTk3FxccHc3BwrKytlPU9eXl6tm2927NiRhQsXsmjRIlJTUzEyMmLixIn87W9/Uxa1a7VaIiMjuXz5sl7ta4jnV1hYyLp161i3bl2V56eP2t5ffT4/dfn3v/+tPOP9+/eTl5fHoEGDMDY2ZtSoUWzdupWrV6+Snp5er/KFEELoT0ak7pGenq6zAadarWb16tXKCM64ceP46quv6N69OxYWFrzxxht88803OmX07t2b1157Da1WS35+PqtXr9b5+n5t6XPnzlUCFbVajZGREQEBAcraGX2tWrWKdevWsWHDBkpLS7l06RIqlYpz587x5z//GWtra4yMjDAzM2Pz5s16l+vm5sbZs2eVxdjdu3fn0qVLylfzV6xYwZIlS/joo4/Iy8tj9uzZ/PjjjzWWN2XKFE6cOMHMmTP5+uuv8ff3JyMjgz59+qDRaMjJycHJyUnvgKChnt/9qO391efzo0/506ZNo7i4mLy8PFasWEHTpk0BWLhwIXPmzKF3797Y29vz2muv8d///lem+IQQ4ndiVP6/xRdOTk7KN7KedkVFRVy/fh0TExNatGhRZR8hrVbLlStXaNq0KY0aNdJJmzx5Mm5ubrzzzjtcvnyZFi1a6OwBVVd6hatXr1JQUICrq2uD/xK8c+cOV69excTEBGdnZ4OnrupSUFDA1atXadGihbKA21C5ubmkpaVhZ2dHs2bNDM7/ez6/2ujz/tb2+dFXSUkJly9fpnnz5tWWodVqUalUHD9+nDfffJNz587Vqx4hhBC1kxGpalhaWta6S7dKpVK+pVYTMzMzOnToUO90Z2fnuhtaT2ZmZr/rLuRqtbrGNU76srW1NWjLiXv9ns9PH7W9v/p8fupiampa7TNOTEwkNTUVT09PCgoK2Lp1q7L5pxBCiIYngVQDs7e3rzUAqCtdPN4e9vt7584dAgICuHLlCjY2Nnh7e7N48eKH1h4hhHjSydSeEEIIIUQ9ybf2hBBCCCHqSQIpIYQQQoh6kkBKCCGEEKKeJJCq5PLly8oO5oakVXb69OlaN6EUQgghxJNDAqlKxo4dS2hoaJXrxcXFDBgwgNOnT9dZRlJSEvv37/89mieEEEKIR4wEUpW4uroqR5NUVnHt99x7SQghhBCPH9lHqhIXFxdlC4j4+HhSUlIYNmwYaWlpmJub4+TkREJCAiEhISQlJaHVanF3d2f69Ok0bty42jIzMjLYvHkzo0aNonv37gDExMQQHBxMVlYWnTp1Yvbs2TpHyNTlwIEDhIaGUlBQgIeHBzNnzlR2z969ezc2Njbk5uYSERFBkyZNePvtt2nTpo2Sv6CggPfeew+A999/v8rO7bUpLy9n+/btREZG0qRJE/z8/Dh06BBLly7FyspK73KEEEKIJ4GMSFVSeURqw4YNzJgxg6ysLNLS0mjdujXGxsYcP34cY2Njxo0bx5QpU4iLi2Py5MnVlpeWlsaYMWOwsbFRgqijR48yadIkOnTowGuvvUZmZiYvvfQSxcXFerXxwIEDzJ8/Hy8vL/z8/Dh69CjTp09X0qOjo1m5ciWJiYlMmDCBjIwMZs6cqVNGcXExISEhhISEUFpaatAz+vjjjwkMDGTEiBH079+fefPmsWfPHm7fvm1QOUIIIcSTQEakKrl3RMrT05MzZ85w7do1XFxcAJg2bZpOnvbt29O/f39SU1Np2bKlcj05OZnx48czbtw45syZo1xftWoVM2fOZNasWQAMGjQIb29vwsPD8fX1rbON27ZtY/LkyUo72rVrx5AhQ/j555/p0qULAM2bN+f9998HoGXLlowcOZL8/Hzl3DuVSqVMUxobGxZLb9++HX9/fyZOnAhAfn4+K1asMKgMIYQQ4kkhgVQlbm5u3Lhxg0uXLmFvb4+3tzdxcXFkZGQoZ6Pl5+ezc+dOYmNjycrKQqvVAncP2a0IpPLy8hg7diwAb7zxhlJ+fn4+v/zyC19//TWHDx9WrmdlZfHzzz/j6OjI3Llzq21bkyZNiIyM5NKlS7z11lvK9Q4dOqBWq0lKSlICqU6dOinpjo6OAGRnZyuBVKNGjTh69KjBzycrK4vMzEzc3d2Va88995zB5QghhBBPCgmkKmndujUA3333HR4eHnh4eLB582bKy8vx9PQE4M0336SgoIBZs2bRrFkzcnNzGTt2LGVlZUo5RUVFLFy4kODgYJYvX8769esBlO0TZs+eTefOnXXqbty4Mebm5mzfvr3atpmamqLVaikpKcHCwkInzdLSkoKCAuVnMzMz5bWRkRGATvvq686dO1XKNzU1ve9yhRBCiMeVBFKVqFQqnJ2d+fbbb5k0aRLPPfccCQkJ2NjY4OrqSlFRESdOnCA8PJyuXbsCEBsbW6UcBwcH/Pz88PT0ZPjw4fTp04fhw4fj6OiIlZUVJiYmtG/fvto2VARsNdFoNFy5ckX5OT8/n+zsbFq0aKF3P2/fvs3OnTsB+Mtf/oKJiYle+RwdHTE3N+eXX35RAsHk5GS96xVCCCGeNLLY/B4uLi6cO3eO7t27Y25uTqtWrUhOTsbFxQVzc3OsrKyIi4sD7k7h1bb5ZseOHVm4cCGLFi0iNTUVIyMjJk6cyN/+9jdlUbtWqyUyMpLLly/r1T4fHx+Cg4PJyckBIDAwEDs7O7y8vPTuY2FhIevWrWPdunXK1KQ+jI2NGTVqFFu3buXq1aukp6fXOIImhBBCPA0kkLqHm5sbdnZ2ymLs7t2706hRIzQaDcbGxqxYsYI1a9bQq1cvevXqxcCBA2stb8qUKXTv3p2ZM2ei1Wrx9/enQ4cO9OnTB09PTzp06MDKlSspKSnRq31z587F1taW7t278+yzzxISEsL69euxtLS8777rY+HChTRr1ozevXvzwgsvMHToUECm+IQQQjydjMrLy8sBnJyclG+sidoVFBRw9epVWrRooSzgNlRubi5paWnY2dnRrFkzg/NfvXqVgoICXF1dH0oQo9VqUalUHD9+nDfffJNz58498DYIIYQQD5uskaoHtVpd4xonfdna2mJra1vv/M7OzvdVf30lJiaSmpqKp6cnBQUFbN26lRdffPGhtEUIIYR42CSQEga5c+cOAQEBXLlyBRsbG7y9vVm8ePHDbpYQQgjxUMjUnhBCCCFEPemMSFXsoySEEEIIIeom39oTQgghhKgnCaSEEOJ3oNFo6Nixo8H5XFxcdM7tFEI82mSxeQ1sbGyU3csTEhLIzMx8yC0SD4Knpyfjxo0D4ObNm6xcufKJrL9z5840atSI+Ph4neOFGir/45hubGysHE5+r/T0dIOf0/r164mKiiIhIcGg8p2cnFi9ejXPP/+8QRvmCiEeDp3F5rKp4l0TJkxg+fLlZGRkYGRkhJOTExMmTODHH3982E3Ti42NDZ9//jmzZ88mJSXlYTfnsdKqVSvlnMVBgwbRs2fPJ6p+CwsLPvvsMzp27EhBQQFWVlZMmTKFU6dONUj+xzm9UaNG/Pe//6223xMmTCA6Olrv5+zh4cGOHTvo0aOHckalIeUfPHiQkJAQ9uzZo3edQoiHQ6b27tGrVy9Wr17NggUL6Nu3L3369MHHx4fffvvtYTdNb6ampri7uz+w3c6fJCkpKYSFhekdWDxu9b/xxhu4uLjQr18/vLy8iI6OJiAgAGNj/f4pqCv/45x+69YtWrdurfPfO++8Q2ZmpsF/RL366qscOnRICaIAg8oPDQ3lz3/+s0F1CiEeDpnau8cbb7zBDz/8QHh4uHItMTFRef3KK6+Ql5fHoUOHgLt/ZS5cuJANGzaQlZUF3D0Pr1mzZpw6dYrp06fTuHFjDh8+rBwUXFe6l5cXfn5+aDQazp8/T2BgINnZ2QBMnDiRvLw8bG1t8fHxITMzk/Xr15OcnIytrS1LlizBzMwMAH9/f3Jzc4G7R7uUlZXV2ve2bdsyZswYSkpK6Ny5Mxs2bGDKlClYW1uzaNEipX+1ta+ify+99BJ2dnZcv36dvXv36vy1XVt6x44d8fX1pV27dqhUKs6cOcO2bdu4efMmAEZGRkydOpVBgwaRmZlJcHAwL774IqtWraKwsFCv9t2vmspv0aIFs2fPZsWKFTrTQJMmTSI3N5ewsLAGaZ9areavf/0rAIsXLzZo+ufFF18kNDSUnJwc1Go13bp1w8nJiWeffZaEhAQWL15MREQEP/30EwBWVlYsWrSI0NBQzpw5U2v+uLi4xz79XuPHjyc0NNSgZ2xiYoK3tzf+/v513ltT+VFRUbz33ns4Oztz9epVvesWQjx4MiJ1jx49ehATE1Njet++fenRo4fys1qtZsKECdjY2CjX3N3d8fX1ZePGjcTHxxMREaGzE3pt6QMGDODTTz8lMTGRHTt20KRJE8LCwjA3Nwegd+/eLFu2jA4dOrBnzx4cHR0JCgoC7m6WGRMTw8mTJwE4e/YsMTExxMTE8L8Z3Fo1a9aMadOmkZKSgomJCV999RXHjx/Hzs6O1157Ta/29enTh4CAAE6cOMGWLVs4ffo0nTp1UuqoK71fv36UlZWxd+9edu7cSdeuXdm1a5eS/pe//IXZs2dz4MABjh07xoYNG5gwYQIWFhZ6te9+1VZ+eno6zz//PEOGDFHuNzc355133iE/P7/B2mdubo6vry++vr6YmJjonU+lUuHm5qb8YTBv3jyOHz9OWVkZHTp0oLi4mISEBP72t7+h0WgAWLFiBe3atSM+Pr7O/I97+r3at2+Pu7s7+/bt0/sZAzzzzDNYW1vXeWxSbeVfvnyZoqIiPDw8DKpbCPHgyYhUJRYWFtjY2DTINJ6bmxve3t4kJycblL506VKCgoLYsmULAJGRkRw5coSRI0cSEhICwPXr15XdxFNTUwkPD8fa2pr8/HzCwsKwt7dn9erVHDlyhAsXLhjU7uzsbPbt24eRkRHOzs4cOHCA5s2bKwvv62qfu7s7SUlJBAcHA3Ds2DGd8utK/+ijj3R+vnDhAseOHaNly5akpqYydepUAgIC2L17NwDW1tYsX77coOd3P+oq/+DBg4wYMYLQ0FAAvL29KSkpUfrZEO3TarVcvnwZoM5RxspsbGwwMTEhNzeXLl26MHToUAYPHoyPjw+NGzcGYO/evfzxj39kw4YNhIWFMXDgQIYOHUppaSl2dna15q+r/Ec9/V7jx48nLi6Oixcv6v2MARwcHADIycmp9b7ayi8vLyc7O5umTZsaVLcQ4sGTQKqSilEbIyOj+y7rwoULNQZRNaVbW1vTtm1bRo8erTOqodFo6NKli/KL9vz580paRkYGAPb29sqox/0oKioC4Pbt28pUWVFREZaWlnq1LyYmhrlz57J9+3aioqKIiYnR+UVRV7q1tTVTpkzB09MTjUaDSnX3I2pra0thYSFNmjThzJkzyv1nz541+PnVlz7lh4eHExoaip2dHTk5OQwfPpyIiAhKSkoarH23bt1iwIABBre/4vNtaWnJ2rVreffdd8nLy6O0tFRnxHLRokV88803BAQEMGXKFOUzVlf+xz29MnNzc1566SXWr19f7+dcG33KNzIy0qssIcTDJYFUJcXFxeTk5NC8eXO989QUdNW1XUJ16dbW1gAEBgZWmRaoWCME6CxgrfiHVt/Fwvq69x9wIyMjvdoXGxuLj48PI0eOZMyYMaxcuZKNGzeyadMmvdK3bt2KWq1my5YtpKenY2try759+zA2NlbWflXuf0lJifJa3+dXX/qUf/bsWVJTUxk6dCgHDhxg4MCBTJw48YG0ry55eXlotVpmzJhBSkoKhw8fxsTEhEaNGums0dJqtRQXFwP/F1jrk/9xT69s6NChWFpacvDgQYOf8/Xr1wFo2rRpjVsm1FW+sbExGo2G9PR0g+sXQjxYEkjd44cffqB///4EBARUm15YWKisx4H/G8ZvCBkZGRQWFlJaWmrwlFxlFcFFQwdX+rYvISFB2Ttn6tSpzJ07VwmUaku3tLSkb9++jBw5Uln46+npqVN/cXExbdu2VQKRNm3aGNw+fRQVFSmBm6Hlh4eHM3z4cIqLi8nKyiI2Ntbg9lVXfwULCwumTJkCwMcff0xpaalefaqot1WrVkyaNAmAdu3aYWJiohPYrVixgsLCQlatWkVQUBBDhw4lKyurzvyPe3pl48eP5x//+Ae3bt3S69lWdunSJW7evEmXLl1qHJWuq/z27dtjbm7O6dOnDa5fCPFgyWLze2zbto3OnTszZ84cTE1NMTU1ZfDgwfzhD38A4Ndff+WPf/wjtra2qFQqpk6d2mB1l5eXs3v3bmbMmEGLFi2AuwuEBw0ahKurq97l5OXlcfPmTQYOHKhMjT2o9vXs2VPnzEZbW1tu3Lih/FxbenFxMYWFhcp6LBsbG+bPn6/cW1ZWRmhoKG+++SbOzs40a9ZM5/k31PODu8Fe48aN8fb2Rq1WY2pqqnf54eHh9OzZk8mTJxMeHq6M7hnSvurqr2BlZcWCBQtYsGCBwe9vxdota2trVCoVM2bMICEhQZkuHjlyJC+88AKzZs1i165dnDlzho0bNyojr3Xlf9zT4e7O4r169WL//v0GPdsK5eXlHD58mH79+lWbrk/5ffv2JS4uThndEkI8umRE6h7//e9/mTZtGqtXr2bWrFkYGRmRl5fHq6++CtxdjPvyyy9z8uRJbt++zSeffMKwYcMarP6AgAAcHR2JiooiKysLOzs70tLSDA7Yli5dyoIFC5g3bx4mJia4ubk1yC7JdbWvc+fOfP755+Tn51NeXs6dO3eYM2eOkr+29LKyMpYvX87q1auZNm0aNjY2BAYG0qtXLyX/2rVr2bx5M9HR0WRnZ7Njxw7+8Ic/KKNwDfX8rly5wsqVK1m/fj0ajYbg4GCWLVumV/nJycnEx8fTtWtXnUDQkPbVVP/9+vTTT+natSv//Oc/uX37Njdv3lRGt1xdXXn//fd5++23uXbtGgDvvPMO3333HTNnzmTLli215q+r/MchHe6OFqWlpfHvf/+73s95165d7N+/n3fffbfK9J4+5b/88sts27at3vULIR4c2dm8BsbGxsq0UUpKik4QolKpaN26Nb/99lu9hv71YWtri5OTEzk5OY/kOona2mdmZoazszOlpaVcvXq1ytRTXelqtRpnZ2euXbtW4wJ6lUqFVqulX79+bN26lc6dO+vdvoZwv+U/7Pe3WbNm2NjYcPnyZb2nBg3J/7inN4TAwECSkpKU7Un0NXjwYPz9/XnhhRcM+lamEOLhkEBKPFY6dOhAy5YtiY2NRa1WExAQwK+//srChQsfdtOE0KFWq7G1tSUtLc2gfE2bNkWr1da5fYIQ4tEgU3visWJmZoa/vz+tW7cmLy+PI0eO8P777z/sZglRRUFBQb0OhH6cjqMSQsiIlBBCCCFEvcm39oQQQggh6kkCKSGEEEKIepJASgghhBCiniSQEuIp5uDgwMqVK7GysnrYTWkQ48ePZ+jQob9b+Z6enmzYsIENGzbUua/XnDlz6NSpk0Hld+vWrcreY0KIR5sEUkI8xezs7PDz89M59uhxNnDgQHr06PG7lZ+RkUF0dDRFRUV1bsTr5+dH27ZtDSq/Xbt2jBkz5n6aKIR4wGT7AyGE0FNKSgopKSkADBo0qNZ7vby8GuQ0ASHEo00CKSGeIsbGxkydOpXnn3+ezMxMDh06VOUeHx8fmjVrxqlTp5g+fTqNGzfm8OHDHD58mNmzZ7NixQqd/ZEmTZpEbm4uYWFhddY/adIkcnJyaNeuHb169eLXX39lw4YNOmfK1VT/zp07ARgxYgSjRo1CrVZz6tQpgoKCyMvLU/KrVCrmz5+Pl5cXKSkpfPjhh8qRN3A3wPHz80Oj0XD+/HkCAwPJzs6u1/Oszrx589BoNMDdI6Xi4+OVtIkTJ5KXl4etrS0+Pj5kZmayfv36Gg83dnR0ZM6cOYSGhnLy5MkGa6MQouHI1J4QT5Fp06YxY8YMvv76a6Kjo3n33Xer3OPu7o6vry8bN24kPj6eiIgI2rdvT3p6Os8//zxDhgxR7jU3N+edd96p8Sife/Xr1481a9ag0Wj4+9//TsuWLfnss8+UQ5Frqx/uBlEffvghMTExBAcHM2DAgCpn0r388ss4Ojry97//HUdHR3bv3o2JiQkAAwYM4NNPPyUxMZEdO3bQpEkTwsLCMDc3N/RR1igxMZH4+HhGjBihHDNVoXfv3ixbtowOHTqwZ88eHB0dazxCxsnJif3795OXlydBlBCPMBmREuIp8vrrr7Nx40b27t0L3D3GZMmSJVXuc3Nzw9vbu8pIycGDBxkxYgShoaEAeHt7U1JSwrFjx/Ruw7Vr15QjfX766Sd++ukn+vTpw4kTJ+qsf/r06ezatYuPPvoIgKSkJA4fPkyXLl34+eefAUhPT+ftt98G4McffyQ2NhZvb2++//57li5dSlBQEFu2bAEgMjKSI0eOMHLkSEJCQvTuQ20iIiIAlDbc6/r16yxevBiA1NRUwsPDsba21glG27Rpw5dffsnevXvZvHlzg7RLCPH7kBEpIZ4S9vb2aDQa4uLilGuVX1d24cKFaqebwsPD6d27N3Z2dgAMHz6ciIgISkpK9G7HmTNnlNdZWVmkpKQoI0611W9kZISbmxunTp1SriUmJlJQUEC7du2Ua6dPn1Ze5+TkkJycTLt27bC2tqZt27aMHj2ab775hm+++YaDBw+i0Wjo0qWL3u2/X+fPn1deZ2RkAHffmwo2Njbs27cPExMTPvnkkwfWLiFE/ciIlBBPiYpv5t2+fVu5Vvl1ZZmZmdVeP3v2LKmpqQwdOpQDBw4wcOBAJk6caFA77q2zuLgYS0vLOutXqVSYmppWyV9UVIRara6x/Nu3b2NhYYG1tTUAgYGBnDt3TueemzdvGtSH+3Hnzh3l9f9O6MLY+P/+prW0tGTt2rX4+fmxYsWKGke2hBCPBgmkhHhK3LhxA61Wi7OzMwkJCQC0bNnS4HLCw8MZPnw4xcXFZGVlERsba1D+ynWamJjQvHlzncXmNSkpKSErK4vWrVsr16ytrbG3t9dZTF65fGNjY5ycnEhLSyMjI4PCwkJKS0u5cOGCQW2+V1FREWZmZvdVRk1u3LhBcHAwsbGxHDx4kKioKA4ePPi71CWEuH8ytSfEU0Kr1fL9998zefJkzMzMsLCwYMqUKQaXEx4eTs+ePZk8eTLh4eHKqIq++vTpw7PPPgvAuHHjMDc358iRI3rljYiIwM/PT5lanD17Njk5OcTExCj3/OlPf6Jr164AjBkzBhsbGyIjIykvL2f37t3MmDGDFi1aAHdHuQYNGoSrq6tBfUhISKBx48Z4e3ujVqt/lwPfExISWLt2LWvWrKlXwCuEeDBkREqIp8iaNWsIDg7m7NmzlJeXExERQffu3Q0qIzk5mfj4eLp27VqvXbijo6PZsWMHKpUKa2trlixZovf2A5s2baJz586cPHmSgoICysvL8ff3p6ioSKf8jz76CHNzc2xsbFi+fDm//fYbAAEBATg6OhIVFUVWVhZ2dnakpaUxdepUg/pw5coVVq5cyfr169FoNAQHB7Ns2TJGjRrFunXrADAzM2Pjxo1s2LCBpKQkfHx8DKoDYOfOnfTt25egoCBGjx4t+1IJ8QgyKv/fn5NOTk6/y19VQohHi7GxMW5ubmRnZ5OVlfVA6961axeXLl3igw8+wNXVlWvXrunsAaUvZ2dn1Go1ly9frnahu6mpKa6urly/fp1bt25VSbe1tcXJyYmcnBzS09Pr1RchhAAZkRLiqVNWVsbFixcfahvu3LlDYmJivfNfvXq11vSSkpJa10Hl5uaSm5tb7/qFEKKCrJESQjww2dnZEsAIIZ4oMrUnhBBCCFFPMiIlhBBCCFFPEkgJIYQQQtSTBFJCCCGEEPUkgdQ9NBqN3pvfzZkzh06dOhlUfrdu3eq1905NHBwcWLlyJVZWVg1W5qPkSe+fEEKIx5sEUveYOnUqwcHBet3r5+dH27ZtDSq/Xbt2jBkzpj5Nq5adnR1+fn7KOWr6sLGxITw8nFatWjVYO36v8uvTPyGEEOJBkX2k7oOXl9djudOwqakp7u7uVQ6KfVzKF0IIIR4VEkjVw7x589BoNADs3buX+Ph4JW3ixInk5eVha2uLj48PmZmZrF+/nuTk5GrLcnR0ZM6cOYSGhnLy5Mk66zY2Nmbq1Kk8//zzZGZmcujQoSr3eHl54efnh0aj4fz58wQGBpKdnY2trS1LlixRDlv19/dX9vRZuHAhZWVlteavYG1tzeuvv06vXr0oLy/n5MmTfPzxx5iYmNx3+fr0T61W89e//hWAxYsX6x3MNmvWDH9/f9atW6ezo/eoUaOwt7fn73//u1799/Hx4aWXXsLOzo7r16+zd+9eoqOj9WqDEEKIJ4tM7dVDYmIi8fHxjBgxgjZt2uik9e7dm2XLltGhQwf27NmDo6MjQUFB1Zbj5OTE/v37ycvL0yuIApg2bRozZszg66+/Jjo6mnfffVcnfcCAAXz66ackJiayY8cOmjRpQlhYGObm5ty5c4eYmBilrrNnzxITE0NMTIxy8Gxt+eFuoPPFF18wdOhQvvrqK7744gtcXFx45plnGqT8uvoHYG5ujq+vL76+vpiYmOj13AAyMjLo2bMno0aNUq4ZGxvzzjvvcPv2bb3a16dPHwICAjhx4gRbtmzh9OnTBq+TE0II8eSQEal6iIiyRQ5pAAAF3ElEQVSIAODtt9+uNv369essXrwYgNTUVMLDw7G2tiY/P1+5p02bNnz55Zfs3buXzZs3613366+/zsaNG9m7dy9wd3RmyZIlSvrSpUsJCgpiy5YtAERGRnLkyBFGjhxJSEgIYWFh2Nvbs3r1ao4cOVLlGI268o8YMYK2bdvSu3dvZZTm0KFDGBkZUV5eft/l19U/AK1Wy+XLlwGUUS59lJeXs3fvXsaOHcv27dsB+NOf/kTjxo0JDw/Xq33u7u4kJSUp6+iOHTumd/1CCCGePBJI/Q7Onz+vvM7IyADA3t5eCaRsbGzYt28fAJ988one5drb26PRaIiLi1OuVX5tbW1N27ZtGT16NEOGDFGuazQaunTpQkhISK3l65O/a9eunD59WmeqC1BGnO6n/MjIyFr7V+HWrVsMGDCgzvqqs3//fubPn0/Xrl2Ji4tjzJgxREREkJ+fr1f/Y2JimDt3Ltu3bycqKoqYmJiHfm6dEEKIh0cCqd/BnTt3lNcVAYax8f/NolpaWrJ27Vr8/PxYsWJFjSNb96r45lrFNNS9r62trQEIDAzk3LlzOnlv3rxZZ/n65Fer1RQWFurVXkPLr6t/DSEzM5N//vOfjB07ll9++YUhQ4YwceJEvdoHEBsbi4+PDyNHjmTMmDGsXLmSjRs3smnTpgZtpxBCiMeDBFIPwY0bNwgODiY2NpaDBw8SFRXFwYMH9cqn1WpxdnYmISEBQGfPq4yMDAoLCyktLa0ypVZZSUkJoBvc6Zs/OTmZMWPGKFN5DVm+SqWqtX8VLCwsmDJlCgAff/wxpaWlNfa1Ol9++SVBQUEkJSWRlpZGbGysXu2rkJCQoLRv6tSpzJ07VwIpIYR4Ssli82qYmpri5uam85+Tk1OD15OQkMDatWtZs2aNXpuAarVavv/+eyZPnoyZmZlOQAF3R792797NjBkzaNGiBXA3OBk0aBCurq7KfXl5edy8eZOBAweiUqkMyv/VV1/h4ODA3LlzlUDJ09NTZ8+o+pZfV/8qWFlZsWDBAhYsWKBTvr5OnDjBrVu3WLBggbIWS9/+9+zZk9atWyt5bG1tuXHjhsFtEEII8WSQQKoaLVu25F//+pfOfxs3bgTuflX+4sWLXLx4kSZNmrBx40YuXryoLEA31M6dOzl58iRBQUF6BQVr1qzBycmJs2fPcvr0aWXRdYWAgAASExOJiooiNjaWxMREli1bhqmpqc59S5cuZfz48SQlJXHlyhWl7rryp6enM3PmTMaPH8+5c+eIj49n69atVUaf6lt+Xf1rCGVlZezbtw9zc3PCwsIMen6dO3cmMjKS06dPc+rUKUaPHs2CBQsavI1CCCEeD0bl/5ufcXJyqvLLVjyajI2NcXNzIzs7W2c/pMpsbW1xcnIiJyeH9PR0g+uoK7+xsbGy9UNKSorBG5PWVr4+/btfa9euxcHBodoRr7raZ2ZmhrOzM6WlpVy9etXgqUUhhBBPDgmkxFPFycmJzp07s3XrVqZOnSrbFwghhLgvsthcPFWWLVtGx44d2bRpkwRRQggh7puMSAkhhBBC1JMsNhdCCCGEqCcJpIQQQggh6kkCKSGEEEKIenrkF5s7ODgwa9Ys1qxZU++jSRqSr68v+fn59d436n55enoybtw44O6xJStXrnzkym/ZsiWurq7k5+dz7ty5eh3z0rlzZxo1akR8fDwFBQUG5xdCCCEehCojUkZGYGRy9/+PAjs7O/z8/JRz2B4EGxsbwsPDdXbrrjBgwAB69epV7/z3KyMjg+joaIqKihg2bNgjV/7u3buJjo7mgw8+4NNPP+XEiRN0795d7/wWFhaEhITw5ZdfEhAQwA8//ICHh4fB7RBCCCEehCqBVKPOxfSPSOFPIVcxtS17GG166ExNTXF3d8fS0vKh5K9NSkoKYWFhnDp1qsHLbojyo6Oj6dGjBz179qRbt27ExcWxZcsWvfO/8cYbuLi40K9fP7y8vIiOjiYgIKDKzulCCCHEo+D/A9SSvhDdtgxvAAAAAElFTkSuQmCC;" vertex="1" parent="1">
          <mxGeometry x="71" y="353" width="218.95" height="216" as="geometry" />
        </mxCell>
      </root>
    </mxGraphModel>
  </diagram>
</mxfile>
